/* XPM */
static const char * arrow_xpm[] = {
"16 16 51 1",
" 	c None",
".	c #4B4E51",
"+	c #4D585E",
"@	c #939496",
"#	c #C1C1C1",
"$	c #BAB9B9",
"%	c #BBBABA",
"&	c #C5C4C4",
"*	c #D5D3D2",
"=	c #DCDBDB",
"-	c #A7953E",
";	c #988A6C",
">	c #9E9087",
",	c #9D8F86",
"'	c #53585B",
")	c #6D7C83",
"!	c #9FB6C1",
"~	c #9FB7C2",
"{	c #9EB6C2",
"]	c #9DB6C1",
"^	c #9CB5BF",
"/	c #9CB2BD",
"(	c #9CB3BE",
"_	c #A4BBC6",
":	c #A0ADB4",
"<	c #82711A",
"[	c #63512E",
"}	c #57483E",
"|	c #56483D",
"1	c #3E4243",
"2	c #5F6F77",
"3	c #889CA6",
"4	c #899EA7",
"5	c #889EA8",
"6	c #8AA1AA",
"7	c #8AA1AB",
"8	c #8BA2AC",
"9	c #8DA4AF",
"0	c #91A8B3",
"a	c #57666F",
"b	c #3D474C",
"c	c #383A3D",
"d	c #3E3E3E",
"e	c #3D3D3D",
"f	c #474646",
"g	c #4E4E4E",
"h	c #5A5959",
"i	c #6B6A6A",
"j	c #706E6F",
"k	c #3C4144",
"l	c #5E5E60",
"                ",
"                ",
"                ",
"                ",
"                ",
"    .           ",
"    +@#$$%&*=   ",
"-;>,')!~{]^/(_: ",
"<[}|1234567890a ",
"    bcdefghij   ",
"    kl          ",
"                ",
"                ",
"                ",
"                ",
"                "};
