/* XPM */
static const char * delete_xpm[] = {
"64 64 713 2",
"  	c None",
". 	c #221E1F",
"+ 	c #96791C",
"@ 	c #56461E",
"# 	c #352D2E",
"$ 	c #735C5E",
"% 	c #A48081",
"& 	c #C18C8F",
"* 	c #CC8B8E",
"= 	c #CC8184",
"- 	c #BB6A6D",
"; 	c #954548",
"> 	c #5E2A2C",
", 	c #2B1F21",
"' 	c #393739",
") 	c #8F9396",
"! 	c #555355",
"~ 	c #D7AB1B",
"{ 	c #F1BF1A",
"] 	c #30291F",
"^ 	c #282324",
"/ 	c #5F4D4F",
"( 	c #AA8789",
"_ 	c #E0AEB0",
": 	c #F8B5B7",
"< 	c #F8A4A7",
"[ 	c #F79296",
"} 	c #F07579",
"| 	c #CD4A4F",
"1 	c #923135",
"2 	c #4C2729",
"3 	c #373638",
"4 	c #91989D",
"5 	c #DBE6EC",
"6 	c #E4EDF2",
"7 	c #EFF4F7",
"8 	c #C4C4C5",
"9 	c #706F71",
"0 	c #2F2829",
"a 	c #755D5F",
"b 	c #B89092",
"c 	c #E3B3B5",
"d 	c #F3BABC",
"e 	c #F8A1A4",
"f 	c #F46E72",
"g 	c #F14A50",
"h 	c #F14046",
"i 	c #F1454B",
"j 	c #E74F55",
"k 	c #D55559",
"l 	c #A6494C",
"m 	c #5D2F31",
"n 	c #281F20",
"o 	c #484A4D",
"p 	c #8F9AA1",
"q 	c #CADAE2",
"r 	c #D3E1E8",
"s 	c #FBFCFD",
"t 	c #F2F6F8",
"u 	c #CAD2D6",
"v 	c #65676B",
"w 	c #E5B61A",
"x 	c #54451E",
"y 	c #5C4B4C",
"z 	c #C39A9C",
"A 	c #F2BEC0",
"B 	c #FABEC0",
"C 	c #F9A9AB",
"D 	c #F57F83",
"E 	c #F24E53",
"F 	c #EF2D33",
"G 	c #EE2026",
"H 	c #EE1E25",
"I 	c #EF242B",
"J 	c #F0353B",
"K 	c #F24F54",
"L 	c #F36368",
"M 	c #F4676B",
"N 	c #E9565B",
"O 	c #A7383C",
"P 	c #402223",
"Q 	c #44474B",
"R 	c #8E9CA5",
"S 	c #B9CDD7",
"T 	c #C1D3DC",
"U 	c #E1EBF0",
"V 	c #B2C0C8",
"W 	c #5C6065",
"X 	c #D8AB1B",
"Y 	c #272223",
"Z 	c #886C6D",
"` 	c #ECB9BB",
" .	c #FAC1C3",
"..	c #F8A3A6",
"+.	c #F46F73",
"@.	c #F14248",
"#.	c #EF2930",
"$.	c #ED1C23",
"%.	c #E61B22",
"&.	c #E31B21",
"*.	c #E51B22",
"=.	c #EA1C22",
"-.	c #EE1D24",
";.	c #F03239",
">.	c #F1464C",
",.	c #F25055",
"'.	c #F14349",
").	c #D02D32",
"!.	c #601F21",
"~.	c #231E1F",
"{.	c #B1C5D0",
"].	c #DCE7ED",
"^.	c #E3EBF0",
"/.	c #BFD1DA",
"(.	c #96A6B0",
"_.	c #3B3C40",
":.	c #2F281F",
"<.	c #E4B51A",
"[.	c #E0B21A",
"}.	c #282223",
"|.	c #957374",
"1.	c #F8C1C2",
"2.	c #F9B5B7",
"3.	c #F57C80",
"4.	c #EE2128",
"5.	c #DC1A20",
"6.	c #B7161B",
"7.	c #891014",
"8.	c #690C0F",
"9.	c #5E0B0E",
"0.	c #6B0D10",
"a.	c #8B1014",
"b.	c #B3151A",
"c.	c #D5191F",
"d.	c #E71B22",
"e.	c #EE1F26",
"f.	c #EF2A31",
"g.	c #F03A40",
"h.	c #DB1B22",
"i.	c #5F1C1F",
"j.	c #676E74",
"k.	c #FAFCFD",
"l.	c #FFFFFF",
"m.	c #E4ECF0",
"n.	c #B0C6D1",
"o.	c #A7BECA",
"p.	c #51585D",
"q.	c #3C321E",
"r.	c #C79F1B",
"s.	c #252021",
"t.	c #8C696A",
"u.	c #FABABD",
"v.	c #F9ABAE",
"w.	c #EF2C33",
"x.	c #E41B21",
"y.	c #A21318",
"z.	c #3C0709",
"A.	c #3B080A",
"B.	c #3A090B",
"C.	c #570A0D",
"D.	c #A11318",
"E.	c #D6191F",
"F.	c #EF232A",
"G.	c #EF3036",
"H.	c #C0181E",
"I.	c #501C1E",
"J.	c #788288",
"K.	c #EDF2F5",
"L.	c #9EB7C4",
"M.	c #4E555B",
"N.	c #694C4E",
"O.	c #F1ABAD",
"P.	c #F36065",
"Q.	c #EF272D",
"R.	c #EE1C23",
"S.	c #DF1A21",
"T.	c #820F13",
"U.	c #390A0C",
"V.	c #301213",
"W.	c #2B1617",
"X.	c #291719",
"Y.	c #2A1718",
"Z.	c #2D1516",
"`.	c #321012",
" +	c #380B0C",
".+	c #7A0E12",
"++	c #C6171D",
"@+	c #EE2027",
"#+	c #EF282F",
"$+	c #D71920",
"%+	c #95161A",
"&+	c #351C1E",
"*+	c #9FADB4",
"=+	c #F5F8FA",
"-+	c #D3E0E6",
";+	c #95AFBD",
">+	c #444A4F",
",+	c #3D2E2F",
"'+	c #D1898C",
")+	c #F8A7AA",
"!+	c #F46D72",
"~+	c #AF151A",
"{+	c #420D0F",
"]+	c #261A1C",
"^+	c #2A241F",
"/+	c #301113",
"(+	c #3A090A",
"_+	c #770E12",
":+	c #C5171D",
"<+	c #631518",
"[+	c #5E6266",
"}+	c #D1DEE6",
"|+	c #BBCED8",
"1+	c #EFF3F6",
"2+	c #EBF0F2",
"3+	c #8EA5B2",
"4+	c #2F2F32",
"5+	c #241F20",
"6+	c #845356",
"7+	c #F89B9E",
"8+	c #F6878B",
"9+	c #E81B22",
"0+	c #BB161B",
"a+	c #76161A",
"b+	c #2E1D1E",
"c+	c #56461D",
"d+	c #4E0C0E",
"e+	c #8E1115",
"f+	c #D2191F",
"g+	c #EC1C23",
"h+	c #CA181E",
"i+	c #7E1114",
"j+	c #3B191B",
"k+	c #99A3A9",
"l+	c #C6D7E0",
"m+	c #C5D5DD",
"n+	c #E2E9ED",
"o+	c #6D828E",
"p+	c #362829",
"q+	c #CB7477",
"r+	c #F79497",
"s+	c #F2555A",
"t+	c #E91B22",
"u+	c #CB181E",
"v+	c #B9161B",
"w+	c #EF252C",
"x+	c #EE2229",
"y+	c #80191D",
"z+	c #2A1E1F",
"A+	c #987A1C",
"B+	c #484F55",
"C+	c #58656D",
"D+	c #381719",
"E+	c #750F13",
"F+	c #B2151A",
"G+	c #E21B21",
"H+	c #911115",
"I+	c #4F1316",
"J+	c #616568",
"K+	c #CBD9DF",
"L+	c #C0D1DA",
"M+	c #9CB4C0",
"N+	c #464F55",
"O+	c #643B3D",
"P+	c #F68286",
"Q+	c #F57E82",
"R+	c #640C0F",
"S+	c #46080A",
"T+	c #961216",
"U+	c #EF282E",
"V+	c #6D1A1D",
"W+	c #251E1F",
"X+	c #D4A91B",
"Y+	c #677A84",
"Z+	c #8BA8B6",
"`+	c #555F66",
" @	c #5C171A",
".@	c #A81419",
"+@	c #EB1C23",
"@@	c #B1151A",
"#@	c #711115",
"$@	c #391B1D",
"%@	c #291E1F",
"&@	c #D3DDE3",
"*@	c #FAFBFC",
"=@	c #B2C5CE",
"-@	c #748E9B",
";@	c #7D641D",
">@	c #94484B",
",@	c #F57A7E",
"'@	c #F35D62",
")@	c #A41318",
"!@	c #330F11",
"~@	c #520B0D",
"{@	c #A61418",
"]@	c #DE1A21",
"^@	c #B9171C",
"/@	c #561B1E",
"(@	c #8E721C",
"_@	c #8A6F1D",
":@	c #282628",
"<@	c #6B7D87",
"[@	c #7F95A1",
"}@	c #391D1E",
"|@	c #A1171C",
"1@	c #D81920",
"2@	c #D91920",
"3@	c #A01519",
"4@	c #63181B",
"5@	c #481B1D",
"6@	c #A5ABB0",
"7@	c #CEDBE2",
"8@	c #ABBFCA",
"9@	c #7F9EAD",
"0@	c #3E454A",
"a@	c #BA4E52",
"b@	c #F57378",
"c@	c #7B0E12",
"d@	c #2C1517",
"e@	c #3A1113",
"f@	c #B5151B",
"g@	c #AE181C",
"h@	c #4A1C1E",
"i@	c #9E7F1C",
"j@	c #CAA11B",
"k@	c #493C1E",
"l@	c #4C5459",
"m@	c #4C5359",
"n@	c #8F1B1F",
"o@	c #D1191F",
"p@	c #821418",
"q@	c #4B1517",
"r@	c #75787B",
"s@	c #CFDBE2",
"t@	c #F2F5F7",
"u@	c #8DA9B7",
"v@	c #5E737E",
"w@	c #D64E52",
"x@	c #F46A6F",
"y@	c #F0363C",
"z@	c #DB1A20",
"A@	c #620C0E",
"B@	c #390A0B",
"C@	c #27191B",
"D@	c #C69E1B",
"E@	c #271C1D",
"F@	c #581114",
"G@	c #851014",
"H@	c #C1171C",
"I@	c #DA1A20",
"J@	c #A0181D",
"K@	c #3D1D1E",
"L@	c #B18D1C",
"M@	c #2B292B",
"N@	c #751D21",
"O@	c #E7252B",
"P@	c #7D1013",
"Q@	c #340E0F",
"R@	c #58595B",
"S@	c #86A3B2",
"T@	c #7999A9",
"U@	c #272627",
"V@	c #BD971B",
"W@	c #E4474D",
"X@	c #D91A20",
"Y@	c #610B0E",
"Z@	c #370B0D",
"`@	c #251B1C",
" #	c #4F411E",
".#	c #79621D",
"+#	c #301B1C",
"@#	c #601012",
"##	c #8D1115",
"$#	c #D4191F",
"%#	c #90181C",
"&#	c #2E1D1F",
"*#	c #C89F1B",
"=#	c #8F731C",
"-#	c #5F2427",
";#	c #E1383E",
">#	c #360C0E",
",#	c #2D261F",
"'#	c #E43B41",
")#	c #F24D52",
"!#	c #E01A21",
"~#	c #31291E",
"{#	c #35191A",
"]#	c #660E11",
"^#	c #941116",
"/#	c #7E191D",
"(#	c #261E1F",
"_#	c #B6911B",
":#	c #5E2B2E",
"<#	c #E24E54",
"[#	c #F25258",
"}#	c #C8171D",
"|#	c #45080A",
"1#	c #370C0D",
"2#	c #4C3F1E",
"3#	c #DB2E34",
"4#	c #F03C42",
"5#	c #9A1217",
"6#	c #380A0C",
"7#	c #261A1B",
"8#	c #CFA41B",
"9#	c #483B1E",
"0#	c #3C1719",
"a#	c #6D0E10",
"b#	c #A01317",
"c#	c #EF262C",
"d#	c #C5181E",
"e#	c #6E1A1D",
"f#	c #53441E",
"g#	c #A6841C",
"h#	c #6E3739",
"i#	c #E9666B",
"j#	c #350D0F",
"k#	c #58481E",
"l#	c #C02127",
"m#	c #C0171C",
"n#	c #5B0B0E",
"o#	c #2E1718",
"p#	c #AE8B1C",
"q#	c #EFBE1A",
"r#	c #451517",
"s#	c #750E11",
"t#	c #AA1419",
"u#	c #DD1A21",
"v#	c #B8171C",
"w#	c #5D1B1D",
"x#	c #29231F",
"y#	c #56471E",
"z#	c #965255",
"A#	c #F3595F",
"B#	c #B8161B",
"C#	c #755E1D",
"D#	c #971C21",
"E#	c #491316",
"F#	c #251D1F",
"G#	c #EAB91A",
"H#	c #DEB01A",
"I#	c #271D1E",
"J#	c #4D1215",
"K#	c #790E12",
"L#	c #B4181D",
"M#	c #4D282A",
"N#	c #C98588",
"O#	c #F78E91",
"P#	c #F1484D",
"Q#	c #E11A21",
"R#	c #321011",
"S#	c #2C1617",
"T#	c #A5841C",
"U#	c #661C1F",
"V#	c #C9181E",
"W#	c #871216",
"X#	c #3B1B1D",
"Y#	c #9D7E1C",
"Z#	c #C29A1B",
"`#	c #2A1C1D",
" $	c #551113",
".$	c #830F13",
"+$	c #BF171C",
"@$	c #BD4D51",
"#$	c #9F7A7C",
"$$	c #ECAEB0",
"%$	c #F6868A",
"&$	c #F03138",
"*$	c #2A1719",
"=$	c #241C1D",
"-$	c #383D42",
";$	c #3A3F43",
">$	c #371D1F",
",$	c #AC181D",
"'$	c #C4171D",
")$	c #87171B",
"!$	c #311D1F",
"~$	c #41361E",
"{$	c #AC891C",
"]$	c #2F1B1C",
"^$	c #5D0F13",
"/$	c #8A1014",
"($	c #C7171D",
"_$	c #F03339",
":$	c #F16166",
"<$	c #F59B9D",
"[$	c #F79598",
"}$	c #F2575C",
"|$	c #921115",
"1$	c #340E10",
"2$	c #231D1E",
"3$	c #D2A71A",
"4$	c #63501D",
"5$	c #393E42",
"6$	c #7D99A7",
"7$	c #8BA7B6",
"8$	c #93AEBC",
"9$	c #9DB6C4",
"0$	c #B3C7D2",
"a$	c #BFD1DB",
"b$	c #CEDDE5",
"c$	c #DEE9EE",
"d$	c #F1F6F8",
"e$	c #D7E4EA",
"f$	c #C3D5DE",
"g$	c #B1C6D1",
"h$	c #A3BBC8",
"i$	c #98B1BF",
"j$	c #78929F",
"k$	c #231F20",
"l$	c #72191C",
"m$	c #BA161B",
"n$	c #931B20",
"o$	c #331E20",
"p$	c #57471E",
"q$	c #A3831C",
"r$	c #93761C",
"s$	c #3A191B",
"t$	c #710F13",
"u$	c #F1444A",
"v$	c #F13E44",
"w$	c #A2821C",
"x$	c #3B3F44",
"y$	c #84A2B0",
"z$	c #34373A",
"A$	c #3A1C1E",
"B$	c #901318",
"C$	c #B82A2E",
"D$	c #522729",
"E$	c #261F20",
"F$	c #836A1D",
"G$	c #631D1F",
"H$	c #CE1A20",
"I$	c #E6B71A",
"J$	c #7E96A3",
"K$	c #56666F",
"L$	c #4D171A",
"M$	c #840F13",
"N$	c #F0383E",
"O$	c #E04C50",
"P$	c #9D484B",
"Q$	c #653C3D",
"R$	c #453132",
"S$	c #3D3031",
"T$	c #3F3435",
"U$	c #4A393A",
"V$	c #C66C6F",
"W$	c #F2585D",
"X$	c #291819",
"Y$	c #A0B2BC",
"Z$	c #5D6166",
"`$	c #4E4F51",
" %	c #525154",
".%	c #565556",
"+%	c #575556",
"@%	c #505053",
"#%	c #4B4C4F",
"$%	c #4F5357",
"%%	c #636D74",
"&%	c #5D6870",
"*%	c #788E9A",
"=%	c #728C9A",
"-%	c #281D1E",
";%	c #4D1315",
">%	c #6E0D10",
",%	c #F25358",
"'%	c #EF7B7F",
")%	c #DB8083",
"!%	c #CE8789",
"~%	c #D1999B",
"{%	c #E1AFB1",
"]%	c #EDA6A8",
"^%	c #991217",
"/%	c #2E1415",
"(%	c #886E1D",
"_%	c #8EA0AA",
":%	c #2C292B",
"<%	c #36383C",
"[%	c #7D9CAB",
"}%	c #33363A",
"|%	c #281C1D",
"1%	c #3D0F11",
"2%	c #540A0C",
"3%	c #F36166",
"4%	c #F79A9E",
"5%	c #F7989B",
"6%	c #F5787C",
"7%	c #7D0F12",
"8%	c #E9B91A",
"9%	c #95ACB9",
"0%	c #2B292A",
"a%	c #5E7079",
"b%	c #4D5C64",
"c%	c #261C1D",
"d%	c #5C0B0E",
"e%	c #F0373D",
"f%	c #3F0709",
"g%	c #3A080A",
"h%	c #2F1314",
"i%	c #546068",
"j%	c #576067",
"k%	c #292729",
"l%	c #7794A2",
"m%	c #67818E",
"n%	c #2D1415",
"o%	c #39090B",
"p%	c #48080B",
"q%	c #800F13",
"r%	c #AB1419",
"s%	c #AD1419",
"t%	c #380B0D",
"u%	c #E1B21A",
"v%	c #718995",
"w%	c #414448",
"x%	c #4F5D65",
"y%	c #7798A8",
"z%	c #2D2E31",
"A%	c #9A7B1C",
"B%	c #EEBC1A",
"C%	c #2E2E31",
"D%	c #83A1B0",
"E%	c #484D52",
"F%	c #6C8896",
"G%	c #47535A",
"H%	c #B6921B",
"I%	c #60757F",
"J%	c #6E7D86",
"K%	c #424C52",
"L%	c #647F8C",
"M%	c #4B3E1E",
"N%	c #362E1F",
"O%	c #2E271F",
"P%	c #59491E",
"Q%	c #80671D",
"R%	c #7C9BAB",
"S%	c #5E7783",
"T%	c #2D2D30",
"U%	c #705A1D",
"V%	c #323438",
"W%	c #7697A7",
"X%	c #6C787F",
"Y%	c #373C41",
"Z%	c #455159",
"`%	c #323539",
" &	c #3D3E41",
".&	c #313538",
"+&	c #303438",
"@&	c #353B40",
"#&	c #435158",
"$&	c #485861",
"%&	c #2B2D2F",
"&&	c #97A7B0",
"*&	c #2C2A2B",
"=&	c #688B9A",
"-&	c #6D92A2",
";&	c #838D94",
">&	c #627986",
",&	c #626669",
"'&	c #52636C",
")&	c #686A6D",
"!&	c #48545C",
"~&	c #6E6E70",
"{&	c #383E42",
"]&	c #737172",
"^&	c #272527",
"/&	c #5F7C89",
"(&	c #4C5F69",
"_&	c #282729",
":&	c #959B9F",
"<&	c #2D2B2C",
"[&	c #516771",
"}&	c #566E79",
"|&	c #7694A2",
"1&	c #AFBEC6",
"2&	c #595E63",
"3&	c #5A7581",
"4&	c #394248",
"5&	c #667D88",
"6&	c #9BB2BE",
"7&	c #6C7B84",
"8&	c #313033",
"9&	c #454E54",
"0&	c #667983",
"a&	c #3A3E43",
"b&	c #648492",
"c&	c #77919E",
"d&	c #627A86",
"e&	c #414B52",
"f&	c #3E4A50",
"g&	c #3C4044",
"h&	c #7394A4",
"i&	c #668392",
"j&	c #3A4248",
"k&	c #4B5259",
"l&	c #7092A2",
"m&	c #5B7481",
"n&	c #424549",
"o&	c #9FB5C0",
"p&	c #86939B",
"q&	c #A4AEB4",
"r&	c #525254",
"s&	c #BEC1C2",
"t&	c #3C393B",
"u&	c #888D92",
"v&	c #AEBDC6",
"w&	c #6B777E",
"x&	c #899FAB",
"y&	c #303033",
"z&	c #475056",
"A&	c #5B6D77",
"B&	c #2D2E30",
"C&	c #3B4349",
"D&	c #3F4950",
"                                                                                                                                ",
"                                                                                                                                ",
"                                                                                                                                ",
"                                                                        . . .                                                   ",
"          .                       . . . . . .                       . . . . . . .                                               ",
"        . + @ .               # $ % & * = - ; > ,               . . . . ' ) ! . . . . .                                         ",
"        . ~ { + ]           ^ / ( _ : < [ } | 1 2 .         . . . . 3 4 5 6 7 8 9 . . . . .                                     ",
"        . { { { ~ @ .   0 a b c d e f g h i g j k l m n . . . . o p q r 5 6 7 s t u v . . . .                                   ",
"        @ { { { { w x y z A B C D E F G H I J K L M N O P . Q R S T q r 5 6 7 s t U r V W . . . .                               ",
"        @ { { { X Y Z `  ...+.@.#.$.%.&.*.=.-.I ;.>.,.'.).!.~.{.S T q r 5 6 7 s t U ].^./.(._.. . .                             ",
"        :.<.{ [.}.|.1.2.3.h 4.5.6.7.8.9.0.a.b.c.d.e.f.g.;.h.i.j.S T q r 5 6 7 s t U k.l.m.n.o.p.. . .                           ",
"          q.r.s.t.u.v.L w.-.x.y.z.z.A.B.B.A.z.C.D.E.=.F.G.e.H.I.J.T q r 5 6 7 s t U l.l.K.n.o.L.M.. . .                         ",
"            . N.O.C P.Q.R.R.S.T.U.V.W.X.Y.Z.`. +z..+++d.@+#+$+%+&+*+q r 5 6 7 s t U =+l.-+n.o.L.;+>+. . .                       ",
"            ,+'+)+!+#+R.R.R.d.~+{+]+^+.     . ]+/+(+_+:+d.4.$.~+<+[+q r 5 6 7 s t U r }+|+n.1+l.2+3+4+. .           .           ",
"          5+6+7+8+J R.$.$.R.-.9+0+a+b+c+. . . . . W.d+e+f+g+4.h+i+j+k+r 5 6 7 s t U r l+|+m+l.l.l.n+o+. . .         .           ",
"          p+q+r+s+t+u+v+++5.g+w+x+f+y+z+A+:.. . B+C+D+E+F+G+-.G+H+I+J+K+5 6 7 s t U r l+|+L+l.l.l.l.M+N+. . .     . :.          ",
"          O+P+Q+;.u+R+z.S+T+$+$.U+e.h+V+W+X+@ . Y+Z+`+ @.@$++@+@@@#@$@%@&@6 7 s t U r l+|+n.*@l.l.l.=@-@. . .     :.;@          ",
"        . >@,@'@H )@z.!@/+~@{@]@-.Q.%.^@/@(@{ _@:@<@[@}@|@1@+@-.2@3@4@5@6@6 7 s t U r l+|+n.7@l.l.l.8@9@0@. . . . _@_@.         ",
"        . a@b@>.x.c@z.d@. e@.+f@G+H w+]@g@h@i@{ j@k@l@m@n@*.G -.R.o@p@q@r@6 7 s t U r l+|+n.o.s@t@n+u@9@v@. . . :.<.+ .         ",
"        . w@x@y@z@A@B@C@D@E@F@G@H@d.@+w+I@J@K@L@{ <.;@M@N@O@F -.G G+P@Q@R@6 7 s t U r l+|+n.o.L.;+u@S@9@T@U@. . _@{ V@.         ",
"        . W@'@#.X@Y@Z@`@ #.#+#@###u+=.x+w+$#%#&#*#{ { =#-#;#h G -.5.R+>#,#@ @ @ :.. . . . . . . . . . . . . . :.<.{ V@.         ",
"        . '#)#x+!#_+Z@`@i@@ ~#{#]#^#f+g+w+@+u+/#(#[.{ _#:#<#[#x+=.}#|#1#2#{ { { { { { { { { { { { { { { { { { { { { V@.         ",
"        . 3#4#G =.5#6#7#8#{ ~ 9#0#a#b#X@$.c#$.d#e#f#<.g#h#i#'@x+5.^#z.j#k#{ { { { { { { { { { { { { { { { { { { { { { .         ",
"        . l#F 4.-.m#n#o#p#{ { q#~.r#s#t#u#-.Q.d.v#w#x#y#z#D A#R.B#z.U.`.C#{ { { { { { { { { { { { { { { { { { { { { { .         ",
"        . D#H F.R.!#e+E#F#G#{ { H#I#J#K#b.G+e.Q.I@L#M#^ N#O#P#Q#c@A.R#S#T#{ { { { { { { { { { { { { { { { { { { { { { .         ",
"          U#X@=.=.-.V#W#X#Y#{ { { Z#`# $.$+$d.@+x+$.@$#$$$%$&$}#z.U.*$=$. -$;$. . . . . . . . . . . . . . . . . . ;@{ @         ",
"          >$,$c.d.H -.'$)$!$~$+ <.{ {$]$^$/$($9+x+_$:$<$[$}$R.|$z.1$2$3$4$5$6$7$8$9$o.0$a$b$c$d$d$e$f$g$h$i$u@j$k$. @ k@        ",
"          (#l$m$2@=.x+e.E.n$o$p$:.4$q$r$s$t$)@z@R.w+J u$v$U+V#z.A.d@w${ { ;@x$7$8$9$o.0$a$b$c$d$d$e$f$g$h$i$u@y$z$k$. .         ",
"            A$B$@@X@$.c##.x+C$D$E$F$4$. k@G$H$-.-.R.-.-.-.5.s#z.j#2$I${ { { q.J$8$9$o.0$a$b$c$d$d$e$f$g$h$i$u@y$K$k$k$          ",
"            . L$M$t#5.-.#+N$h O$P$Q$R$S$T$U$V$W$c#R.R.R.&.T+z.B.X$L@{ { { { @ J$8$9$o.Y$Z$`$ %.%+%@%#%$%%%&%*%y$=%k$k$          ",
"              -%;%>%D.X@$.c#g.,%x@'%)%!%~%{%]%!+f.R.$.S.^%z.z./%(%{ { { { { :@7$8$9$_%:%k$k$k$k$k$k$k$k$k$k$<%y$[%}%k$k$        ",
"                |%1%2%a.u+d.G F i 3%,@O#4%5%6%>.I =.o@7%z.z.V.~.8%{ { { { V@x$7$8$9%0%k$k$k$k$k$k$k$k$k$k$k$k$a%[%b%k$k$        ",
"                  c%R#z.d%b#f+d.-.x+f._$e%;.#.-.$+D.f%z.g%h%2$X { { { { { + i%7$8$j%k$k$. . . . . . . . . k$k$k%l%m%k$k$        ",
"                    2$n%o%z.p%q%r%V#X@S.2@}#s%7%z.z.z.t%Y.. u%{ { { { { { k@v%7$8$w%k$k$. . . . . . . . . . k$k$x%y%z%k$k$      ",
"                      . 7#/+6#z.z.z.z.z.z.z.z.z.z.Z@/%`@A%B%{ { { { { { V@C%D%7$8$E%k$k$. . . . . . . . . . k$k$k%F%G%k$k$      ",
"                          2$`@d@`.>#o%g%(+6#j#/+Y.=$. H%{ { { { { { { <.k@I%D%7$8$J%k$k$. . . . . . . . . . . k$k$K%L%k$k$      ",
"                                . M%N%O%] ~$P%Q%L@H#q#{ { { { { { { ~ @ K%R%D%7$8$9%0%k$k$. . . . . . . . . . k$k$k$S%T%k$k$    ",
"                                @ { <.V@V@V@V@V@q$_@_@_@_@U%@ @ @ . . V%W%R%D%7$8$9$X%k$k$. . . . . . . . . . . k$k$Y%Z%k$k$    ",
"                              . . . . . . . . . . . . . . . . . . . . `%W%R%D%7$8$9$o. &k$k$. . . . . . . . . . . k$k$.&k$k$    ",
"                                . . . . +&@&@&@&@&@&@&#&$&$&$&$&$&%&. k$W%R%D%7$8$9$o.&&*&k$k$. . . . . . . . . . k$k$k$k$k$k$  ",
"                              . . +&=&-&-&-&-&-&-&-&-&-&-&-&-&-&-&@&. k$F%R%D%7$8$9$o.0$;&k$k$k$. . . . . . . . . . k$k$k$      ",
"                            . . +&=&-&-&-&-&-&-&-&-&-&-&-&-&-&-&-&@&. k$>&R%D%7$8$9$o.0$a$,&k$k$k$. . . . . . . . . . .         ",
"                          . . +&=&-&-&-&-&-&-&-&-&-&-&-&-&-&-&-&-&$&. k$'&R%D%7$8$9$o.0$a$b$)&k$k$k$. . . . . . . . . .         ",
"                        . . +&=&-&-&-&-&-&-&-&-&-&-&-&-&-&-&-&-&-&$&. k$!&R%D%7$8$9$o.0$a$b$c$~&k$k$k$. . . . . . . . . .       ",
"                      . . %&=&-&-&-&-&-&-&-&-&-&-&-&-&-&-&-&-&-&-&$&. k${&R%D%7$8$9$o.0$a$b$c$d$]&k$k$k$k$. . . . . . . .       ",
"                    . . ^&/&-&-&-&-&-&-&-&-&-&-&-&-&-&-&-&-&-&-&-&(&. k$_&R%D%7$8$9$o.0$a$b$c$d$d$:&<&k$k$k$k$. . .             ",
"                  . . . [&-&-&-&-&-&-&-&-&-&-&-&-&-&-&-&-&-&-&-&-&}&. . k$|&D%7$8$9$o.0$a$b$c$d$d$e$1&2&M@k$k$k$k$              ",
"                  . . #&-&-&-&-&-&-&-&-&-&-&-&-&-&-&-&-&-&-&-&3&4&. . k$k$5&D%7$8$9$o.0$a$b$c$d$d$e$f$g$6&7&8&k$k$k$k$          ",
"                  . . /&-&-&-&-&-&-&-&-&-&-&-&-&-&-&-&-&=&[&%&. . . . k$k$9&D%7$8$9$o.0$a$b$c$d$d$e$f$g$h$i$u@0&a&k$k$k$k$k$    ",
"                  . . . @&$&3&-&-&-&-&-&-&-&-&-&-&-&b&#&^&. . . .       k$k%c&7$8$9$o.0$a$b$c$d$d$e$f$g$h$i$u@y$[%d&e&k$k$k$k$  ",
"                  . . . . . . . +&f&$&3&b&-&-&-&}&@&. . . . .           k$k$g&7$8$9$o.0$a$b$c$d$d$e$f$g$h$i$u@y$[%y%h&i&j&k$k$  ",
"                        . . . . . . . . . . %&%&. . . . .                 k$k$k&8$9$o.0$a$b$c$d$d$e$f$g$h$i$u@y$[%y%h&l&m&k$k$  ",
"                                . . . . . . . . . .                       k$k$k$M.9$o.0$a$b$c$d$d$e$f$g$h$i$u@y$[%y%h&l&m&k$k$  ",
"                                            . .                             k$k$k$n&o&0$a$b$c$d$d$e$f$g$h$i$u@y$[%y%h&l&m&k$k$  ",
"                                                                              k$k$k$:%p&a$b$c$d$d$e$f$g$h$i$u@y$[%y%h&l&m&k$k$  ",
"                                                                                k$k$k$k$#%q&c$d$d$e$f$g$h$i$u@y$[%y%h&l&m&k$k$  ",
"                                                                                    k$k$k$k$r&s&d$e$f$g$h$i$u@y$[%y%h&l&m&k$k$  ",
"                                                                                        k$k$k$k$t&u&v&g$h$i$u@y$[%y%h&l&m&k$k$  ",
"                                                                                            k$k$k$k$k$ &w&x&u@y$[%y%h&l&m&k$k$  ",
"                                                                                                k$k$k$k$k$k$y&z&A&F%h&l&m&k$k$  ",
"                                                                                                      k$k$k$k$k$k$k$B&C&D&k$k$  ",
"                                                                                                            k$k$k$k$k$k$k$k$k$  ",
"                                                                                                                    k$k$k$k$k$  ",
"                                                                                                                                "};
