/* XPM */
static const char * jump_in_xpm[] = {
"64 64 545 2",
"  	c None",
". 	c #AA8328",
"+ 	c #9D7925",
"@ 	c #866720",
"# 	c #6F561A",
"$ 	c #614B17",
"% 	c #5B4615",
"& 	c #5A4515",
"* 	c #634D17",
"= 	c #81641E",
"- 	c #9C7825",
"; 	c #A88128",
"> 	c #9F7B25",
", 	c #85671F",
"' 	c #6B5319",
") 	c #5E4816",
"! 	c #503E13",
"~ 	c #372B0D",
"{ 	c #2B210A",
"] 	c #523F13",
"^ 	c #9E7A25",
"/ 	c #A98228",
"( 	c #916F22",
"_ 	c #775B1C",
": 	c #3B2D0E",
"< 	c #33280C",
"[ 	c #594515",
"} 	c #8E6D21",
"| 	c #A37D26",
"1 	c #A57F27",
"2 	c #886920",
"3 	c #6D541A",
"4 	c #453510",
"5 	c #291F0A",
"6 	c #251D0A",
"7 	c #221A0A",
"8 	c #1F1809",
"9 	c #1C1609",
"0 	c #1B1609",
"a 	c #241C0D",
"b 	c #271F0F",
"c 	c #292010",
"d 	c #292110",
"e 	c #312711",
"f 	c #513F17",
"g 	c #957323",
"h 	c #A47E27",
"i 	c #A78127",
"j 	c #927122",
"k 	c #765B1C",
"l 	c #433410",
"m 	c #271E0A",
"n 	c #211A09",
"o 	c #1B1509",
"p 	c #271F0E",
"q 	c #2F2512",
"r 	c #3D3016",
"s 	c #4F3F1D",
"t 	c #5E4B22",
"u 	c #705D36",
"v 	c #776640",
"w 	c #715F39",
"x 	c #574520",
"y 	c #51411E",
"z 	c #71581F",
"A 	c #977424",
"B 	c #A37E26",
"C 	c #513E13",
"D 	c #261E0A",
"E 	c #1E1809",
"F 	c #1A1509",
"G 	c #382C15",
"H 	c #4F3E1D",
"I 	c #604C23",
"J 	c #6E5C34",
"K 	c #6F5D35",
"L 	c #6A572E",
"M 	c #665329",
"N 	c #634F24",
"O 	c #624E23",
"P 	c #614D23",
"Q 	c #614D26",
"R 	c #6D5623",
"S 	c #765C1F",
"T 	c #8C6C21",
"U 	c #997624",
"V 	c #83651F",
"W 	c #473711",
"X 	c #29200A",
"Y 	c #201909",
"Z 	c #1A1409",
"` 	c #302612",
" .	c #463719",
"..	c #5C4921",
"+.	c #68552C",
"@.	c #69562C",
"#.	c #655127",
"$.	c #5B4821",
"%.	c #5C4920",
"&.	c #614C1E",
"*.	c #8B6B21",
"=.	c #A17C26",
"-.	c #493911",
";.	c #251C0A",
">.	c #2A210F",
",.	c #423418",
"'.	c #604C22",
").	c #594720",
"!.	c #584521",
"~.	c #675123",
"{.	c #B3903F",
"].	c #B3903E",
"^.	c #2A200A",
"/.	c #221B0A",
"(.	c #1D170B",
"_.	c #403317",
":.	c #665228",
"<.	c #645126",
"[.	c #5A4820",
"}.	c #5F4C26",
"|.	c #7F6D47",
"1.	c #B9994E",
"2.	c #BB9B52",
"3.	c #B7964A",
"4.	c #876820",
"5.	c #4A3911",
"6.	c #1F180B",
"7.	c #48391A",
"8.	c #5B4820",
"9.	c #624F2B",
"0.	c #887653",
"a.	c #BEA15B",
"b.	c #BA9A50",
"c.	c #8F6E22",
"d.	c #534013",
"e.	c #2A210A",
"f.	c #211A0A",
"g.	c #201A0C",
"h.	c #4A3B1A",
"i.	c #675532",
"j.	c #8C7C5A",
"k.	c #C1A562",
"l.	c #C0A360",
"m.	c #775C1C",
"n.	c #392C0D",
"o.	c #241C0A",
"p.	c #231C0D",
"q.	c #483A1A",
"r.	c #7B6B4C",
"s.	c #A09275",
"t.	c #CAB27A",
"u.	c #C6AC6F",
"v.	c #BC9E56",
"w.	c #4D3C12",
"x.	c #281F0A",
"y.	c #231C0C",
"z.	c #604D22",
"A.	c #6A572F",
"B.	c #95886B",
"C.	c #B4A78C",
"D.	c #D3BF90",
"E.	c #CBB47C",
"F.	c #BD9F58",
"G.	c #31260C",
"H.	c #1E1709",
"I.	c #342913",
"J.	c #634F25",
"K.	c #776643",
"L.	c #A3967B",
"M.	c #BEB092",
"N.	c #D4C193",
"O.	c #CBB37B",
"P.	c #4B3A12",
"Q.	c #281F0E",
"R.	c #4C3C1B",
"S.	c #817152",
"T.	c #A89979",
"U.	c #C5B48E",
"V.	c #CFB986",
"W.	c #C3A868",
"X.	c #B08C37",
"Y.	c #1D1709",
"Z.	c #3E3117",
"`.	c #645026",
" +	c #897C5F",
".+	c #AB9B78",
"++	c #CBB686",
"@+	c #C9B177",
"#+	c #B9994F",
"$+	c #977423",
"%+	c #5F4916",
"&+	c #2C230F",
"*+	c #6F5D37",
"=+	c #96886B",
"-+	c #B7A47B",
";+	c #C8B077",
">+	c #C2A666",
",+	c #B08C38",
"'+	c #463610",
")+	c #1F180A",
"!+	c #3A2E15",
"~+	c #5F4C22",
"{+	c #827352",
"]+	c #A6987B",
"^+	c #C8B488",
"/+	c #C8AF75",
"(+	c #BD9E57",
"_+	c #785C1C",
":+	c #3D2F0E",
"<+	c #45371A",
"[+	c #8F8165",
"}+	c #B2A484",
"|+	c #D3BF91",
"1+	c #CDB680",
"2+	c #9B7724",
"3+	c #654E18",
"4+	c #2F2511",
"5+	c #57451F",
"6+	c #67542A",
"7+	c #786743",
"8+	c #9E9175",
"9+	c #C1AF88",
"0+	c #C7AE72",
"a+	c #B59344",
"b+	c #85661F",
"c+	c #21190A",
"d+	c #3A2E16",
"e+	c #8D7F61",
"f+	c #B0A386",
"g+	c #D4C194",
"h+	c #BFA15C",
"i+	c #AA8329",
"j+	c #A78027",
"k+	c #755A1C",
"l+	c #3B2E0E",
"m+	c #211A0B",
"n+	c #443619",
"o+	c #6C5931",
"p+	c #796845",
"q+	c #A2967D",
"r+	c #C8B893",
"s+	c #D5C295",
"t+	c #CCB57E",
"u+	c #BA9B51",
"v+	c #8D6C21",
"w+	c #513F13",
"x+	c #2D2310",
"y+	c #54431E",
"z+	c #918365",
"A+	c #B4A78B",
"B+	c #D7C59B",
"C+	c #D2BD8C",
"D+	c #C5AA6B",
"E+	c #372C15",
"F+	c #887858",
"G+	c #A89C84",
"H+	c #D1C09A",
"I+	c #CCB47D",
"J+	c #241C0C",
"K+	c #443719",
"L+	c #6D5A33",
"M+	c #7B6945",
"N+	c #A79C86",
"O+	c #CCC0A5",
"P+	c #DCCCA6",
"Q+	c #AF8B35",
"R+	c #352A14",
"S+	c #9E937B",
"T+	c #C1B59D",
"U+	c #DDCFAC",
"V+	c #D9C89F",
"W+	c #1F1909",
"X+	c #4E3E1C",
"Y+	c #B4A88F",
"Z+	c #D5C6A2",
"`+	c #D7C59A",
" @	c #CEB884",
".@	c #BC9D55",
"+@	c #AD8830",
"@@	c #231B0A",
"#@	c #1F190C",
"$@	c #8C7D5F",
"%@	c #AFA58E",
"&@	c #D1C3A2",
"*@	c #D8C69C",
"=@	c #D0BB89",
"-@	c #31260B",
";@	c #261D0A",
">@	c #211B0C",
",@	c #47381A",
"'@	c #8E7F62",
")@	c #B3A993",
"!@	c #D3C7A9",
"~@	c #DDCDA9",
"{@	c #D7C499",
"]@	c #B49140",
"^@	c #261E0D",
"/@	c #5E4B21",
"(@	c #705E39",
"_@	c #95886C",
":@	c #B8AE99",
"<@	c #DECFAC",
"[@	c #DAC9A1",
"}@	c #1D1609",
"|@	c #3C2F16",
"1@	c #7E6D4B",
"2@	c #A89D87",
"3@	c #C6BCA8",
"4@	c #DACDAF",
"5@	c #DFD1AF",
"6@	c #D0BA88",
"7@	c #8D6D21",
"8@	c #73581B",
"9@	c #695119",
"0@	c #675018",
"a@	c #4F3D13",
"b@	c #3A2D10",
"c@	c #312712",
"d@	c #53421E",
"e@	c #8B7C5F",
"f@	c #B2A894",
"g@	c #CEC5B0",
"h@	c #DED1B4",
"i@	c #E0D1B0",
"j@	c #DBCBA5",
"k@	c #BB9C54",
"l@	c #5D4716",
"m@	c #816420",
"n@	c #6C5523",
"o@	c #6C5A36",
"p@	c #68542B",
"q@	c #96896F",
"r@	c #BAB09B",
"s@	c #D1C6AE",
"t@	c #E0D2B1",
"u@	c #DDCDA8",
"v@	c #D5C296",
"w@	c #CAB279",
"x@	c #34290E",
"y@	c #937223",
"z@	c #AB842B",
"A@	c #A7873B",
"B@	c #877141",
"C@	c #6A5833",
"D@	c #5D4A21",
"E@	c #877858",
"F@	c #AEA390",
"G@	c #C8BFAB",
"H@	c #D8CCB1",
"I@	c #DACAA2",
"J@	c #D1BC8B",
"K@	c #B18E3B",
"L@	c #70561A",
"M@	c #221B0D",
"N@	c #3C3015",
"O@	c #5C4818",
"P@	c #9F7A25",
"Q@	c #B8974B",
"R@	c #AC8B3D",
"S@	c #87703D",
"T@	c #6C5B39",
"U@	c #7B6A46",
"V@	c #988C73",
"W@	c #BAB19D",
"X@	c #D3C8B0",
"Y@	c #DED2B5",
"Z@	c #DBCAA4",
"`@	c #82641F",
" #	c #392D16",
".#	c #624D23",
"+#	c #493A19",
"@#	c #564317",
"##	c #B39140",
"$#	c #AB8837",
"%#	c #89713A",
"&#	c #6D5B36",
"*#	c #66532A",
"=#	c #8D7F63",
"-#	c #B2A997",
";#	c #CDC4AF",
">#	c #D9CDB1",
",#	c #D5C194",
"'#	c #AD872F",
")#	c #312612",
"!#	c #634E23",
"~#	c #564420",
"{#	c #584519",
"]#	c #755A1B",
"^#	c #9A7724",
"/#	c #AF8A35",
"(#	c #AC8834",
"_#	c #896C2E",
":#	c #72603E",
"<#	c #6D5B35",
"[#	c #8A7C5E",
"}#	c #ABA28E",
"|#	c #C7BEAA",
"1#	c #D9CDB3",
"2#	c #E1D4B7",
"3#	c #BD9F59",
"4#	c #34280C",
"5#	c #55441E",
"6#	c #584620",
"7#	c #4C3C1A",
"8#	c #594519",
"9#	c #AF8A34",
"0#	c #AD8834",
"a#	c #957837",
"b#	c #7B6942",
"c#	c #6A5731",
"d#	c #6B582F",
"e#	c #8D7F60",
"f#	c #A59A84",
"g#	c #BFB5A1",
"h#	c #D6CBB2",
"i#	c #DFD3B6",
"j#	c #DCCBA6",
"k#	c #C6AC70",
"l#	c #624C17",
"m#	c #463819",
"n#	c #594620",
"o#	c #4B3C1A",
"p#	c #544118",
"q#	c #73591B",
"r#	c #AE8B35",
"s#	c #947531",
"t#	c #7A6740",
"u#	c #73613D",
"v#	c #796843",
"w#	c #928467",
"x#	c #A69B84",
"y#	c #BDB39F",
"z#	c #D3C8AE",
"A#	c #DED0B1",
"B#	c #D6C397",
"C#	c #483711",
"D#	c #261E0B",
"E#	c #3B2F16",
"F#	c #473819",
"G#	c #4E3D17",
"H#	c #71571B",
"I#	c #A98C49",
"J#	c #968663",
"K#	c #ABA18A",
"L#	c #C3B9A5",
"M#	c #D3C8AD",
"N#	c #E0D3B2",
"O#	c #DCCCA7",
"P#	c #B28E3B",
"Q#	c #221B0B",
"R#	c #4C3C17",
"S#	c #C2A664",
"T#	c #BCA46E",
"U#	c #CFC09D",
"V#	c #E1D3B4",
"W#	c #C2A665",
"X#	c #B79548",
"Y#	c #AB842A",
"Z#	c #423310",
"`#	c #33270C",
" $	c #332812",
".$	c #56451F",
"+$	c #453619",
"@$	c #413314",
"#$	c #614B18",
"$$	c #8A6A20",
"%$	c #CEB782",
"&$	c #D6C498",
"*$	c #AB852B",
"=$	c #443410",
"-$	c #413317",
";$	c #423519",
">$	c #453615",
",$	c #6B521A",
"'$	c #A07B26",
")$	c #C5AB6D",
"!$	c #BEA05A",
"~$	c #5D4816",
"{$	c #483919",
"]$	c #594722",
"^$	c #6E5622",
"/$	c #A98533",
"($	c #B49242",
"_$	c #AD8730",
":$	c #7F621E",
"<$	c #52411B",
"[$	c #958970",
"}$	c #B0A282",
"|$	c #C5AE7A",
"1$	c #C3A767",
"2$	c #917022",
"3$	c #795E20",
"4$	c #53431F",
"5$	c #9D9179",
"6$	c #BEB49E",
"7$	c #D8C9A7",
"8$	c #B28F3D",
"9$	c #AC862D",
"0$	c #A07C26",
"a$	c #775E24",
"b$	c #614F2A",
"c$	c #69542B",
"d$	c #715F38",
"e$	c #9F937C",
"f$	c #C2B8A3",
"g$	c #DBCDAF",
"h$	c #D2BE8E",
"i$	c #C0A460",
"j$	c #AE8831",
"k$	c #A37F2A",
"l$	c #816834",
"m$	c #6F5E3D",
"n$	c #ACA38E",
"o$	c #C8BEAB",
"p$	c #DBCEB0",
"q$	c #DDCEAA",
"r$	c #AE8932",
"s$	c #A98635",
"t$	c #89713B",
"u$	c #8C7E61",
"v$	c #7F6F4D",
"w$	c #6E5B33",
"x$	c #908265",
"y$	c #A1957C",
"z$	c #B8AE9B",
"A$	c #D2C8B0",
"B$	c #DFD2B4",
"C$	c #DFD0AD",
"D$	c #AE8933",
"E$	c #B18D3A",
"F$	c #B59448",
"G$	c #B29961",
"H$	c #A59470",
"I$	c #9A8C6F",
"J$	c #A2957C",
"K$	c #ABA089",
"L$	c #CDC2AA",
"M$	c #E0D2B2",
"N$	c #BFA25E",
"O$	c #D8C79D",
"P$	c #B8984C",
"Q$	c #D9C8A0",
"R$	c #DBCAA3",
"S$	c #C9B076",
"T$	c #C7AD71",
"                                                                                                                                ",
"                                                  . . . . . . . . . . . . . . . . . . . . . . . . . . . . .                     ",
"                                  . . . . . . . . . . . . . . . . . . . . . . . . . . . . . . . . . . . . . . . . .             ",
"          . . . . . . . . . . . . . . . . . . . . . . . . . . . . . . . . . . . . . . . . . . . . . . . . . . . . . . .         ",
"            . . . . . . . . . . . . . . . . . . . . . . . . . . . . . . . . . . . . . . . . . . . . . . . . . . . . . .         ",
"            . . . . . . . . . . . . . . . . . . . . . . . . . . . . . . . . . . . + @ # $ % & & & & & * = - ; . . . . .         ",
"            . . . . . . . . . . . . . . . . . . . . . . . . . . . . . . . > , ' ) ! ~ { { { { { { { { { ] = ^ ; . . . . .       ",
"            . . . . . . . . . . . . . . . . . . . . . . . . . . . . / ( _ % : { { { { { { { { { { { { < [ _ } | . . . . .       ",
"            . . . . . . . . . . . . . . . . . . . . . . . . . . 1 2 3 4 { { { 5 6 7 8 9 0 a b c c c d e f _ g h i . . . .       ",
"            . . . . . . . . . . . . . . . . . . . . . . . . . j k l { { { m n 9 o p q r s t u v v v w x y z A 1 h . . . .       ",
"            . . . . . . . . . . . . . . . . . . . . . . . B @ C { { { D E F p G H I J K L M N O O O N P Q R S T U B . . .       ",
"            . . . . . . . . . . . . . . . . . . . . . . B V W { { X Y Z `  ...+.@.#.N O O O O O O O O O $.%.&.*.=.i . . .       ",
"            . . . . . . . . . . . . . . . . . . . . . B V -.{ { ;.o >.,.'.@.M N O O O O O O O O O O O N ).!.~./ {.].. . .       ",
"            . . . . . . . . . . . . . . . . . . . . B V -.{ ^./.(._.$.:.<.O O O O O O O O O O O O O O N [.}.|.1.2.3.. . .       ",
"            . . . . . . . . . . . . . . . . . . . / 4.5.{ ^.Y 6.7.<.<.N O O O O O O O O O O O O O O O O 8.9.0.a.a.b.. . .       ",
"            . . . . . . . . . . . . . . . . . . . c.d.{ e.f.g.h.+.O O O O O O O O O O O O O O O O O O O ..i.j.k.l.2.. . . .     ",
"            . . . . . . . . . . . . . . . . . . B m.n.{ o.p.q.+.O O O O O O O O O O O O O O O O O O O O '.r.s.t.u.v.. . . .     ",
"            . . . . . . . . . . . . . . . . . . 4.w.{ x.y.,.N O O O O O O O O O O O O O O O O O O O O z.A.B.C.D.E.F.. . . .     ",
"            . . . . . . . . . . . . . . . . . =.3 G.^.H.I.$.J.O O O O O O O O O O O O O O O O O O O O t K.L.M.N.O.1.. . . .     ",
"            . . . . . . . . . . . . . . . . . 4.P.{ o.Q.R.:.N O O O O O O O O O O O O O O O O O O O O ..S.T.U.V.W.X.. . . .     ",
"          . . . . . . . . . . . . . . . . . . k ~ ^.Y.Z.N `.O O O O O O O O O O O O O O O O O O O O O P  +.+++@+#+. . . . .     ",
"          . . . . . . . . . . . . . . . . . $+%+G.o.&+H M O O O O O O O O O O O O O O O O O O O O O '.*+=+-+;+>+,+. . . . .     ",
"          . . . . . . . . . . . . . . . . . V '+{ )+!+z.<.O O O O O O O O O O O O O O O O O O O O O ~+{+]+^+/+(+. . . . . .     ",
"          . . . . . . . . . . . . . . . . . _+:+m y.<++.O O O O O O O O O O O O O O O O O O O O O O #.[+}+|+1+v.. . . . . .     ",
"          . . . . . . . . . . . . . . . . 2+3+~ /.4+5+6+O O O O O O O O O O O O O O O O O O O O O z.7+8+9+V.0+a+. . . . . .     ",
"        . . . . . . . . . . . . . . . . . b+P.e.c+d+M `.O O O O O O O O O O O O O O O O O O O O O P e+f+g+1+h+i+. . . . . .     ",
"        . . . . . . . . . . . . . . . . j+k+l+x.m+n+o+O O O O O O O O O O O O O O O O O O O O O P p+q+r+s+t+u+. . . . . .       ",
"        . . . . . . . . . . . . . . . . v+w+< o.x+y++.O O O O O O O O O O O O O O O O O O O O O J.z+A+B+C+D+,+. . . . . .       ",
"      . . . . . . . . . . . . . . . . B k+n.e.Y E+#.`.O O O O O O O O O O O O O O O O O O O N t F+G+H+N.I+u+. . . . . . .       ",
"      . . . . . . . . . . . . . . . B V P.{ m J+K+L+O O O O O O O O O O O O O O O O O O O O t M+N+O+P+|+W.Q+. . . . . . .       ",
"      . . . . . . . . . . . . . . B V -.{ ^.H.R+~+M O O O O O O O O O O O O O O O O O O O ~+L+S+T+U+V+V.b.. . . . . . . .       ",
"      . . . . . . . . . . . . . B V -.{ ^.W+p.X++.O O O O O O O O O O O O O O O O O O O z.O [+Y+Z+`+ @.@+@. . . . . . . .       ",
"    . . . . . . . . . . . . . . 4.P.{ e.@@#@7.M N O O O O O O O O O O O O O O O O O O '.N $@%@&@*@=@l.+@. . . . . . . . .       ",
"    . . . . . . . . . . . . . =.3 -@{ ;@>@,@+.`.O O O O O O O O O O O O O O O O O O '.:.'@)@!@~@{@@+]@. . . . . . . . . .       ",
"    . . . . . . . . . . . . . 4.P.{ x.^@n+<.`.O O O O O O O O O O O O O O O O O P /@(@_@:@!@<@[@V.b.. . . . . . . . . . .       ",
"    . . . . . . . . . . 1 j+/ k ~ X }@|@~+N O O O O O O O O O O O O O O O O O '.t 1@2@3@4@5@[@6@.@+@. . . . . . . . . . .       ",
"    . . . . . . . i 7@8@[ % 9@0@a@b@c@d@O O O O O O O O O O O O O O O O O O t #.e@f@g@h@i@j@=@k@+@. . . . . . . . . . . .       ",
"    . . . . . . . } w+{ { ^.-@l@k+m@n@o@p@P O O O O O O O O O O O O O O z...w q@r@s@t@u@v@w@u++@. . . . . . . . . . . . .       ",
"    . . . . . . g l@{ { D E x@* y@z@A@B@C@#.'.O O O O O O O O O O O O D@z.E@F@G@H@5@I@J@h+K@. . . . . . . . . . . . . . .       ",
"    . . . . . =.L@n.{ m F M@N@O@_+P@Q@R@S@T@A.P O O O O O O O O O ~+[.U@V@W@X@Y@5@Z@=@k@+@. . . . . . . . . . . . . . . .       ",
"    . . . . B `@W { m o  #.#!.+#@#k+> ##$#%#&#*#'.O O O O O O z.8.L+=#-#;#>#t@Z@,#/+#+'#. . . . . . . . . . . . . . . . .       ",
"    . . . . 4.P.{ ^.}@)#D@L+!#~#+#{#]#^#/#(#_#:#<#O O O O O t @.[#}#|#1#2#<@j@J@3#X.. . . . . . . . . . . . . . . . . . .       ",
"    . . . . k+4#e.7 p 5#@.O N N 6#7#8#k+U 9#0#a#b#c#J.P z.d#e#f#g#h#i#t@j#N.k#u++@. . . . . . . . . . . . . . . . . . . .       ",
"    . . . U l#n.x.p m#p@O O O N O n#o#p#q#U 9#r#s#t#u#v#w#x#y#z#A#t@P+B#O.u++@. . . . . . . . . . . . . . . . . . . . . .       ",
"    . . . V C#{ D#E#O N O O O O N O 5+F#G#H#U 9###I#J#K#L#M#A#N#O#[@V.3#P#. . . . . . . . . . . . . . . . . . . . . . . .       ",
"    . . . m.:+{ Q#,.<.O O O O O O N O x 7.R#3 } ]@S#T#U#V#t@O#I@J@W#X#Y#. . . . . . . . . . . . . . . . . . . . . . . . .       ",
"    . . . _ Z#`# $.$N O O O O O O O N N n#+$@$#$$$v.%$&$Z@`+ @>+3.*$. . . . . . . . . . . . . . . . . . . . . . . . . . .       ",
"      . . _+-.=$-$P O O O O O O O O O N N ).;$>$,$'$k@)$k#!$].. . . . . . . . . . . . . . . . . . . . . . . . . . . . . .       ",
"      . . = % ~${$`.O O O O O O O O O O N <.6#]$^$/$($_$. . . . . . . . . . . . . . . . . . . . . . . . . . . . . . . . .       ",
"      . . g k :$<$t O O O O O O O O O O O D@L+[$}$|$1${.. . . . . . . . . . . . . . . . . . . . . . . . . . . . . . . . .       ",
"      . . . 2$*.3$4$+.z.N O O O O O O O /@o+5$6$7$|+0+8$. . . . . . . . . . . . . . . . . . . . . . . . . . . . . . . . .       ",
"      . . 9$; P@0$a$b$c$'.O O O O O O /@d$e$f$g$j@h$i$'#. . . . . . . . . . . . . . . . . . . . . . . . . . . . . . . . .       ",
"      . . . 9$_$j$k$l$m$@.z.O O O z.O E@n$o$p$q$&$/+##. . . . . . . . . . . . . . . . . . . . . . . . . . . . . . . . . .       ",
"      . . . z@r$Q+/#s$t$u$v$w$M d$x$y$z$A$B$C$&$/+##. . . . . . . . . . . . . . . . . . . . . . . . . . . . . . . . . . .       ",
"      . . . . z@D$E$,+F$G$H$I$J$K$g#L$g$M$Z@N.k###. . . . . . . . . . . . . . . . . . . . . . . . . . . . . . . . . . . .       ",
"      . . . . . z@r$##N$1$k.%$O$O#t@t@O#j@J@!$E$. . . . . . . . . . . . . . . . . . . . . . . . . . . . . . . . . . . .         ",
"      . . . . . . z@Q+P$N$)$h$*@Q$R$V+J@)$u++@. . . . . . . . . . . . . . . . . . . . . . . . . . . . . . . . . . . . .         ",
"        . . . . . . . z@Q+#+)$S$S$T$N$a+. . . . . . . . . . . . . . . . . . . . . . . . . . . . . . . . . . . . . . . .         ",
"        . . . . . . . . . . . . . . . . . . . . . . . . . . . . . . . . . . . . . . . . . . . . . . . . . . . . . . .           ",
"        . . . . . . . . . . . . . . . . . . . . . . . . . . . . . . .           . . . . . . . . . . . . . . . . . .             ",
"                . . . . . . . . . . . . . . . . .               .                                                               ",
"                            . . . . . . . . . .                                                                                 ",
"                                                                                                                                ",
"                                                                                                                                "};
