/* XPM */
static const char * MnstrIcon_xpm[] = {
"32 32 256 2",
"  	c None",
". 	c #221E1F",
"+ 	c #22B24B",
"@ 	c #22B34B",
"# 	c #055130",
"$ 	c #22B54C",
"% 	c #22B64C",
"& 	c #1EA649",
"* 	c #22BA4D",
"= 	c #1C7E3D",
"- 	c #215A32",
"; 	c #23B54B",
"> 	c #52484E",
", 	c #222421",
"' 	c #22B94D",
") 	c #223827",
"! 	c #21BD4E",
"~ 	c #229E45",
"{ 	c #206134",
"] 	c #077647",
"^ 	c #0A7E48",
"/ 	c #115639",
"( 	c #22B74D",
"_ 	c #22C350",
": 	c #0A7C48",
"< 	c #1E1B1F",
"[ 	c #22AA49",
"} 	c #0D633E",
"| 	c #22A446",
"1 	c #20733A",
"2 	c #22B84D",
"3 	c #423D3F",
"4 	c #0E934D",
"5 	c #222220",
"6 	c #22A146",
"7 	c #18A94D",
"8 	c #24B74B",
"9 	c #222D23",
"0 	c #0C8549",
"a 	c #22A848",
"b 	c #22442B",
"c 	c #222A23",
"d 	c #22823D",
"e 	c #057C4A",
"f 	c #0E7F45",
"g 	c #22BB4E",
"h 	c #22412A",
"i 	c #144D35",
"j 	c #22AE4A",
"k 	c #229242",
"l 	c #16994A",
"m 	c #199F4A",
"n 	c #22893F",
"o 	c #23161C",
"p 	c #223E28",
"q 	c #0D8447",
"r 	c #22B14B",
"s 	c #223626",
"t 	c #22A548",
"u 	c #226D37",
"v 	c #087947",
"w 	c #20AF4B",
"x 	c #22B44C",
"y 	c #19422F",
"z 	c #222822",
"A 	c #22B04A",
"B 	c #226935",
"C 	c #22512E",
"D 	c #1EB44E",
"E 	c #1FAB4B",
"F 	c #22843E",
"G 	c #228E40",
"H 	c #1CAA4C",
"I 	c #219A45",
"J 	c #1DBB4F",
"K 	c #222E24",
"L 	c #20AC4B",
"M 	c #0F8C4A",
"N 	c #226233",
"O 	c #226433",
"P 	c #1BA34B",
"Q 	c #22B74C",
"R 	c #23B34B",
"S 	c #211D1F",
"T 	c #23B74C",
"U 	c #179245",
"V 	c #227739",
"W 	c #16974A",
"X 	c #108B49",
"Y 	c #22131C",
"Z 	c #223024",
"` 	c #213327",
" .	c #223225",
"..	c #225630",
"+.	c #E2B41B",
"@.	c #229843",
"#.	c #239B43",
"$.	c #224A2C",
"%.	c #224D2E",
"&.	c #1A6D3A",
"*.	c #227F3C",
"=.	c #1DA94B",
"-.	c #108D49",
";.	c #118C48",
">.	c #18A24C",
",.	c #565354",
"'.	c #222722",
").	c #226A35",
"!.	c #05824C",
"~.	c #0F4130",
"{.	c #389B3F",
"].	c #1BA84B",
"^.	c #139149",
"/.	c #146634",
"(.	c #887920",
"_.	c #227037",
":.	c #374F2E",
"<.	c #20B94B",
"[.	c #866B1C",
"}.	c #118D48",
"|.	c #2B6A3C",
"1.	c #1D8641",
"2.	c #51A33B",
"3.	c #245A30",
"4.	c #24B84C",
"5.	c #1B3C2B",
"6.	c #1F3929",
"7.	c #22AD4A",
"8.	c #229744",
"9.	c #5D5721",
"0.	c #483F44",
"a.	c #097C48",
"b.	c #222020",
"c.	c #203826",
"d.	c #1DAB4B",
"e.	c #21843D",
"f.	c #B9921B",
"g.	c #BD911A",
"h.	c #0B6741",
"i.	c #223426",
"j.	c #8E7C20",
"k.	c #22813D",
"l.	c #7E8325",
"m.	c #1C1317",
"n.	c #20B44C",
"o.	c #C50F1F",
"p.	c #68802D",
"q.	c #187130",
"r.	c #6E1A20",
"s.	c #1B7F37",
"t.	c #282425",
"u.	c #586259",
"v.	c #2E2629",
"w.	c #1EAE4A",
"x.	c #277F40",
"y.	c #1E5632",
"z.	c #346C38",
"A.	c #249842",
"B.	c #264D2D",
"C.	c #221C1E",
"D.	c #256E39",
"E.	c #285D36",
"F.	c #145738",
"G.	c #23AE49",
"H.	c #1C9F41",
"I.	c #226735",
"J.	c #228C3F",
"K.	c #223A27",
"L.	c #003611",
"M.	c #4D6535",
"N.	c #5C6124",
"O.	c #21BB4D",
"P.	c #D5AA1B",
"Q.	c #128D48",
"R.	c #6E8975",
"S.	c #B5911C",
"T.	c #424C43",
"U.	c #4B4748",
"V.	c #4F4C4C",
"W.	c #787176",
"X.	c #3C321E",
"Y.	c #225D32",
"Z.	c #245F31",
"`.	c #1C2120",
" +	c #A99921",
".+	c #A0801C",
"++	c #AD8A1C",
"@+	c #193B2C",
"#+	c #3E161E",
"$+	c #193E2E",
"%+	c #1C3C2B",
"&+	c #92761C",
"*+	c #745E1C",
"=+	c #241F1E",
"-+	c #22181D",
";+	c #10683E",
">+	c #097045",
",+	c #22B64D",
"'+	c #768D2B",
")+	c #226B36",
"!+	c #3C3539",
"~+	c #229543",
"{+	c #249742",
"]+	c #A6A1A4",
"^+	c #23C952",
"/+	c #1E9544",
"(+	c #0A7D47",
"_+	c #23B44C",
":+	c #223C27",
"<+	c #1AB14A",
"[+	c #21B34C",
"}+	c #1EB44C",
"|+	c #72626B",
"1+	c #165F39",
"2+	c #0F5E3C",
"3+	c #258E3F",
"4+	c #1A181F",
"5+	c #17933A",
"6+	c #1F1C1F",
"7+	c #22843D",
"8+	c #23B84C",
"9+	c #1D2B23",
"0+	c #545A24",
"a+	c #155135",
"b+	c #630F1D",
"c+	c #1E3126",
"d+	c #1D6838",
"e+	c #223928",
"f+	c #227B3B",
"g+	c #410919",
"h+	c #227D3B",
"i+	c #247D3B",
"j+	c #4C6853",
"k+	c #265131",
"l+	c #16A44D",
"m+	c #256634",
"n+	c #10312A",
"o+	c #22873E",
"p+	c #23A847",
"q+	c #B8941B",
"r+	c #1E5932",
"s+	c #21B04A",
"t+	c #056A44",
"u+	c #0A8B4C",
"v+	c #213726",
"w+	c #817E24",
"x+	c #226936",
"y+	c #C39218",
"z+	c #228B40",
"A+	c #4C8A35",
"B+	c #212320",
"C+	c #E4B81B",
"D+	c #22542F",
"E+	c #22472C",
"F+	c #22B14A",
"G+	c #216D37",
"                                                                ",
"                  . . . . . . . .                               ",
"            . . . . . . . . . . .                               ",
"            . . . . . . . . . . <                               ",
"        . . . . . . . . . 6+4+4+                                ",
"    . . . . . . . . S 4+< X.*+&+                                ",
"      . . . . . .     .++.P.S.++                                ",
"    . . . . . .       [.f.q++.C+0+v+, 5                         ",
"  . . . . . C.        j. +'+A+3+s+@ [ F ..,                     ",
". . . .   5 9 z   Y E+& J D n.x + + + x % ~ D+5                 ",
". . .     9 O 1 y.i.C J.r $ + + + + + + + % $ f+c               ",
"  . .       , d+4 ^.r+ .)+A $ + + + 2 * * ' $ ' F B+            ",
"  . .         =+1+e u+1.e+N j x + + G F n k A * @ B -+          ",
"    .         o - >.a.4 /+p ).j @ r N Y.K.9+/.w.^+a b           ",
"              e+Z.I M (+D @.h+[ @ @ | N 9 #+r.:.= [ u           ",
"              u 3.&.!.M L * g @ @ G.d :+b.b+o.g+`.$. .          ",
"            s @.O { f t+^ m + @ E & #.@.z+z.M.B.v+_.p Y         ",
"            c G n n+w+p.f ].@ + L q H g ' }+<+| {+8+a _.z       ",
"              I.J m+y+l.U Q + + @ }.(+l 8 T _+P -.# 7 _ *.c     ",
"              c+= 2.g.N.U ( + + + j (+v # L.: q m & { $.%.      ",
"              } ~.9.(.{.}+@ + + + + =.^ # # ^ E R ; t z+h       ",
"            h.0 q F.` - e.| j 8.G+C A =.(+# l ; + + + ! B       ",
"            ^ P 4.].X ;+a+$+5.y / 6.F+w X W #.*.d d e.x.k+B+    ",
"          } &.i+G 7.T [+d.H ].-.# @+[ w W A.K       m.0.3       ",
"          $+    -+C 6 ,+@ R 8 ;.] i o+$ p+)                 t.  ",
"                    %.[ ( + ; ;.# 2+x+$ t c.v.> !+  3     ,.V.  ",
"                    o V % @ ; Q.] # b 2 @ ~ |.j+T.W.|+  > ]+U.  ",
"                      v+6 ' _+l v ] %+a @ ( O.H.s.D.E.E+R.u.S   ",
"                        u % $ E v # / B g r + % g ! <.a 5+q.K   ",
"                        , k.2 T q ] >+` ~ _ ! * ' % ( 2 _ ~+ .  ",
"                          c V Q l+e i   e+.._.d k | 6 $ _ -     ",
"                            '.p - /             Z e+) h b ,     "};
