/* XPM */
static const char * Octo_xpm[] = {
"32 32 99 2",
"  	c None",
". 	c #8F3F97",
"+ 	c #221E1F",
"@ 	c #CC97C4",
"# 	c #302C2D",
"$ 	c #592F5B",
"% 	c #908E8F",
"& 	c #292027",
"* 	c #883D90",
"= 	c #595657",
"- 	c #757373",
"; 	c #3E3A3B",
"> 	c #4B2A4C",
", 	c #BAB8B9",
"' 	c #F1F1F1",
") 	c #3D263D",
"! 	c #743779",
"~ 	c #676565",
"{ 	c #838181",
"] 	c #775B72",
"^ 	c #574453",
"/ 	c #362436",
"( 	c #ACAAAB",
"_ 	c #30222E",
": 	c #813B88",
"< 	c #D5D5D5",
"[ 	c #66336A",
"} 	c #9E55A2",
"| 	c #A660A8",
"1 	c #4C4849",
"2 	c #42353E",
"3 	c #6D3572",
"4 	c #5F3163",
"5 	c #C8C7C7",
"6 	c #A2799B",
"7 	c #2D2629",
"8 	c #C18FBA",
"9 	c #442845",
"0 	c #522C54",
"a 	c #977190",
"b 	c #974A9D",
"c 	c #4D3C48",
"d 	c #93459A",
"e 	c #917C4B",
"f 	c #AC80A5",
"g 	c #E3E3E3",
"h 	c #9E9C9D",
"i 	c #C892C1",
"j 	c #B97CB6",
"k 	c #C48CBE",
"l 	c #837046",
"m 	c #7B3981",
"n 	c #551E20",
"o 	c #C8AB61",
"p 	c #9A509F",
"q 	c #EE1C23",
"r 	c #6C5367",
"s 	c #B788AF",
"t 	c #82627C",
"u 	c #A25BA5",
"v 	c #C187BC",
"w 	c #4B4130",
"x 	c #FFFFFF",
"y 	c #B07191",
"z 	c #594D35",
"A 	c #BD81B9",
"B 	c #50394D",
"C 	c #D6B767",
"D 	c #2F1E1F",
"E 	c #624B5D",
"F 	c #756540",
"G 	c #E63B4B",
"H 	c #F1CE72",
"I 	c #D51C23",
"J 	c #838081",
"K 	c #73556F",
"L 	c #9C619C",
"M 	c #7D547B",
"N 	c #904895",
"O 	c #4F304F",
"P 	c #B171B0",
"Q 	c #3E362A",
"R 	c #B576B3",
"S 	c #3C1E20",
"T 	c #7F4781",
"U 	c #FFDA77",
"V 	c #412C40",
"W 	c #8C6A86",
"X 	c #BAB9B9",
"Y 	c #AE6BAE",
"Z 	c #533552",
"` 	c #453143",
" .	c #D5789C",
"..	c #E3C36C",
"+.	c #676465",
"@.	c #493745",
"#.	c #A1709D",
"$.	c #6F1D21",
"%.	c #724372",
"                                      5 = + + + - '             ",
"                                    { + & 0 $ > + 1             ",
"                                  ( + ) * d | | 4 + %           ",
"                                  ; _ * | i @ @ k @.#           ",
"                                < + 4 p @ @ 8 a 6 8 7 5         ",
"                  ( ~ # # ~ (   5 + 3 | @ 8 7 = = ^ 2 %         ",
"              < = + & > > _ + ; , + $ } @ t {     g - -         ",
"            ( + & $ . . . . [ & + + $ } @ a ~                   ",
"          - + / : . . . . . . * ) + [ } @ @ 2 , ' - ; + = (     ",
"        - + > * . . . . . . m $ & _ * } @ @ f # ; + 9 > _ + -   ",
"      % + > . . . . . . . . + + ) m . j @ @ @ c + 3 . . . > + % ",
"    5 + / : ! ! ! : . . . . 4 m . b j @ @ @ @ 2 4 b } } d . ) # ",
"    1 & * : / + + + $ . . . . . u @ @ @ @ 8 E ^ A @ @ @ i d $ + ",
"  , + [ . . * & J +.+ ! . . . : Z 2 + 2 ] W 6 @ @ 8 ^ ; ] L > + ",
"  - & . . . ! + X x 5 _ ! . [ & e o ..w + ] @ @ @ ^ 1 ' 1 ` + ~ ",
"  + ) . . . . _ # = ; + + 3 & C H l + $.y @ @ @ 6 # g   = + # < ",
"  + ) . . . . : 9 0 3 ! ! > e U z n I G @ @ @ @ r {     = # <   ",
"  + + : . . . . . . . . . $ e o S q q  .@ @ @ @ ] h     , '     ",
"  ; + 9 . . . . . . . . . 3 Q o D n n c a @ @ i K # % '         ",
"  , + + [ . . . . . 4 ) . . > w F l e l 7 @ @ @ #.V + # ,       ",
"    - + + [ . . . 3 + ) . . d ] ] ^ c 2 + 6 @ @ @ v T _ + %     ",
"    ' 1 + + 0 * . / _ * . . P @ @ @ @ f s @ @ @ @ @ v N ) + {   ",
"      ' ~ + + & 0 + $ . . b @ @ @ @ f 7 6 f t ] ^ c ] B 4 / + ( ",
"          ( ; + + + ! . . | @ @ @ @ ^ + + = % % % % - ; + + + # ",
"              , { + [ . . Y @ @ @ @ + {                 g h 1 ; ",
"                  + > . . u @ @ @ s + h g , { = 7 ; { '         ",
"                  ~ & * . . j @ @ @ r + + ^ a i %./ + # <       ",
"                  5 + 0 . . . | k @ @ @ k R M O / + + + # <     ",
"                    ~ + $ * . . . p b . * / + # = % % % % (     ",
"                    ' = + & 9 $ $ $ $ 9 + + h                   ",
"                        , ~ # + + + + # - <                     ",
"                                                                "};
