/* XPM */
static const char * Theif_xpm[] = {
"32 32 93 2",
"  	c None",
". 	c #6B5634",
"+ 	c #221E1F",
"@ 	c #AF8977",
"# 	c #EFB949",
"$ 	c #595657",
"% 	c #9E7C66",
"& 	c #342C24",
"* 	c #838181",
"= 	c #AB8673",
"- 	c #302923",
"; 	c #3D3327",
"> 	c #665333",
", 	c #896C34",
"' 	c #C8C7C7",
") 	c #4B3E2B",
"! 	c #50412C",
"~ 	c #A27F6A",
"{ 	c #393026",
"] 	c #473A2A",
"^ 	c #423E3D",
"/ 	c #2B2522",
"( 	c #E3E3E3",
"_ 	c #F1F1F1",
": 	c #ACAAAB",
"< 	c #D5D5D5",
"[ 	c #302C2D",
"} 	c #96765E",
"| 	c #6F5938",
"1 	c #59482F",
"2 	c #5D4C30",
"3 	c #757373",
"4 	c #908E8F",
"5 	c #55452A",
"6 	c #4C4849",
"7 	c #BAB8B9",
"8 	c #7C6345",
"9 	c #9E9C9D",
"0 	c #423728",
"a 	c #745C3C",
"b 	c #F1BF1A",
"c 	c #272220",
"d 	c #3E3A3B",
"e 	c #806649",
"f 	c #42362B",
"g 	c #9A7962",
"h 	c #896C51",
"i 	c #624E2C",
"j 	c #A7836F",
"k 	c #C99C41",
"l 	c #85694D",
"m 	c #3C3124",
"n 	c #624F31",
"o 	c #AF893C",
"p 	c #786041",
"q 	c #676565",
"r 	c #846953",
"s 	c #483B27",
"t 	c #58473A",
"u 	c #8D7056",
"v 	c #6A5540",
"w 	c #2F2822",
"x 	c #3D332A",
"y 	c #7C6248",
"z 	c #493C1E",
"A 	c #6F593B",
"B 	c #BD971B",
"C 	c #6B5637",
"D 	c #D7AB1B",
"E 	c #BC923F",
"F 	c #504C4B",
"G 	c #96791C",
"H 	c #B08D1C",
"I 	c #886C57",
"J 	c #584735",
"K 	c #614E3D",
"L 	c #80654F",
"M 	c #4F4035",
"N 	c #A27F39",
"O 	c #8A6F1D",
"P 	c #957537",
"Q 	c #6E5841",
"R 	c #54452D",
"S 	c #91725F",
"T 	c #8D6F58",
"U 	c #544430",
"V 	c #544433",
"W 	c #91735A",
"X 	c #D5A644",
"Y 	c #91725D",
"Z 	c #63501D",
"` 	c #35302E",
" .	c #46392F",
"                        * [ :                                   ",
"                    _ 6 ) > ; $ <                               ",
"                    6 ! l l . 2 & * _                           ",
"                  3 ) p = = 8 . . ) ^ '                         ",
"                * ; e = @ @ @ j % % L x $ '                     ",
"              7 { p @ @ @ @ @ @ j % % ~ 1 { 6 9 (               ",
"              ^ A = @ @ % 8 | . . . . . . . n ! { 6 : _         ",
"            : 0 h @ @ @ g . . . . . . . . . . . . > ] ` 9       ",
"            * 1 % @ @ @ @ p . . . . . . . . . . . . . > ; *     ",
"            $ . = @ @ @ @ = a . . . . . . . > ! { c + & > /     ",
"            $ . @ @ @ @ @ @ h . . . . . > ] c + + + + + 0 q     ",
"            $ . @ @ @ @ @ ~ | . . . . 2 / + + + + + + + + 7     ",
"            $ . % @ @ @ ~ | . . . . 2 c + + + + + + + d [       ",
"            * 1 W @ @ @ e . . . . > / + + + + + + + + [ *       ",
"            : ) h @ @ @ | . . . . ! + + + + + + + w k + '       ",
"            ( { 8 @ @ = . . . . . ] + + + + + + + k # i 7       ",
"              d C @ @ = . . . . . & + s , , , , o # # P 4       ",
"              * ! ~ @ @ } a . . . & + N # # # # # # # E $       ",
"              ( & . e g } 8 . . . + + X # # # # # # # # d       ",
"                $ 2 . . . . . . . + m # # # # # # o , o m       ",
"          < $ & & - & ) > . . . . + 5 # # # # # # , 9 9 * <     ",
"        < $ ) g @ ~ T V - ] > . . + 5 # # # # # # i '           ",
"    < ^ f t M - x K Y = u U / ) . - 5 # # # # # # m (           ",
"    ^ y j % % = S t - f r ~ y 0 - - 5 # # # # # k [             ",
"    - . . . . . l % } J & f I % Q / w 5 i , , , s 3             ",
"    3 0 ] ] R 1 n . a } } v &  .r A ; + * $ 6 + [ (             ",
"    _ ' ' ' 4 4 q ^ ; 1 a u ~ v & ; n ! F 4 :                   ",
"                    ' 3 - ! C | . ! - ; z B Z 7                 ",
"                        ( 4 ^ ; 2 . . { H b D $                 ",
"                              7 3 / ) ; B b b $                 ",
"                                  _ : $ O b G *                 ",
"                                        q z $ _                 "};
