/* XPM */
static const char * add_xpm[] = {
"64 64 437 2",
"  	c None",
". 	c #221E1F",
"+ 	c #4C494A",
"@ 	c #777576",
"# 	c #6A6968",
"$ 	c #666463",
"% 	c #646362",
"& 	c #575655",
"* 	c #2D2A2A",
"= 	c #636161",
"- 	c #C8DCC6",
"; 	c #C3DFC1",
"> 	c #B5D6B2",
", 	c #B5D6B3",
"' 	c #B0D4AE",
") 	c #7AB775",
"! 	c #1F301C",
"~ 	c #201C1D",
"{ 	c #3F3E3D",
"] 	c #8EC38A",
"^ 	c #9BD897",
"/ 	c #86CD81",
"( 	c #7CCA77",
"_ 	c #3B8736",
": 	c #10170E",
"< 	c #1F1B1C",
"[ 	c #96791C",
"} 	c #56461E",
"| 	c #353433",
"1 	c #6FAF69",
"2 	c #6BC165",
"3 	c #4EB147",
"4 	c #49A843",
"5 	c #245321",
"6 	c #393739",
"7 	c #8F9396",
"8 	c #555355",
"9 	c #D7AB1B",
"0 	c #F1BF1A",
"a 	c #30291F",
"b 	c #363533",
"c 	c #6FAF6A",
"d 	c #4AA843",
"e 	c #255422",
"f 	c #373638",
"g 	c #91989D",
"h 	c #DBE6EC",
"i 	c #E4EDF2",
"j 	c #EFF4F7",
"k 	c #C4C4C5",
"l 	c #706F71",
"m 	c #484A4D",
"n 	c #8F9AA1",
"o 	c #CADAE2",
"p 	c #D3E1E8",
"q 	c #FBFCFD",
"r 	c #F2F6F8",
"s 	c #CAD2D6",
"t 	c #65676B",
"u 	c #53441E",
"v 	c #245221",
"w 	c #44474B",
"x 	c #8E9CA5",
"y 	c #B9CDD7",
"z 	c #C1D3DC",
"A 	c #E1EBF0",
"B 	c #B2C0C8",
"C 	c #5C6065",
"D 	c #846A1D",
"E 	c #434141",
"F 	c #7BB676",
"G 	c #6DC167",
"H 	c #4AA943",
"I 	c #295C25",
"J 	c #2A2829",
"K 	c #748189",
"L 	c #ABC1CD",
"M 	c #B2C6D1",
"N 	c #DCE7ED",
"O 	c #E3EBF0",
"P 	c #BFD1DA",
"Q 	c #96A6B0",
"R 	c #3B3C40",
"S 	c #26211F",
"T 	c #614F1D",
"U 	c #65521D",
"V 	c #605E5E",
"W 	c #9CC898",
"X 	c #71C36B",
"Y 	c #4CAD45",
"Z 	c #3A8335",
"` 	c #1A2818",
" .	c #211D1F",
"..	c #242122",
"+.	c #43464B",
"@.	c #78858E",
"#.	c #FAFCFD",
"$.	c #FFFFFF",
"%.	c #E4ECF0",
"&.	c #B0C6D1",
"*.	c #A7BECA",
"=.	c #51585D",
"-.	c #797677",
";.	c #8D8D8C",
">.	c #7E7E7C",
",.	c #7B7B79",
"'.	c #82817F",
").	c #908F8E",
"!.	c #A9AAA7",
"~.	c #ABD1A8",
"{.	c #4EB247",
"].	c #4CAE45",
"^.	c #31552C",
"/.	c #41403E",
"(.	c #6C6C6A",
"_.	c #7A7A78",
":.	c #747371",
"<.	c #4E4E4B",
"[.	c #211D1E",
"}.	c #7C8991",
"|.	c #EDF2F5",
"1.	c #9EB7C4",
"2.	c #4E555B",
"3.	c #868F84",
"4.	c #CDE8CB",
"5.	c #BCE1B9",
"6.	c #B5DDB2",
"7.	c #B8DFB6",
"8.	c #BFE1BC",
"9.	c #B3DCB0",
"0.	c #8ACB85",
"a.	c #5DB756",
"b.	c #4FB148",
"c.	c #55B44E",
"d.	c #65BA5F",
"e.	c #88C884",
"f.	c #A9D7A6",
"g.	c #B4DDB1",
"h.	c #9DD599",
"i.	c #3C8037",
"j.	c #181615",
"k.	c #60686E",
"l.	c #F5F8FA",
"m.	c #D3E0E6",
"n.	c #95AFBD",
"o.	c #444A4F",
"p.	c #515F4E",
"q.	c #90CE8C",
"r.	c #7FC97A",
"s.	c #74C36F",
"t.	c #71C16B",
"u.	c #68BD62",
"v.	c #5AB754",
"w.	c #51B24A",
"x.	c #50B249",
"y.	c #57B650",
"z.	c #63BB5D",
"A.	c #6FC069",
"B.	c #4FB548",
"C.	c #173315",
"D.	c #151313",
"E.	c #656D74",
"F.	c #D1DEE6",
"G.	c #BBCED8",
"H.	c #EFF3F6",
"I.	c #EBF0F2",
"J.	c #8EA5B2",
"K.	c #2F2F32",
"L.	c #475543",
"M.	c #77C272",
"N.	c #5BB854",
"O.	c #3E8D38",
"P.	c #122610",
"Q.	c #C6D7E0",
"R.	c #C5D5DD",
"S.	c #E2E9ED",
"T.	c #6D828E",
"U.	c #485645",
"V.	c #78C373",
"W.	c #5CB955",
"X.	c #C0D1DA",
"Y.	c #9CB4C0",
"Z.	c #464F55",
"`.	c #2F281F",
" +	c #FAFBFC",
".+	c #B2C5CE",
"++	c #748E9B",
"@+	c #7D641D",
"#+	c #79C374",
"$+	c #CEDBE2",
"%+	c #ABBFCA",
"&+	c #7F9EAD",
"*+	c #3E454A",
"=+	c #8A6F1D",
"-+	c #41513E",
";+	c #66BC60",
">+	c #48A340",
",+	c #41933B",
"'+	c #41953B",
")+	c #459C3E",
"!+	c #49A743",
"~+	c #4CAE46",
"{+	c #4EB047",
"]+	c #4CAC45",
"^+	c #48A341",
"/+	c #439A3D",
"(+	c #41943B",
"_+	c #32732E",
":+	c #122710",
"<+	c #CFDBE2",
"[+	c #F2F5F7",
"}+	c #8DA9B7",
"|+	c #5E737E",
"1+	c #E4B51A",
"2+	c #263522",
"3+	c #142D12",
"4+	c #142C12",
"5+	c #163114",
"6+	c #2F6C2B",
"7+	c #459B3E",
"8+	c #4DAE46",
"9+	c #40903A",
"0+	c #235020",
"a+	c #142E12",
"b+	c #616970",
"c+	c #86A3B2",
"d+	c #7999A9",
"e+	c #272627",
"f+	c #BD971B",
"g+	c #151413",
"h+	c #10130F",
"i+	c #11130F",
"j+	c #131A11",
"k+	c #3A7D34",
"l+	c #4AA944",
"m+	c #2C6328",
"n+	c #0F1B0E",
"o+	c #10120E",
"p+	c #10120F",
"q+	c #181516",
"r+	c #41361E",
"s+	c #211E1F",
"t+	c #1C191A",
"u+	c #438F3C",
"v+	c #58B951",
"w+	c #224D1F",
"x+	c #10160E",
"y+	c #493C1E",
"z+	c #CAA11B",
"A+	c #735D1D",
"B+	c #272524",
"C+	c #62A85C",
"D+	c #66BF60",
"E+	c #1F1C1D",
"F+	c #D1A61A",
"G+	c #6E591D",
"H+	c #886D1D",
"I+	c #E0B21A",
"J+	c #EDBC1A",
"K+	c #ECBB1A",
"L+	c #EFBD1A",
"M+	c #A3831C",
"N+	c #3C321E",
"O+	c #5F4E1E",
"P+	c #70B06B",
"Q+	c #255321",
"R+	c #DAAD1B",
"S+	c #705A1D",
"T+	c #63501D",
"U+	c #352C1F",
"V+	c #896F1C",
"W+	c #B08D1C",
"X+	c #67531D",
"Y+	c #383D42",
"Z+	c #3A3F43",
"`+	c #393E42",
" @	c #7D99A7",
".@	c #8BA7B6",
"+@	c #93AEBC",
"@@	c #9DB6C4",
"#@	c #B3C7D2",
"$@	c #BFD1DB",
"%@	c #CEDDE5",
"&@	c #DEE9EE",
"*@	c #F1F6F8",
"=@	c #D7E4EA",
"-@	c #C3D5DE",
";@	c #B1C6D1",
">@	c #A3BBC8",
",@	c #98B1BF",
"'@	c #78929F",
")@	c #231F20",
"!@	c #333130",
"~@	c #64AB5E",
"{@	c #54B94C",
"]@	c #44993D",
"^@	c #409139",
"/@	c #1F461C",
"(@	c #3B3F44",
"_@	c #84A2B0",
":@	c #34373A",
"<@	c #21201E",
"[@	c #2E6229",
"}@	c #0F170E",
"|@	c #D9AD1B",
"1@	c #7E96A3",
"2@	c #56666F",
"3@	c #1A1818",
"4@	c #0F120E",
"5@	c #10140F",
"6@	c #111110",
"7@	c #2E271F",
"8@	c #A0B2BC",
"9@	c #5D6166",
"0@	c #4E4F51",
"a@	c #525154",
"b@	c #565556",
"c@	c #575556",
"d@	c #505053",
"e@	c #4B4C4F",
"f@	c #4F5357",
"g@	c #636D74",
"h@	c #5D6870",
"i@	c #788E9A",
"j@	c #728C9A",
"k@	c #25201F",
"l@	c #4B3E1E",
"m@	c #483C1E",
"n@	c #B6911B",
"o@	c #282628",
"p@	c #8EA0AA",
"q@	c #2C292B",
"r@	c #36383C",
"s@	c #7D9CAB",
"t@	c #33363A",
"u@	c #95ACB9",
"v@	c #2B292A",
"w@	c #5E7079",
"x@	c #4D5C64",
"y@	c #546068",
"z@	c #576067",
"A@	c #292729",
"B@	c #7794A2",
"C@	c #67818E",
"D@	c #718995",
"E@	c #414448",
"F@	c #4F5D65",
"G@	c #7798A8",
"H@	c #2D2E31",
"I@	c #2E2E31",
"J@	c #83A1B0",
"K@	c #484D52",
"L@	c #6C8896",
"M@	c #47535A",
"N@	c #60757F",
"O@	c #6E7D86",
"P@	c #424C52",
"Q@	c #647F8C",
"R@	c #7C9BAB",
"S@	c #5E7783",
"T@	c #2D2D30",
"U@	c #323438",
"V@	c #7697A7",
"W@	c #6C787F",
"X@	c #373C41",
"Y@	c #455159",
"Z@	c #323539",
"`@	c #3D3E41",
" #	c #313538",
".#	c #303438",
"+#	c #353B40",
"@#	c #435158",
"##	c #485861",
"$#	c #2B2D2F",
"%#	c #97A7B0",
"&#	c #2C2A2B",
"*#	c #688B9A",
"=#	c #6D92A2",
"-#	c #838D94",
";#	c #627986",
">#	c #626669",
",#	c #52636C",
"'#	c #686A6D",
")#	c #48545C",
"!#	c #6E6E70",
"~#	c #383E42",
"{#	c #737172",
"]#	c #272527",
"^#	c #5F7C89",
"/#	c #4C5F69",
"(#	c #282729",
"_#	c #959B9F",
":#	c #2D2B2C",
"<#	c #516771",
"[#	c #566E79",
"}#	c #7694A2",
"|#	c #AFBEC6",
"1#	c #595E63",
"2#	c #2B292B",
"3#	c #5A7581",
"4#	c #394248",
"5#	c #667D88",
"6#	c #9BB2BE",
"7#	c #6C7B84",
"8#	c #313033",
"9#	c #454E54",
"0#	c #667983",
"a#	c #3A3E43",
"b#	c #648492",
"c#	c #77919E",
"d#	c #627A86",
"e#	c #414B52",
"f#	c #3E4A50",
"g#	c #3C4044",
"h#	c #7394A4",
"i#	c #668392",
"j#	c #3A4248",
"k#	c #4B5259",
"l#	c #7092A2",
"m#	c #5B7481",
"n#	c #424549",
"o#	c #9FB5C0",
"p#	c #86939B",
"q#	c #A4AEB4",
"r#	c #525254",
"s#	c #BEC1C2",
"t#	c #3C393B",
"u#	c #888D92",
"v#	c #AEBDC6",
"w#	c #6B777E",
"x#	c #899FAB",
"y#	c #303033",
"z#	c #475056",
"A#	c #5B6D77",
"B#	c #2D2E30",
"C#	c #3B4349",
"D#	c #3F4950",
"                                                                                                                                ",
"                        . . . . . . . .                                                                                         ",
"                      + @ # $ $ $ $ % & * .                                                                                     ",
"                    . = - ; > > > , ' ) ! ~                             . . .                                                   ",
"          .         . { ] ^ / / / / ( _ : <                         . . . . . . .                                               ",
"        . [ } .     . | 1 2 3 3 3 3 4 5 : <                     . . . . 6 7 8 . . . . .                                         ",
"        . 9 0 [ a   . b c 2 3 3 3 3 d e : <                 . . . . f g h i j k l . . . . .                                     ",
"        . 0 0 0 9 } . b c 2 3 3 3 3 d e : <             . . . . m n o p h i j q r s t . . . .                                   ",
"        } 0 0 0 0 0 u | 1 2 3 3 3 3 4 v : <           . . . w x y z o p h i j q r A p B C . . . .                               ",
"        } 0 0 0 0 0 D E F G 3 3 3 3 H I : <       . . . J K L M y z o p h i j q r A N O P Q R . . .                             ",
"    . . S T U U U U U V W X 3 3 3 3 Y Z `  .. . . . . ..+.@.L M y z o p h i j q r A #.$.%.&.*.=.. . .                           ",
"  . -.;.>.,.,.,.,.'.).!.~.G 3 3 3 3 {.].^./.(._.,.,.,.:.<.[.}.M y z o p h i j q r A $.$.|.&.*.1.2.. . .                         ",
"  . 3.4.5.6.6.6.6.7.8.9.0.a.3 3 3 3 b.c.d.e.f.g.6.6.6.h.i.j.k.M y z o p h i j q r A l.$.m.&.*.1.n.o.. . .                       ",
"  . p.q.r.s.s.s.s.s.t.u.v.w.3 3 3 3 3 x.y.z.A.s.s.s.s.B.C.D.E.M y z o p h i j q r A p F.G.&.H.$.I.J.K.. .           .           ",
"  . L.M.N.3 3 3 3 3 3 3 3 3 3 3 3 3 3 3 3 3 3 3 3 3 3 O.P.D.E.M y z o p h i j q r A p Q.G.R.$.$.$.S.T.. . .         .           ",
"  . U.V.W.3 3 3 3 3 3 3 3 3 3 3 3 3 3 3 3 3 3 3 3 3 3 O.P.D.E.M y z o p h i j q r A p Q.G.X.$.$.$.$.Y.Z.. . .     . `.          ",
"  . U.V.W.3 3 3 3 3 3 3 3 3 3 3 3 3 3 3 3 3 3 3 3 3 3 O.P.D.E.M y z o p h i j q r A p Q.G.&. +$.$.$..+++. . .     `.@+          ",
"  . U.#+W.3 3 3 3 3 3 3 3 3 3 3 3 3 3 3 3 3 3 3 3 3 3 O.P.D.E.M y z o p h i j q r A p Q.G.&.$+$.$.$.%+&+*+. . . . =+=+.         ",
"  . -+;+>+,+,+,+,+'+)+!+~+{+3 3 3 3 {+]+^+/+'+,+,+,+(+_+:+D.E.M y z o p h i j q r A p Q.G.&.*.<+[+S.}+&+|+. . . `.1+[ .         ",
"  . 2+e 3+4+4+4+4+4+5+6+7+8+3 3 3 3 ~+9+0+4+4+4+4+4+4+a+P.D.b+M y z o p h i j q r A p Q.G.&.*.1.n.}+c+&+d+e+. . =+0 f+.         ",
"  . g+h+h+h+h+h+h+h+i+j+k+{.3 3 3 3 l+m+n+o+h+h+h+h+h+h+p+q+r+} } } } } } } } } `.. . . . . . . . . . . . . . `.1+0 f+.         ",
"    . [.s+s+s+s+s+s+. t+u+v+3 3 3 3 4 w+x+< . s+s+s+s+s+[.. y+z+0 0 0 0 0 0 0 0 0 0 0 0 0 0 0 0 0 0 0 0 0 0 0 0 0 0 f+.         ",
"                  . A+B+C+D+3 3 3 3 4 0+: E+F+G+. H+I+J+K+L+M+N+[ 0 0 0 0 0 0 0 0 0 0 0 0 0 0 0 0 0 0 0 0 0 0 0 0 0 0 .         ",
"                  . O+b P+2 3 3 3 3 d Q+: < R+0 9 S+`.[ 0 0 0 9 y+T+1+0 0 0 0 0 0 0 0 0 0 0 0 0 0 0 0 0 0 0 0 0 0 0 0 .         ",
"                    U+b P+2 3 3 3 3 d e : < V+1+0 0 9 T+W+0 0 0 0 =+N+f+0 0 0 0 0 0 0 0 0 0 0 0 0 0 0 0 0 0 0 0 0 0 0 .         ",
"                    . b c 2 3 3 3 3 d e : < X+N+S+9 0 0 0 0 0 0 0 0 f+`.. Y+Z+. . . . . . . . . . . . . . . . . . @+0 }         ",
"                    . b P+2 3 3 3 3 d e : < R+1+=+N+} W+0 0 0 0 0 0 0 1+T+`+ @.@+@@@*.#@$@%@&@*@*@=@-@;@>@,@}+'@)@. } y+        ",
"                    . !@~@{@]@]@]@]@^@/@: < R+0 0 0 M+T+9 0 0 0 0 0 0 0 0 @+(@.@+@@@*.#@$@%@&@*@*@=@-@;@>@,@}+_@:@)@. .         ",
"                    . <@[@3+4+4+4+4+4+3+}@< |@0 0 0 0 0 0 0 0 0 0 0 0 0 0 0 N+1@+@@@*.#@$@%@&@*@*@=@-@;@>@,@}+_@2@)@)@          ",
"                      3@4@5@5@5@5@5@5@h+6@~ 7@S+W+0 0 0 0 0 0 0 0 0 0 0 0 0 } 1@+@@@*.8@9@0@a@b@c@d@e@f@g@h@i@_@j@)@)@          ",
"                        . k@l@l@l@l@l@m@T n@1+M+y+N+@+1+0 0 0 0 0 0 0 0 0 0 o@.@+@@@p@q@)@)@)@)@)@)@)@)@)@)@r@_@s@t@)@)@        ",
"                          . f+0 0 0 0 0 0 0 0 0 0 9 [ 9 0 0 0 0 0 0 0 0 0 f+(@.@+@u@v@)@)@)@)@)@)@)@)@)@)@)@)@w@s@x@)@)@        ",
"                            . T+W+0 0 0 0 0 0 0 0 0 0 0 0 0 0 0 0 0 0 0 0 [ y@.@+@z@)@)@. . . . . . . . . )@)@A@B@C@)@)@        ",
"                                . N+} =+=+f+f+1+0 0 0 0 0 0 0 0 0 0 0 0 0 y+D@.@+@E@)@)@. . . . . . . . . . )@)@F@G@H@)@)@      ",
"                                  a f+W+=+@+} } . N+} =+0 0 0 0 0 0 0 0 f+I@J@.@+@K@)@)@. . . . . . . . . . )@)@A@L@M@)@)@      ",
"                                  S+0 0 0 0 0 0 0 0 z+z+0 0 0 0 0 0 0 1+y+N@J@.@+@O@)@)@. . . . . . . . . . . )@)@P@Q@)@)@      ",
"                                . 9 0 0 0 0 0 0 0 0 0 0 0 0 0 0 0 0 9 } P@R@J@.@+@u@v@)@)@. . . . . . . . . . )@)@)@S@T@)@)@    ",
"                                } 0 1+f+f+f+f+f+M+=+=+=+=+S+} } } . . U@V@R@J@.@+@@@W@)@)@. . . . . . . . . . . )@)@X@Y@)@)@    ",
"                              . . . . . . . . . . . . . . . . . . . . Z@V@R@J@.@+@@@*.`@)@)@. . . . . . . . . . . )@)@ #)@)@    ",
"                                . . . . .#+#+#+#+#+#+#@###########$#. )@V@R@J@.@+@@@*.%#&#)@)@. . . . . . . . . . )@)@)@)@)@)@  ",
"                              . . .#*#=#=#=#=#=#=#=#=#=#=#=#=#=#=#+#. )@L@R@J@.@+@@@*.#@-#)@)@)@. . . . . . . . . . )@)@)@      ",
"                            . . .#*#=#=#=#=#=#=#=#=#=#=#=#=#=#=#=#+#. )@;#R@J@.@+@@@*.#@$@>#)@)@)@. . . . . . . . . . .         ",
"                          . . .#*#=#=#=#=#=#=#=#=#=#=#=#=#=#=#=#=###. )@,#R@J@.@+@@@*.#@$@%@'#)@)@)@. . . . . . . . . .         ",
"                        . . .#*#=#=#=#=#=#=#=#=#=#=#=#=#=#=#=#=#=###. )@)#R@J@.@+@@@*.#@$@%@&@!#)@)@)@. . . . . . . . . .       ",
"                      . . $#*#=#=#=#=#=#=#=#=#=#=#=#=#=#=#=#=#=#=###. )@~#R@J@.@+@@@*.#@$@%@&@*@{#)@)@)@)@. . . . . . . .       ",
"                    . . ]#^#=#=#=#=#=#=#=#=#=#=#=#=#=#=#=#=#=#=#=#/#. )@(#R@J@.@+@@@*.#@$@%@&@*@*@_#:#)@)@)@)@. . .             ",
"                  . . . <#=#=#=#=#=#=#=#=#=#=#=#=#=#=#=#=#=#=#=#=#[#. . )@}#J@.@+@@@*.#@$@%@&@*@*@=@|#1#2#)@)@)@)@              ",
"                  . . @#=#=#=#=#=#=#=#=#=#=#=#=#=#=#=#=#=#=#=#3#4#. . )@)@5#J@.@+@@@*.#@$@%@&@*@*@=@-@;@6#7#8#)@)@)@)@          ",
"                  . . ^#=#=#=#=#=#=#=#=#=#=#=#=#=#=#=#=#*#<#$#. . . . )@)@9#J@.@+@@@*.#@$@%@&@*@*@=@-@;@>@,@}+0#a#)@)@)@)@)@    ",
"                  . . . +###3#=#=#=#=#=#=#=#=#=#=#=#b#@#]#. . . .       )@A@c#.@+@@@*.#@$@%@&@*@*@=@-@;@>@,@}+_@s@d#e#)@)@)@)@  ",
"                  . . . . . . . .#f###3#b#=#=#=#[#+#. . . . .           )@)@g#.@+@@@*.#@$@%@&@*@*@=@-@;@>@,@}+_@s@G@h#i#j#)@)@  ",
"                        . . . . . . . . . . $#$#. . . . .                 )@)@k#+@@@*.#@$@%@&@*@*@=@-@;@>@,@}+_@s@G@h#l#m#)@)@  ",
"                                . . . . . . . . . .                       )@)@)@2.@@*.#@$@%@&@*@*@=@-@;@>@,@}+_@s@G@h#l#m#)@)@  ",
"                                            . .                             )@)@)@n#o##@$@%@&@*@*@=@-@;@>@,@}+_@s@G@h#l#m#)@)@  ",
"                                                                              )@)@)@q@p#$@%@&@*@*@=@-@;@>@,@}+_@s@G@h#l#m#)@)@  ",
"                                                                                )@)@)@)@e@q#&@*@*@=@-@;@>@,@}+_@s@G@h#l#m#)@)@  ",
"                                                                                    )@)@)@)@r#s#*@=@-@;@>@,@}+_@s@G@h#l#m#)@)@  ",
"                                                                                        )@)@)@)@t#u#v#;@>@,@}+_@s@G@h#l#m#)@)@  ",
"                                                                                            )@)@)@)@)@`@w#x#}+_@s@G@h#l#m#)@)@  ",
"                                                                                                )@)@)@)@)@)@y#z#A#L@h#l#m#)@)@  ",
"                                                                                                      )@)@)@)@)@)@)@B#C#D#)@)@  ",
"                                                                                                            )@)@)@)@)@)@)@)@)@  ",
"                                                                                                                    )@)@)@)@)@  ",
"                                                                                                                                "};
