/* XPM */
static const char * d20_listen_xpm[] = {
"64 64 190 2",
"  	c None",
". 	c #1F300F",
"+ 	c #3A571A",
"@ 	c #40611E",
"# 	c #41621F",
"$ 	c #507825",
"% 	c #5C8A2A",
"& 	c #5A882A",
"* 	c #598629",
"= 	c #334C17",
"- 	c #7DBB39",
"; 	c #AFD982",
"> 	c #B6DC8C",
", 	c #9BCF63",
"' 	c #7BBA39",
") 	c #699E30",
"! 	c #6BA131",
"~ 	c #6EA532",
"{ 	c #70A833",
"] 	c #72AC34",
"^ 	c #74AF35",
"/ 	c #75B036",
"( 	c #77B336",
"_ 	c #77B537",
": 	c #7DBD3A",
"< 	c #85C541",
"[ 	c #8EC94F",
"} 	c #243611",
"| 	c #5E8E2B",
"1 	c #8CC84B",
"2 	c #96CD5A",
"3 	c #B6DC8D",
"4 	c #B8DD91",
"5 	c #98CE5E",
"6 	c #7AB938",
"7 	c #689C30",
"8 	c #6DA431",
"9 	c #6FA733",
"0 	c #71AA34",
"a 	c #79B637",
"b 	c #84C53F",
"c 	c #A7D575",
"d 	c #65992E",
"e 	c #3F5F1D",
"f 	c #91CB53",
"g 	c #253711",
"h 	c #AAD77B",
"i 	c #8CC94D",
"j 	c #97CE5D",
"k 	c #B8DD8F",
"l 	c #6AA031",
"m 	c #6CA332",
"n 	c #75B236",
"o 	c #89C847",
"p 	c #9ED169",
"q 	c #496D22",
"r 	c #80C13A",
"s 	c #B1DA85",
"t 	c #A5D472",
"u 	c #99CF60",
"v 	c #73AE35",
"w 	c #92CB55",
"x 	c #95CC59",
"y 	c #7EBE3A",
"z 	c #4B7122",
"A 	c #4B7022",
"B 	c #9ACF61",
"C 	c #679B2F",
"D 	c #9CD064",
"E 	c #8FCA50",
"F 	c #2A3E13",
"G 	c #8AC84A",
"H 	c #BDE097",
"I 	c #94CC58",
"J 	c #81C33B",
"K 	c #324B17",
"L 	c #88C746",
"M 	c #C3E3A2",
"N 	c #A0D26B",
"O 	c #BDDF98",
"P 	c #93CB56",
"Q 	c #2F4616",
"R 	c #496E22",
"S 	c #A0D26C",
"T 	c #BEE09A",
"U 	c #2D4415",
"V 	c #90CB52",
"W 	c #A3D46F",
"X 	c #65982E",
"Y 	c #A3D370",
"Z 	c #63962E",
"` 	c #A5D473",
" .	c #82C43C",
"..	c #BFE09B",
"+.	c #476B21",
"@.	c #314916",
"#.	c #63952E",
"$.	c #A7D577",
"%.	c #ACD77E",
"&.	c #86C643",
"*.	c #5E8D2B",
"=.	c #ACD77D",
"-.	c #88C644",
";.	c #60922C",
">.	c #5C8B2A",
",.	c #42631E",
"'.	c #557F27",
").	c #578228",
"!.	c #527C25",
"~.	c #4D7524",
"{.	c #223410",
"].	c #3D5C1C",
"^.	c #365119",
"/.	c #9CD065",
"(.	c #BBDF95",
"_.	c #8AC748",
":.	c #598729",
"<.	c #3B5A1C",
"[.	c #263912",
"}.	c #C0E19E",
"|.	c #9ED167",
"1.	c #4C7423",
"2.	c #466920",
"3.	c #223210",
"4.	c #60912C",
"5.	c #558027",
"6.	c #7FC03A",
"7.	c #61932D",
"8.	c #3B581B",
"9.	c #547E26",
"0.	c #BADE93",
"a.	c #AAD77A",
"b.	c #83C43D",
"c.	c #AED880",
"d.	c #2B4114",
"e.	c #A8D678",
"f.	c #B3DB88",
"g.	c #AFD981",
"h.	c #507925",
"i.	c #A1D36D",
"j.	c #B2DA89",
"k.	c #273A11",
"l.	c #FFFFFF",
"m.	c #D9ECC3",
"n.	c #578428",
"o.	c #BADE94",
"p.	c #DFF0CF",
"q.	c #EBF5DF",
"r.	c #C4E3A3",
"s.	c #43651F",
"t.	c #466A20",
"u.	c #FCFDF9",
"v.	c #E1F1D2",
"w.	c #B3DB8A",
"x.	c #EFF7E8",
"y.	c #F9FCF7",
"z.	c #F0F8E7",
"A.	c #FEFEFE",
"B.	c #D7ECC2",
"C.	c #F5FAF0",
"D.	c #D4EBBC",
"E.	c #E9F4DC",
"F.	c #527B26",
"G.	c #B1DA86",
"H.	c #E4F2D5",
"I.	c #EBF5E1",
"J.	c #D2E9B9",
"K.	c #E2F1D1",
"L.	c #FAFCF6",
"M.	c #38561A",
"N.	c #344D18",
"O.	c #EEF7E5",
"P.	c #C4E3A5",
"Q.	c #F7FBF2",
"R.	c #C7E4A7",
"S.	c #E8F4DD",
"T.	c #D1E9B7",
"U.	c #F5FAEF",
"V.	c #CAE6AD",
"W.	c #DDEFCB",
"X.	c #E7F4D9",
"Y.	c #44661F",
"Z.	c #2C4214",
"`.	c #FEFEFD",
" +	c #C6E3A6",
".+	c #C7E5A9",
"++	c #D5EBBD",
"@+	c #4D7323",
"#+	c #3E5E1D",
"$+	c #283B12",
"                                                                                                                                ",
"                                                                                                                                ",
"                                                                                                                                ",
"                                                                                                                                ",
"                                                                                                                                ",
"                                    . . . . . . . . . . . + @ # # # # # # # # # # # # $ % % & . *                               ",
"                                  = - ; > , - ' ) ! ~ { ] ^ / ( _ ' - - : : : : : : : : : : < [ }                               ",
"                                * | ; 1 2 3 4 5 ' 6 7 ! 8 9 0 ^ / ( a 6 ' : : : : : : : : : b c d e                             ",
"                              f g h h 1 1 i j k 4 2 ' a 7 l m ~ 0 ] ^ n _ a ' - : : : : : : o p ' q                             ",
"                              . r s t 1 n n 1 i u 4 4 2 ' _ 7 l m ~ { v ^ / ( a ' ' : : : < w x y ~ e                           ",
"                            z A [ 4 u n n n n n 1 i B 4 4 x ' _ C ) ! ~ { ] v / ( a ' ' : < D E y 0 q p                         ",
"                          b F ' G 4 5 n n n n n n n 1 i , H 4 I ' ( C ) ! 8 9 0 v ^ n _ 6 b c J 0 0 9 K                         ",
"                          . m ' L M E n n n n n n n n n 1 i N O 4 P ' n d 7 l 8 ~ 0 ] / n 1 p y 0 0 0 A f                       ",
"                        Q R : ( < M 1 n n n n n n n n n n n 1 i S T 4 w 6 ( d 7 l m 9 { J f x y 0 0 0 9 K                       ",
"                      7 U ' ' v V O 1 n n n n n n n n n n n n n 1 i W T 4 f a n X C l m y p E y 0 0 0 0 A b                     ",
"                      . ~ : ( ~ x 4 1 n n n n n n n n n n n n n n n 1 i Y T 4 V a / Z d 6 `  .0 0 0 0 { ! g                     ",
"                    Q $ : ' ] 7 D 4 1 n n n n n n n n n n n n n n n n n 1 [ t ..k E n {  .B : 0 0 0 9 m 7 +.n                   ",
"                  * @.6 : ( ~ #.$.%.1 n n n n n n n n n n n n n n n n n n n 1 [ ` T W _ &.i : 0 { 8 ! C #.*.}                   ",
"                f . 9 : ' v ) / h =.1 n n n n n n n n n n n n n n n n n n n n n 1 [ I P u -.- 9 8 ) d ;.>.* ,.*                 ",
"                . '.: : ( 8 #.0 3 W 1 n n n n n n n n n n n n n n n n n n n n n 1 i P x 5 D &._ 7 Z | & ).!.~.{.                ",
"              ].^.6 : ' v 7 *.~ 4 /.n n n n n n n n n n n n n n n n n n n n 1 [ c (., ' u b B _.^ 0 :.'.$ z +.<.*               ",
"            b [.0 : : ( ~ #.:.9 }.P n n n n n n n n n n n n n n n n n n 1 i S ..> /.- n |.' y 2 E ] ! 1.R 2.,.# 3.              ",
"            . 4.: : 6 v ) *.5.] M G n n n n n n n n n n n n n n n n 1 [ S H (.W &. .0 _ Y  .6.6.I W 6 7.2.@ ].8.+ ].            ",
"          Q ].' : : ( ~ #.:.9.( M G n n n n n n n n n n n n n n 1 i u 0.O a.-.-.0 0 0 b.a.< 0 b.b.B c.-.:.].+ + ].3.            ",
"        7 d.( : : ' ] 7 *.).9.-.4 1 n n n n n n n n n n n n 1 [ 5 > }.a.-.-.0 0 0 0 0 [ e.< 0 0 0 b 5 =.w 5.+ + + <.].          ",
"      p . 7 : : : ( ~ Z & 9.9.i 4 1 n n n n n n n n n n 1 [ w f.}.g.V -.0 0 0 0 0 0 0 V g.< 0 0 0 0 b V Y f :.h.+ ].3.p         ",
"      Q A : : : ' v ) | 5.9.9.i.s 1 n n n n n n n n n [ w g.M g.V -.-.0 0 0 0 0 0 0 0 w f.&.0 0 0 0 0 b.< 2 V ;.h.+ # Q         ",
"    z @.' : : : ( ~ #.& 9.9.l t g.1 n n n n n n n i V =.M j.j -.-.0 0 0 0 0 0 0 0 0 0 P j.&.0 0 0 0 0 9 - _ i i ! $ ].k.f       ",
"  f . 9 : : : 6 ] ) *.5.9.9.l c.a.1 n n n n n i V a.}.j.j -.6.*.^ L -.0 0 0 0 0 0 0 _ j s -.0 0 0 0 0 m X 0 7 8  .] $ # Q       ",
"  . * : : : : ( 8 Z :.9.9.9.! j.W n n n n i E ` ..4 W -.-.0 6 l.l.l.m.< 0 0 0 0 0 0 _ u a.-.0 0 0 0 ~ ) ;.n.~.n.#.' m !.k.b     ",
"].C Y w [ E i v 7 *.).9.9.9.l o.D n n i E i.H 4 W -.-.0 0 6 p.q.P r.l.e.0 0 0 0 0 0 _ 5 a.0 0 0 0 0 m X >.9.A s.h.7 a d *.}     ",
"* C j.3 S V i  .a 9 9.9.9.9.m }.o i E B (.O a.-.-.0 0 0 0 0 a J - 5 l.=.0 { 9 0 0 0 _ 5 e.0 0 0 0 9 ) ;.n.$ t.@ 8.1.d 6 v @ n   ",
"  g b.< r 6 L 2 I G -.] ! ) ~ T o 5 j.O a.-.-.0 0 0 0 0 0 0 0 { ] u.v.-.~ 4.^ J ( 0 _ 5 e.0 0 0 0 m Z >.9.A ,.<.+ 8.$ | - _ .   ",
"  * A : -.< J - 6.' 1 D 2 [ j w.%.%.D i -.0 0 0 0 0 0 0 { 8 ;.9 l.x.D &.o y.z.A.B.0 _ , $.0 0 0 9 ) ;.n.$ +.@ + + 8.+ h.>.6.A * ",
"    . ] : : : a y ^ m 8 6 - p w.i.y a y 0 0 0 0 0 0 9 l ) ' m.C.D.b n ] l.T L E.l.0 _ W B 0 0 0 m X >.!.A ,.].+ + + + 8.+ F.| Q ",
"    7 8.: : : 6 ] 7 | ).9.d < f.G./.r a : 0 0 0 0 #.9.n H.I.J.p 0 ] 6.l.K.a b h L.0 _ W u 0 0 9 ) ;.* ~.t.e + + + + + $ 4.' .   ",
"      . 8 : : ' ^ ! ;.n.9.9.L s G W e.< a a 0 0 0 /.}.l.v.L 0 0 0 ^ S L.2 n ^ l.T 0 _ W u 0 0 m X >.9.A ,.<.+ + + 8.$ m ( M.b   ",
"      n N.: : - / m #.:.9.9.o s &.-.E c |.b ' 6.0 h J.l.O.N 6 0 9 ) u.P.0 y A.I.y 0 _ W j { ~ 7 ;.* ~.t.e + + + 8.+ ] v :.1.    ",
"        . ! : : ( 9 X & '.9.L G.&.0 -.&.|.W o : y 0 a ; Q.l.R.v ( l.S.- &., l.W 0 0 _ W 2 0 m X % 9.z s.].8.+ 8.<.x 8 & g       ",
"        n = : : a { C >.5.9.L ; &.0 0 0 &.o , x < y b 0 E T./.J g.U./._ 6.l.V.^ 0 0 _ %.&.9 7 ;.n.$ t.e 8.+ 1.$ ^ I 5.. p       ",
"          . ! : 6 ] 7 | ).9.< =.< 0 0 0 0 -.b E /.i b.6.0 ' 0 6 ` W.: _ C.X.-.0 0 0 _ a.&.m X >.9.A ,.].+ 1.9.^ 7 Y.Z.*         ",
"          n K - ' ^ l ;.n.9.b Y b 0 0 0 0 0 0 &. .G j b a : 0 a 3 `. +.+l.c 0 0 0 0 ( $.b ) ;.n.$ t.e + 1.* - d ~.# Q           ",
"            Q X - n 8 7.:.9.b , b.0 0 0 0 0 0 0 &. .i Y x  .' J b.++A.`.4 v 0 0 0 0 _ e. .X >.!.A ,.].1.Z b C ~.+..             ",
"            f Z.: ( 9 X % '. .5  .0 0 0 0 0 0 0 0 0 -.-.|.t b.'  .0 0 0 0 0 0 0 0 0 r g.r ;.n.~.t.@ @+) < X $ s.[.n             ",
"              Q Z a { d >.'./ i.6.~ 8 8 8 8 8 8 8 ~ ~ 8 b.1 , P -.: y 0 0 0 0 0 0 0 , $.: >.9.A ,.$ 9 y | h.#+^.].              ",
"              f Z.a ] 7 *.).v i.- ) ) ) ) ) ) ) ) ) ) 7 ) 6.: _.V ' ( ( 0 0 0 0 0 0 , i._ n.$ +.9.~ ' *.!.e Y..                 ",
"                Q 7.^ l ;.* ] i._ #.Z #.#.#.#.#.#.#.#.#.Z #.#.n - [ 5 -.n ( 0 0 0 0 5 , ] 9.:.* ~ _ 4.'.@ s.. f                 ",
"                f F / m 7.:.] S ^ >.>.% % >.% >.>.>.>.% >.>.>.>.v v i I  .' _ 0 0 0 i ' l *.>.^ 0 ;.n.,.].K z                   ",
"                  ].% 9 Z % ] S { 5.5.).5.5.5.5.5.5.5.5.5.5.5.5.5.5.! 9 a o 6.' a 0 0 0 4.#.J a 4.% 2.].@ Q                     ",
"                    g 9 C >.] p ! ~.~.$ ~.~.~.$ $ $ ~.$ $ $ $ $ $ ~.$ #.7.v -.[ &._ | d 7.b.J C >.+.e s..                       ",
"                    ].5.) | ] /.d q q q q q q q q q q q q q q q q q q q q & | 6.D J ;.:.' 6 { Z R @ ].$+7                       ",
"                      } l ;.0 D ;.,.s.s.,.s.,.,.,.,.,.s.,.s.,.s.,.,.,.,.s.,.,.n./ _.&.b 9 9 ) @+,.<.+ Q                         ",
"                      ].!.7.0 5 >.#+#+#+#+#+#+].].#+].#+#+#+#+#+#+].#+!.:.X ' &.V P J  .{ :.~.2.].,..                           ",
"                        {.Z 0 j :.+ 8.+ + + + + 8.+ 8.+ + + 8.$ * d r b w D E < : / ] G ^ F.+.e #+$+b                           ",
"                        ].~.] j :.+ + + 8.+ 8.+ + + + h.:.7  .V 5 N x o  ./ ^ ] ;.;.m v v % # 8.= z                             ",
"                          3.~ 5 :.+ + + + + + h.>.l < 2 D Y p 1 &.] l ! 5.).5.5.5.5.X d { >.<.@ .                               ",
"                          * !.2 & + 8.h.| l J j N a.e.I -.0 ;.4.A A A A A A A z A A A >.' d e 3.p                               ",
"                            g [ Z 5.9 &.E N t B V v *.n.).# # # # # # # # # # # # # # 9.0 n Q *                                 ",
"                            * * I I I E b 9 n.h.h.+ + 8.8.+ + + + + + 8.+ + 8.+ + + + + | 8 Q                                   ",
"                              . . . . . . . . . . . . . . . . . . . . . . . . . . . . . . .                                     ",
"                                                                                                                                ",
"                                                                                                                                ",
"                                                                                                                                ",
"                                                                                                                                "};
