/* XPM */
static const char * delay_xpm[] = {
"64 64 614 2",
"  	c None",
". 	c #231F20",
"+ 	c #6E90A1",
"@ 	c #6F91A1",
"# 	c #7193A3",
"$ 	c #7395A5",
"% 	c #7697A7",
"& 	c #7899A9",
"* 	c #7C9BAA",
"= 	c #7F9EAD",
"- 	c #82A0AF",
"; 	c #86A4B3",
"> 	c #8BA7B5",
", 	c #8FAAB8",
"' 	c #93AEBC",
") 	c #98B2C0",
"! 	c #9DB6C3",
"~ 	c #A2BAC7",
"{ 	c #A7BECB",
"] 	c #ADC3CE",
"^ 	c #B3C7D2",
"/ 	c #B9CDD7",
"( 	c #C0D2DC",
"_ 	c #C7D8E1",
": 	c #CFDEE5",
"< 	c #D7E3EA",
"[ 	c #DFE9EF",
"} 	c #E9F0F4",
"| 	c #F3F7F9",
"1 	c #FBFDFE",
"2 	c #EEF4F6",
"3 	c #E0EBF0",
"4 	c #D5E2E9",
"5 	c #CADAE2",
"6 	c #B7CBD5",
"7 	c #AFC5D0",
"8 	c #A8BFCB",
"9 	c #A1B9C6",
"0 	c #9BB4C2",
"a 	c #96B0BE",
"b 	c #90ABB9",
"c 	c #8BA8B5",
"d 	c #7B9BAA",
"e 	c #7495A5",
"f 	c #7294A4",
"g 	c #7092A3",
"h 	c #6E90A0",
"i 	c #658492",
"j 	c #465E66",
"k 	c #648492",
"l 	c #516C76",
"m 	c #E1EAEF",
"n 	c #FBFCFD",
"o 	c #F6F6F6",
"p 	c #EDECEC",
"q 	c #FFFFFF",
"r 	c #F7FAFB",
"s 	c #506B75",
"t 	c #D8E4EA",
"u 	c #FBFBFB",
"v 	c #D4D3D4",
"w 	c #B7B6B6",
"x 	c #999797",
"y 	c #777475",
"z 	c #B4B3B3",
"A 	c #E4E7E9",
"B 	c #F3F7F8",
"C 	c #CDCCCC",
"D 	c #B0AFAF",
"E 	c #8D8B8C",
"F 	c #706D6E",
"G 	c #545152",
"H 	c #221E1F",
"I 	c #9D9C9C",
"J 	c #C9D1D6",
"K 	c #C2D3DC",
"L 	c #E0E9EE",
"M 	c #E6EEF2",
"N 	c #F3F3F3",
"O 	c #AAA9A9",
"P 	c #787576",
"Q 	c #A78E46",
"R 	c #DEB437",
"S 	c #51452B",
"T 	c #1F1C1D",
"U 	c #3A3838",
"V 	c #C5C8CA",
"W 	c #D0DCE3",
"X 	c #E6E6E6",
"Y 	c #E0DFDF",
"Z 	c #CCCACB",
"` 	c #7F7C7D",
" .	c #5F5748",
"..	c #F6C735",
"+.	c #F6C530",
"@.	c #B5922C",
"#.	c #211D1E",
"$.	c #1F1B1C",
"%.	c #E9E9E9",
"&.	c #D7E3E9",
"*.	c #CCDAE3",
"=.	c #C2D2DA",
"-.	c #C3C2C2",
";.	c #969495",
">.	c #716E6F",
",.	c #4A4747",
"'.	c #615330",
").	c #F6C52F",
"!.	c #242021",
"~.	c #2A2627",
"{.	c #DAD9D9",
"].	c #D3D2D2",
"^.	c #F6F8FA",
"/.	c #BED0D9",
"(.	c #E5ECF0",
"_.	c #C3C2C3",
":.	c #A19F9F",
"<.	c #7F7B76",
"[.	c #81724C",
"}.	c #413B33",
"|.	c #584925",
"1.	c #252223",
"2.	c #302C2D",
"3.	c #474445",
"4.	c #5D5A5B",
"5.	c #5C595A",
"6.	c #676565",
"7.	c #D1D2D3",
"8.	c #ACBEC8",
"9.	c #807D7E",
"0.	c #B19442",
"a.	c #F6C632",
"b.	c #A78629",
"c.	c #2F2820",
"d.	c #272324",
"e.	c #322F30",
"f.	c #413E3F",
"g.	c #504E4F",
"h.	c #8D9498",
"i.	c #666464",
"j.	c #555253",
"k.	c #C39E32",
"l.	c #C19B2B",
"m.	c #725D25",
"n.	c #F6C531",
"o.	c #9B7F2D",
"p.	c #1C191A",
"q.	c #191717",
"r.	c #585A5B",
"s.	c #5A5758",
"t.	c #C19B2C",
"u.	c #110F10",
"v.	c #505050",
"w.	c #575455",
"x.	c #1E1A1B",
"y.	c #151314",
"z.	c #7F7F7F",
"A.	c #201C1D",
"B.	c #1D191A",
"C.	c #CACACA",
"D.	c #BECBD2",
"E.	c #AEC2CD",
"F.	c #9D9B9B",
"G.	c #DBDBDB",
"H.	c #E5EBEF",
"I.	c #96B0BD",
"J.	c #2C2829",
"K.	c #3F3C3D",
"L.	c #514E4E",
"M.	c #423F40",
"N.	c #6F6C6D",
"O.	c #B9BEC0",
"P.	c #3C352E",
"Q.	c #554C3C",
"R.	c #2D292A",
"S.	c #1B1718",
"T.	c #6B6B6B",
"U.	c #8397A0",
"V.	c #6C696A",
"W.	c #8C7328",
"X.	c #F6C631",
"Y.	c #44381F",
"Z.	c #151213",
"`.	c #313030",
" +	c #66747B",
".+	c #C3D2D9",
"++	c #DBE3E8",
"@+	c #F1F4F6",
"#+	c #E5ECEF",
"$+	c #D4DFE5",
"%+	c #AEC3CE",
"&+	c #7D7B7B",
"*+	c #4B4748",
"=+	c #594920",
"-+	c #121011",
";+	c #242424",
">+	c #65747A",
",+	c #D0CFCF",
"'+	c #C2C1C1",
")+	c #9E9D9D",
"!+	c #BEBCBD",
"~+	c #F9F9F9",
"{+	c #D3DFE5",
"]+	c #464344",
"^+	c #4D401F",
"/+	c #121010",
"(+	c #E8EEF1",
"_+	c #939191",
":+	c #7E7C7C",
"<+	c #797677",
"[+	c #959394",
"}+	c #EDEDED",
"|+	c #666364",
"1+	c #3A3738",
"2+	c #D9E2E7",
"3+	c #787677",
"4+	c #494647",
"5+	c #74643A",
"6+	c #8B753A",
"7+	c #4F4942",
"8+	c #565354",
"9+	c #6A6767",
"0+	c #EAEAEA",
"a+	c #403D3E",
"b+	c #2C292A",
"c+	c #949393",
"d+	c #393637",
"e+	c #60512E",
"f+	c #CFA72E",
"g+	c #362F27",
"h+	c #7C797A",
"i+	c #282425",
"j+	c #252122",
"k+	c #A4BBC6",
"l+	c #C9C8C8",
"m+	c #383435",
"n+	c #322E2F",
"o+	c #F5C42F",
"p+	c #4A3D22",
"q+	c #8C7227",
"r+	c #E9BB2E",
"s+	c #8EAAB8",
"t+	c #F1F1F1",
"u+	c #333031",
"v+	c #CDA52C",
"w+	c #3D3321",
"x+	c #F0F4F6",
"y+	c #484445",
"z+	c #353132",
"A+	c #A7862A",
"B+	c #DCB02D",
"C+	c #DAE3E7",
"D+	c #6B6869",
"E+	c #826B2B",
"F+	c #BCCCD4",
"G+	c #929090",
"H+	c #53462C",
"I+	c #A7BCC6",
"J+	c #C7C6C6",
"K+	c #312D2E",
"L+	c #2F2B2C",
"M+	c #5B7481",
"N+	c #678796",
"O+	c #4C656E",
"P+	c #292526",
"Q+	c #C09A2B",
"R+	c #645224",
"S+	c #4E4120",
"T+	c #131111",
"U+	c #5B7480",
"V+	c #DBE2E6",
"W+	c #595657",
"X+	c #8D742A",
"Y+	c #514321",
"Z+	c #151313",
"`+	c #2A2929",
" @	c #C1CFD6",
".@	c #8E8C8C",
"+@	c #5C4E2A",
"@@	c #7B6325",
"#@	c #171515",
"$@	c #201F1F",
"%@	c #586165",
"&@	c #6C8D9C",
"*@	c #A8BCC7",
"=@	c #C0BFBF",
"-@	c #2B2728",
";@	c #E8BA2E",
">@	c #574823",
",@	c #B3902A",
"'@	c #191617",
")@	c #121111",
"!@	c #494D4F",
"~@	c #EFEFEF",
"{@	c #CEA62C",
"]@	c #1A1718",
"^@	c #0D0B0C",
"/@	c #404040",
"(@	c #4D5F69",
"_@	c #4E6871",
":@	c #688795",
"<@	c #CDD6DA",
"[@	c #615E5F",
"}@	c #735E26",
"|@	c #0C0A0B",
"1@	c #363535",
"2@	c #48616A",
"3@	c #4D5F68",
"4@	c #445058",
"5@	c #56727D",
"6@	c #607D89",
"7@	c #B1C2CA",
"8@	c #8F8E8E",
"9@	c #312B23",
"0@	c #0B0A0A",
"a@	c #323232",
"b@	c #5D7B87",
"c@	c #526E78",
"d@	c #2C2D30",
"e@	c #607F8C",
"f@	c #4F6972",
"g@	c #98B1BE",
"h@	c #CDCDCD",
"i@	c #211E1F",
"j@	c #A48428",
"k@	c #F1C12E",
"l@	c #181516",
"m@	c #090808",
"n@	c #536E78",
"o@	c #5C7A87",
"p@	c #658391",
"q@	c #6E8F9F",
"r@	c #70909F",
"s@	c #B7BFC3",
"t@	c #5B595A",
"u@	c #1D1A1B",
"v@	c #39301F",
"w@	c #E4B72D",
"x@	c #C39D2A",
"y@	c #6D8F9F",
"z@	c #698A9A",
"A@	c #658290",
"B@	c #495861",
"C@	c #57727D",
"D@	c #5E7A86",
"E@	c #9DB0BB",
"F@	c #8C8C8C",
"G@	c #2A241C",
"H@	c #BB962A",
"I@	c #F4C32F",
"J@	c #796322",
"K@	c #0F0D0E",
"L@	c #100F0F",
"M@	c #4E5456",
"N@	c #5B7885",
"O@	c #495860",
"P@	c #2D2D30",
"Q@	c #49626A",
"R@	c #7595A5",
"S@	c #868F94",
"T@	c #535353",
"U@	c #161415",
"V@	c #1C1919",
"W@	c #776124",
"X@	c #E5B82D",
"Y@	c #DFB32C",
"Z@	c #211C17",
"`@	c #616E73",
" #	c #4B656E",
".#	c #546872",
"+#	c #526C76",
"@#	c #5F7C88",
"##	c #707B80",
"$#	c #373636",
"%#	c #181718",
"&#	c #2B241D",
"*#	c #967A27",
"=#	c #F2C22E",
"-#	c #6C5820",
";#	c #0C0B0B",
">#	c #3C3C3C",
",#	c #829BA6",
"'#	c #5C7985",
")#	c #526671",
"!#	c #2D2E31",
"~#	c #6D8C9A",
"{#	c #7593A2",
"]#	c #87969F",
"^#	c #474849",
"/#	c #9E7F27",
"(#	c #171415",
"_#	c #5E686E",
":#	c #6E8E9D",
"<#	c #49616A",
"[#	c #658593",
"}#	c #51616B",
"|#	c #5C7883",
"1#	c #546D77",
"2#	c #889094",
"3#	c #8F8F8F",
"4#	c #B4912A",
"5#	c #1E1B1C",
"6#	c #131212",
"7#	c #454748",
"8#	c #8BA4B1",
"9#	c #546F7A",
"0#	c #597581",
"a#	c #4E5F69",
"b#	c #282628",
"c#	c #708F9E",
"d#	c #506973",
"e#	c #637E8A",
"f#	c #D2DCE1",
"g#	c #A5A4A4",
"h#	c #352E26",
"i#	c #0F0E0E",
"j#	c #393939",
"k#	c #7B8D96",
"l#	c #617E8A",
"m#	c #6F90A0",
"n#	c #678492",
"o#	c #383D42",
"p#	c #718F9D",
"q#	c #4A626A",
"r#	c #6C8894",
"s#	c #F2F6F7",
"t#	c #807E7F",
"u#	c #524F4F",
"v#	c #856E30",
"w#	c #1E1B1B",
"x#	c #2F2E2E",
"y#	c #80949E",
"z#	c #688794",
"A#	c #6B8A99",
"B#	c #363C41",
"C#	c #4E5C65",
"D#	c #708E9B",
"E#	c #6F8A96",
"F#	c #C1D2DA",
"G#	c #E7E7E7",
"H#	c #585555",
"I#	c #D0A934",
"J#	c #6B787F",
"K#	c #718F9E",
"L#	c #64818E",
"M#	c #4A5962",
"N#	c #5B6D77",
"O#	c #6B8793",
"P#	c #718C98",
"Q#	c #DEE6EB",
"R#	c #BFBEBE",
"S#	c #828081",
"T#	c #635B4D",
"U#	c #F6C633",
"V#	c #886F26",
"W#	c #262425",
"X#	c #596063",
"Y#	c #6D8A97",
"Z#	c #65838F",
"`#	c #566973",
" $	c #5D6E78",
".$	c #76929F",
"+$	c #4A636B",
"@$	c #6F8994",
"#$	c #F5F8F9",
"$$	c #979495",
"%$	c #A48A3F",
"&$	c #F3C32E",
"*$	c #D3A92B",
"=$	c #725C22",
"-$	c #161314",
";$	c #68838F",
">$	c #678490",
",$	c #576A74",
"'$	c #5F7079",
")$	c #7D99A6",
"!$	c #4F6770",
"~$	c #5E7781",
"{$	c #93ACBA",
"]$	c #C7D6DD",
"^$	c #D5D4D4",
"/$	c #454142",
"($	c #26201A",
"_$	c #483C1D",
":$	c #715C22",
"<$	c #907526",
"[$	c #BC972A",
"}$	c #D7AC2C",
"|$	c #B59128",
"1$	c #7C6522",
"2$	c #51421D",
"3$	c #2B2417",
"4$	c #141112",
"5$	c #0E0D0D",
"6$	c #8197A2",
"7$	c #87A3B0",
"8$	c #5A747E",
"9$	c #4D666F",
"0$	c #74919F",
"a$	c #586B75",
"b$	c #5B6A73",
"c$	c #8AA5B3",
"d$	c #637C86",
"e$	c #4B636C",
"f$	c #7C95A0",
"g$	c #DAE2E6",
"h$	c #828181",
"i$	c #171516",
"j$	c #0B090A",
"k$	c #0E0C0D",
"l$	c #131112",
"m$	c #141212",
"n$	c #100E0F",
"o$	c #1D1D1D",
"p$	c #2B2B2B",
"q$	c #64767E",
"r$	c #7E9CAA",
"s$	c #55656E",
"t$	c #444A4F",
"u$	c #88A1AF",
"v$	c #839CA9",
"w$	c #516972",
"x$	c #587078",
"y$	c #8FA6B2",
"z$	c #A4B1B8",
"A$	c #676D71",
"B$	c #484949",
"C$	c #161616",
"D$	c #282727",
"E$	c #656E72",
"F$	c #6C7B83",
"G$	c #4F6870",
"H$	c #75909C",
"I$	c #7C98A6",
"J$	c #40474C",
"K$	c #2A282A",
"L$	c #70818B",
"M$	c #7F97A2",
"N$	c #526A72",
"O$	c #59717A",
"P$	c #8AA0AA",
"Q$	c #B2C6D0",
"R$	c #B0C0C8",
"S$	c #9DA8AE",
"T$	c #878F92",
"U$	c #6F7375",
"V$	c #5E6061",
"W$	c #636769",
"X$	c #70777B",
"Y$	c #8A979D",
"Z$	c #9AACB5",
"`$	c #839BA5",
" %	c #576F78",
".%	c #506971",
"+%	c #728C97",
"@%	c #687B85",
"#%	c #292729",
"$%	c #404448",
"%%	c #8EA3AF",
"&%	c #869DA7",
"*%	c #617881",
"=%	c #4D656D",
"-%	c #748A92",
";%	c #9FB2BB",
">%	c #9AAEB7",
",%	c #708790",
"'%	c #587079",
")%	c #8299A6",
"!%	c #3D4146",
"~%	c #53595F",
"{%	c #97AAB5",
"]%	c #AABFC9",
"^%	c #8A9FA8",
"/%	c #5E757D",
"(%	c #6A7F87",
"_%	c #92A4AB",
":%	c #C0CCD1",
"<%	c #E8EDF0",
"[%	c #F0F3F4",
"}%	c #C4CED2",
"|%	c #93A4AB",
"1%	c #73878F",
"2%	c #5D747C",
"3%	c #778D97",
"4%	c #9BB1BC",
"5%	c #8CA2AE",
"6%	c #4E555B",
"7%	c #46484C",
"8%	c #7D8890",
"9%	c #BECDD5",
"0%	c #A0B1B8",
"a%	c #899BA2",
"b%	c #6F838A",
"c%	c #657A81",
"d%	c #809399",
"e%	c #9FB0B8",
"f%	c #B9CBD3",
"g%	c #76838B",
"h%	c #43464A",
"i%	c #2D2A2C",
"j%	c #5E6266",
"k%	c #949EA5",
"l%	c #C4D2D9",
"m%	c #C0CFD6",
"n%	c #8F9AA1",
"o%	c #5B6064",
"p%	c #2C292B",
"q%	c #454446",
"r%	c #75787B",
"s%	c #ABAFB2",
"t%	c #D9DCDE",
"u%	c #E0E1E2",
"v%	c #AFB1B3",
"w%	c #76787B",
"                                                                                                                                ",
"      . . . . . . . . . . . . . . . . . . . . . . . . . . . . . . . . . . . . . . . . . . . . . . . . . . . . . . . . . .       ",
"      . . . . . . . . . . . . . . . . . . . . . . . . . . . . . . . . . . . . . . . . . . . . . . . . . . . . . . . . . .       ",
"      . . + @ # $ % & * = - ; > , ' ) ! ~ { ] ^ / ( _ : < [ } | 1 2 3 4 5 ( 6 7 8 9 0 a b c ; - = d & % e f g @ + h h . .       ",
"      . . + @ # $ % & * = - ; > , ' ) ! ~ { ] ^ / ( _ : < [ } | 1 2 3 4 5 ( 6 7 8 9 0 a b c ; - = d & % e f g @ + h h . .       ",
"      . . + i j j j j j j j j j j j j j j j j j j j j j j j j j j j j j j j j j j j j j j j j j j j j j j j j j j k h . .       ",
"      . . + i l $ % & * = - ; > , ' ) ! ~ { ] ^ / ( _ : m n o p q r 3 4 5 ( 6 7 8 9 0 a b c ; - = d & % e f g @ s k h . .       ",
"      . . + i l $ % & * = - ; > , ' ) ! ~ { ] ^ / ( _ t u v w x y z A 4 5 ( 6 7 8 9 0 a b c ; - = d & % e f g @ s k h . .       ",
"      . . + i l $ % & * = - ; > , ' ) ! ~ { ] ^ / ( _ B C D E F G H I J 5 ( 6 7 8 9 0 a b c ; - = d & % e f g @ s k h . .       ",
"      . . + i l $ % & * = - ; > , ' ) ! ~ { ] ^ K L M N O P Q R S T U V 5 ( 6 7 8 9 0 a b c ; - = d & % e f g @ s k h . .       ",
"      . . + i l $ % & * = - ; > , ' ) ! ~ { ] W u X Y Z `  ...+.@.#.$.%.&.*.6 7 8 9 0 a b c ; - = d & % e f g @ s k h . .       ",
"      . . + i l $ % & * = - ; > , ' ) ! ~ { =.o -.z ;.>.,.'.+.).+.!.~.{.].Y ^./.8 9 0 a b c ; - = d & % e f g @ s k h . .       ",
"      . . + i l $ % & * = - ; > , ' ) ! ~ { (._.:.<.[.}.~.|.).).+.1.2.3.4.5.6.7.8.9 0 a b c ; - = d & % e f g @ s k h . .       ",
"      . . + i l $ % & * = - ; > , ' ) ! ~ { q 9.>.0.a.b.H c.).).).. d.e.f.3.#.g.h.9 0 a b c ; - = d & % e f g @ s k h . .       ",
"      . . + i l $ % & * = - ; > , ' ) ! ~ { q i.j.k.).l.H H ).).).H H m.n.o.p.q.r.9 0 a b c ; - = d & % e f g @ s k h . .       ",
"      . . + i l $ % & * = - ; > , ' ) ! ~ { q s.,.t.).l.H H ).).).H H l.).t.p.u.v.9 0 a b c ; - = d & % e f g @ s k h . .       ",
"      . . + i l $ % & * = - ; > , ' ) ! ~ { q w.3.l.).l.H H ).).).H H l.).t.x.y.z.9 0 a b c ; - = d & % e f g @ s k h . .       ",
"      . . + i l $ % & * = - ; > , ' ) ! ~ { q w.3.l.).l.H H ).).).H H l.).l.A.B.C.D.E.a b c ; - = d & % e f g @ s k h . .       ",
"      . . + i l $ % & * = - ; > , ' ) ! ~ { q w.3.l.).l.H H ).).).H H l.).l.H H D F.G.H.I.c ; - = d & % e f g @ s k h . .       ",
"      . . + i l $ % & * = - ; > , ' ) ! ~ { q w.3.l.).l.H H ).).).H H l.).l.. J.K.L.M.N.O.c ; - = d & % e f g @ s k h . .       ",
"      . . + i l $ % & * = - ; > , ' ) ! ~ { q 5.3.l.).l.H H ).).).H H l.).l.. 1.P.Q.R.S.T.U.; - = d & % e f g @ s k h . .       ",
"      . . + i l $ % & * = - ; > , ' ) ! ~ { q V.,.l.).l.H H ).).).H H l.).l.H H W.X.Y.Z.`. +; - = d & % e f g @ s k h . .       ",
"      . . + i l $ % & * = - .+++@+q #+$+%+{ q &+*+l.).l.H H ).).).H H l.).l.H H l.).=+-+;+>+; - = d & % e f g @ s k h . .       ",
"      . . + i l $ % & * = - q ,+'+:.)+!+~+{+q ` ]+l.).l.H H ).).).H H l.).l.H H l.).^+/+;+>+; - = d & % e f g @ s k h . .       ",
"      . . + i l $ % & * = - (+E _+:+>.<+[+}+q |+1+l.).l.H H ).).).H H l.).l.H H l.).^+/+;+>+; - = d & % e f g @ s k h . .       ",
"      . . + i l $ % & * = - 2+3+4+5+6+7+8+9+0+a+b+l.).l.H H ).).).H H l.).l.H H l.).^+/+;+>+; - = d & % e f g @ s k h . .       ",
"      . . + i l $ % & * = - .+c+d+e++.f+g+b+h+i+j+l.).l.H H ).).).H H l.).l.H H l.).^+/+;+>+; - = d & % e f g @ s k h . .       ",
"      . . + i l $ % & * = - k+l+m+n+o+).b.H H H H l.).l.H H ).).).p+q+r+).l.H H l.).^+/+;+>+; - = d & % e f g @ s k h . .       ",
"      . . + i l $ % & * = - s+t+u+u+v+).r+H H H H l.).l.H w+).).).).).).).l.H H l.).^+/+;+>+; - = d & % e f g @ s k h . .       ",
"      . . + i l $ % & * = - ; x+y+z+A+).).m.H H H l.).r+r+).).).).).).).).B+H H l.).^+/+;+>+; - = d & % e f g @ s k h . .       ",
"      . . + i l $ % & * = - ; C+D+z+E+).).l.H H H l.).).).).).).).).).).).).H H l.).^+/+;+>+; - = d & % e f g @ s k h . .       ",
"      . . + i l $ % & * = - ; F+G+z+H+).).).w+H H l.).).).).).).).).).).).).b.l.r+).^+/+;+>+; - = d & % e f g @ s k h . .       ",
"      . . + i l $ % & * = - ; I+J+K+L+o+).).b.H H l.).).).).).).).).).).).).).).).).^+/+;+>+; - = d & % e f g @ s k h . .       ",
"      . . M+N+O+$ % & * = - ; > ~+P+2.Q+).).).w+H R+r+).).).).).).).).).).).).).).).S+T+;+>+; - = d & % e f g @ s k U+. .       ",
"      . . M+@ j $ % & * = - ; > V+W+2.X+).).).b.H H c.q+).).).).).).).).).).).).).).Y+Z+`+>+; - = d & % e f g @ s k U+. .       ",
"      . . M+@ j $ % & * = - ; >  @.@2.+@o+).).).q+c.H H w+r+).).).).).).).).).).).).@@#@$@%@; - = d & % e f g @ j &@U+. .       ",
"      . . M+@ j $ % & * = - ; > *@=@-@J.;@).).).).r+m.H >@).).).).).).).).).).).).).,@'@)@!@; - = d & % e f g @ j h U+. .       ",
"      . . M+@ j $ % & * = - ; > , ~@H J.,@).).).).).).B+{@).).).).).).).).).).).).).{@]@^@/@; - = d & % e f g @ j h U+. .       ",
"      . . (@@ _@:@% & * = - ; > , <@[@i+}@o+).).).).).).).).).).).).).).).).).).).).+.]@|@1@; - = d & % e f g N+2@h 3@. .       ",
"      . . 4@@ 5@6@% & * = - ; > , 7@8@H 9@o+).).).).).).).).).).).).).).).).).).).).o+'@0@a@; - = d & % e f g b@c@h 4@. .       ",
"        . d@@ e@f@% & * = - ; > , g@h@$.i@j@o+).).).).).).).).).).).).).).).).).).).k@l@m@a@; - = d & % e f g n@o@h d@.         ",
"        . . p@q@j r@& * = - ; > , ' s@t@u@v@w@o+).).).).).).).).).).).).).).).).).).x@Z.m@/@; - = d & % e f y@j z@A@. .         ",
"        . . B@# C@D@& * = - ; > , ' E@F@T '@G@H@o+).).).).).).).).).).).).).).).).I@J@K@L@M@; - = d & % e f N@n@+ O@. .         ",
"          . P@# :@Q@R@* = - ; > , ' ) S@T@U@Z+V@W@X@o+).).).).).).).).).).).).).).Y@Z@m@;+`@; - = d & % e f  #i + d@.           ",
"          . . .#$ +#@#* = - ; > , ' ) ! ##$#%#u.'@&#*#o+).).).).).).).).).).).).=#-#K@;#>#,#; - = d & % e '#s @ )#. .           ",
"          . . !#$ ~#Q@{#= - ; > , ' ) ! ~ ]#^#`.p.p.#.w+l.).).).).).).).).).).)./#(#m@;+_#c ; - = d & % :#<#[#@ d@. .           ",
"            . . }#% |#1#= - ; > , ' ) ! ~ { I+2#3#s.. !.4#).).).).).).).).).).l.5#u.6#7#8#c ; - = d & % 9#0#g a#. .             ",
"              . b#c#R@d#e#- ; > , ' ) ! ~ { ] ^ f#g#1+h#).).).).).).).).).).).{@u@i#j#k#b c ; - = d & l#O+m#n#b#.               ",
"              . . o#& p#q#r#; > , ' ) ! ~ { ] ^ s#t#u#v#).).).).).).).).).).).).w#u.x#y#b c ; - = d z#Q@A#f B#. .               ",
"                . . C#* D#j E#> , ' ) ! ~ { ] F#G#:+H#I#).).).).).).).).).).).).Y+y.x#J#b c ; - = K#Q@L#e M#. .                 ",
"                  . . N#= O#j P#, ' ) ! ~ { ] Q#R#S#T#U#).).).).).).).).).).).).V#'@W#X#b c ; - Y#Q@Z#% `#. .                   ",
"                  . . .  $- .$+$@$' ) ! ~ { ] #$$$F %$+.).).).).).).).).).).&$*$=$-$0@7#b c ; ;$Q@>$& ,$. . .                   ",
"                    . . . '$; )$!$~${$! ~ { ]$^$/$#.($_$:$<$[$v+).o+}$|$1$2$3$4$5$m@m@1@6$7$8$9$0$d a$. . .                     ",
"                      . . . b$> c$d$e$f$~ { g$h$i$m@m@j$k$u.l$m$Z.m$T+n$;#m@m@m@;#o$p$>#q$+$8$r$= s$. . .                       ",
"                        . . . t$u$' v$w$x$y$z$A$B$j#x#;+C$6#m@m@m@m@m@m@C$o$D$1@^#E$F$x$G$H$; I$J$. . .                         ",
"                            . . K$L$) ! M$N$O$P$Q$R$S$T$U$V$/@/@1@a@/@/@W$X$Y$Z$`$ %.%+%b c @%#%. .                             ",
"                              . . . $%%%~ { &%*%=%-%;%: < [ } | 1 2 3 4 5 >%,%=%'%M$0 a )%!%. . .                               ",
"                                . . . . ~%{%] ^ ]%^%/%j (%_%:%<%[%}%|%1%j 2%3%4%8 9 5%6%. . . .                                 ",
"                                    . . . . 7%8%/ ( _ 9%0%a%b%j j c%d%e%f%( 6 7 g%h%. . . .                                     ",
"                                        . . . . i%j%k%l%< [ } | 1 2 3 4 m%n%o%p%. . . .                                         ",
"                                            . . . . . . q%r%s%t%u%v%w%q%. . . . . .                                             ",
"                                                  . . . . . . . . . . . . . .                                                   ",
"                                                          . . . . . .                                                           ",
"                                                                                                                                "};
