/* XPM */
static const char * HeroIcon_xpm[] = {
"32 32 256 2",
"  	c None",
". 	c #F1BF1A",
"+ 	c #221E1F",
"@ 	c #6D92A2",
"# 	c #D9AD1A",
"$ 	c #EAB91A",
"% 	c #F5C21A",
"& 	c #F2C01A",
"* 	c #B49E4D",
"= 	c #475A64",
"- 	c #D3E1E8",
"; 	c #97A4AB",
"> 	c #1D1919",
", 	c #9C812A",
"' 	c #8AA5B3",
") 	c #323235",
"! 	c #7C8387",
"~ 	c #494C51",
"{ 	c #647D8A",
"] 	c #4C5C65",
"^ 	c #EEBC1A",
"/ 	c #3E4C54",
"( 	c #CDDCE4",
"_ 	c #6E95A5",
": 	c #E5EEF2",
"< 	c #B6CAD5",
"[ 	c #242022",
"} 	c #8A99A1",
"| 	c #8A6E1C",
"1 	c #BCA452",
"2 	c #F4F8FA",
"3 	c #EFF5F7",
"4 	c #856B1C",
"5 	c #546A75",
"6 	c #ABC2CD",
"7 	c #9C7D1C",
"8 	c #DEB01A",
"9 	c #C3D5DF",
"0 	c #ABC2CE",
"a 	c #2E3134",
"b 	c #B18D1B",
"c 	c #8BAAB9",
"d 	c #C2D3DD",
"e 	c #1A171E",
"f 	c #8E721C",
"g 	c #565D61",
"h 	c #A9C0CB",
"i 	c #626C73",
"j 	c #FEFEFF",
"k 	c #FFCD1A",
"l 	c #272426",
"m 	c #536671",
"n 	c #E1EBF0",
"o 	c #AA891C",
"p 	c #99B2BF",
"q 	c #95AFBE",
"r 	c #F1F6F9",
"s 	c #94B1C0",
"t 	c #8B9EAA",
"u 	c #353538",
"v 	c #F7C41A",
"w 	c #425057",
"x 	c #C49D1B",
"y 	c #DBE5EB",
"z 	c #211D1E",
"A 	c #658695",
"B 	c #F0BE1A",
"C 	c #84A2B1",
"D 	c #B6921C",
"E 	c #F3C01A",
"F 	c #2A282A",
"G 	c #2A2A2C",
"H 	c #ECF2F6",
"I 	c #373D43",
"J 	c #A0811C",
"K 	c #4A545A",
"L 	c #A69344",
"M 	c #6A8F9E",
"N 	c #6E93A3",
"O 	c #B2C7D3",
"P 	c #728692",
"Q 	c #1D1616",
"R 	c #7B8F9A",
"S 	c #F2BF1A",
"T 	c #211C1D",
"U 	c #262324",
"V 	c #1A2025",
"W 	c #80A2B3",
"X 	c #82A5B6",
"Y 	c #7C8D97",
"Z 	c #AD8A1C",
"` 	c #AF8C1C",
" .	c #C0991B",
"..	c #65521D",
"+.	c #CEA41B",
"@.	c #B4901B",
"#.	c #5D4C1E",
"$.	c #AEC5D1",
"%.	c #282527",
"&.	c #F7C216",
"*.	c #354148",
"=.	c #BA951B",
"-.	c #ECBB1A",
";.	c #232021",
">.	c #8BA9B7",
",.	c #93761D",
"'.	c #525558",
").	c #A5851C",
"!.	c #728F9D",
"~.	c #9DB6C3",
"{.	c #B8931C",
"].	c #1A1414",
"^.	c #3A4249",
"/.	c #020303",
"(.	c #51606A",
"_.	c #221E1E",
":.	c #BF991B",
"<.	c #445259",
"[.	c #98B3C2",
"}.	c #78611D",
"|.	c #DFE9EE",
"1.	c #CAA11B",
"2.	c #61717B",
"3.	c #E7B71A",
"4.	c #B3901C",
"5.	c #1F1C1F",
"6.	c #2A2729",
"7.	c #5B717B",
"8.	c #A08D3E",
"9.	c #F9C51A",
"0.	c #586F7C",
"a.	c #485157",
"b.	c #84A7B8",
"c.	c #BED0DA",
"d.	c #779AAF",
"e.	c #686667",
"f.	c #C89F1B",
"g.	c #C9DCE6",
"h.	c #808E88",
"i.	c #BC961A",
"j.	c #CDAA2E",
"k.	c #A9C0CC",
"l.	c #E0B21B",
"m.	c #50626C",
"n.	c #879198",
"o.	c #47391A",
"p.	c #D7E1E7",
"q.	c #6E8592",
"r.	c #F2BF18",
"s.	c #999A9C",
"t.	c #0D0E10",
"u.	c #201B1C",
"v.	c #22222A",
"w.	c #F0BF1A",
"x.	c #83919A",
"y.	c #E2EAEE",
"z.	c #B3CBD8",
"A.	c #A3ADB2",
"B.	c #BCBFC1",
"C.	c #A58621",
"D.	c #AD983F",
"E.	c #C5D0D6",
"F.	c #C8D6DD",
"G.	c #7A93A0",
"H.	c #6C7A83",
"I.	c #48494B",
"J.	c #A0A9AE",
"K.	c #C6C8C9",
"L.	c #ACB7BD",
"M.	c #EAEFF2",
"N.	c #81A3B4",
"O.	c #2E2E30",
"P.	c #B1B8BC",
"Q.	c #9F801C",
"R.	c #87A5B4",
"S.	c #8B752A",
"T.	c #977A1C",
"U.	c #35383D",
"V.	c #383A3E",
"W.	c #9FBBC9",
"X.	c #777C80",
"Y.	c #5D6970",
"Z.	c #E6F0F5",
"`.	c #C5D6E0",
" +	c #D1A71F",
".+	c #D2A81E",
"++	c #A6C0CE",
"@+	c #7F929D",
"#+	c #3D484E",
"$+	c #E2ECF1",
"%+	c #6A6B54",
"&+	c #7D744B",
"*+	c #77755A",
"=+	c #AF8C1B",
"-+	c #D6DBDE",
";+	c #86A4B3",
">+	c #7694A3",
",+	c #EBB814",
"'+	c #7C9BAB",
")+	c #4E636D",
"!+	c #91AAB9",
"~+	c #92AABC",
"{+	c #93AFBE",
"]+	c #7C9EBC",
"^+	c #95ADBA",
"/+	c #6E7463",
"(+	c #2D2A2B",
"_+	c #8C8E90",
":+	c #2F2D2F",
"<+	c #393E42",
"[+	c #A9871C",
"}+	c #A1B6C1",
"|+	c #A3BECC",
"1+	c #AFBAC1",
"2+	c #677A84",
"3+	c #8EB0C5",
"4+	c #D3AE2B",
"5+	c #C1D2DB",
"6+	c #161A1E",
"7+	c #EBF2F5",
"8+	c #231F20",
"9+	c #AA9747",
"0+	c #AF9A4A",
"a+	c #CBDBE4",
"b+	c #CCDAE2",
"c+	c #9FB9C7",
"d+	c #C4D5DE",
"e+	c #333D4A",
"f+	c #B1C1CA",
"g+	c #9AB6C6",
"h+	c #9EB7C4",
"i+	c #424347",
"j+	c #40494F",
"k+	c #6D591D",
"l+	c #81868A",
"m+	c #89898B",
"n+	c #9AB7CA",
"o+	c #BA951C",
"p+	c #BD971C",
"q+	c #698B9A",
"r+	c #6E8B9A",
"s+	c #181212",
"t+	c #3B444A",
"u+	c #C2A22E",
"v+	c #708896",
"w+	c #3D474E",
"x+	c #ABC1CD",
"y+	c #2C2B2E",
"z+	c #312616",
"A+	c #6A757C",
"B+	c #E2B41B",
"C+	c #746329",
"D+	c #50656F",
"E+	c #211D1E",
"F+	c #80939F",
"G+	c #5D7A87",
"                                  U (+T                         ",
"7 f...                        ;.I.J.|.K.e.E+                    ",
"Z S ^ f                   8+i+; g.- : 2 H 1+'.T                 ",
"b . . ^ @.              %.i k.< 9 - : 2 r 7+- Y G               ",
"  :.& . . 8 4         l Y.|+h < 9 - : 2 2 j y.++R O.            ",
"  }.).3.. . ^ =+    e V.{+h+h < 9 - : 2 3 y b+p.|.! >           ",
"  Z ^ J 7 3.& . # ..v.2+s ~.h < 9 - : 2 H a+d+M.j E./ ].        ",
"  7 & . 8 ,.o % & $ , 2.s ~.h < 9 - : 2 H ( c.y j - 0.%.  #.b   ",
"    f # & B +.| o+% r..+*+~+x+< 9 - : 2 H ( < O F.h r+e+o.:.}.  ",
"      T.).D % B 1.| 1.v 3., &+* * * 1 1 1 * 0+9+L L 8.S.b k 4   ",
"      4.E 8 J D $ -.b 7 B+w.x J B & . . . . . . . . . . . k f   ",
"      4 % . & $ [+[+l.$ D f.9.8 Q.+.v . . . . . . . . . . k f   ",
"        k+[+8 E S ^  .J p+v . E -.C.K v+Y } ; P.B.A.} R m C+|   ",
"           .` ` D $ & B 8 +.% . S r.u+P g+6 d n 3 ( 0 [.G.^.z+  ",
"          Z % & $ o ` {.$ & . . . &.4+h.n+}+n.! m+X.A+R >.]     ",
"          | v . . . B # D v . . . &.j.P !+g ]._._.+ u.) q.{ G   ",
"              ,. .x % . . . . . E ,+D.]+@+:+> + + + + ].K !.^.  ",
"              7 v 8 =.=.{.-.& . %  +/+3+F+u > + + + + u.%.7.(.[ ",
"              # % . . . . B # i.o %+d.>.^+i s++ + + + + Q j+m.t+",
"              #.o.5.+ + + + E+;.a ] N.' c+t u > + + + + E+l u I ",
"            l D+G+_ @ @ @ @ _ A w+<.X ' p O } 6.u.+ + + + + +   ",
"          U m _ @ @ @ @ @ @ _ A I U.b.' p $.5+l+Q T + + + + + + ",
"        [ <._ @ @ @ @ @ @ @ _ q+/ a '+' p 6 `.y s.F > + + + + + ",
"        w _ @ @ @ @ @ @ @ @ N M = y+!.>.p 6 d $+r L.~ E+_.+     ",
"      a M @ @ @ @ @ @ @ @ N M m a G { c p 6 d n 3 ( $.t a.[     ",
"      a )+{ _ @ @ @ @ @ A = y+T     a.s p 6 d n 3 ( 0 q ;+>+*.t.",
"          + [ <+/ ] 5 #+[           F 2.W.6 d n 3 ( 0 q C W = V ",
"                    +                 F H.z.d n 3 ( 0 q C X / /.",
"                                        U g f+Z.3 ( 0 q C W = V ",
"                                            ) _+-+- 0 q C X / /.",
"                                                U '.x.' R.W = V ",
"                                                    _.l <+(.*.6+"};
