/* XPM */
static const char * damage_xpm[] = {
"65 65 566 2",
"  	c None",
". 	c #B3B1B2",
"+ 	c #B2AFAC",
"@ 	c #B4AD9B",
"# 	c #948E83",
"$ 	c #676565",
"% 	c #AEADAD",
"& 	c #BAB5A9",
"* 	c #EDD999",
"= 	c #F7DC83",
"- 	c #F6D66C",
"; 	c #B69D4B",
"> 	c #383128",
", 	c #A7A6A6",
"' 	c #A09E9E",
") 	c #9A9898",
"! 	c #929090",
"~ 	c #878586",
"{ 	c #A8A7A7",
"] 	c #A2A1A1",
"^ 	c #8D8B8B",
"/ 	c #8E8469",
"( 	c #F4CE4E",
"_ 	c #F4CB43",
": 	c #F2C329",
"< 	c #917519",
"[ 	c #191617",
"} 	c #A6A5A6",
"| 	c #989A9C",
"1 	c #8E9599",
"2 	c #878E93",
"3 	c #83888B",
"4 	c #808385",
"5 	c #737071",
"6 	c #625F60",
"7 	c #A3A1A2",
"8 	c #928E8D",
"9 	c #8C7F77",
"0 	c #3F3939",
"a 	c #997D23",
"b 	c #F1C01E",
"c 	c #DFB118",
"d 	c #B28D13",
"e 	c #221C11",
"f 	c #686566",
"g 	c #727578",
"h 	c #758A94",
"i 	c #4F6976",
"j 	c #374750",
"k 	c #2D373D",
"l 	c #37454D",
"m 	c #5A707B",
"n 	c #72858E",
"o 	c #616568",
"p 	c #4A4747",
"q 	c #3D393A",
"r 	c #B2B0B1",
"s 	c #A9A8A8",
"t 	c #A49E9B",
"u 	c #A09288",
"v 	c #8C786A",
"w 	c #5F4F46",
"x 	c #231F20",
"y 	c #C79E1B",
"z 	c #CCA216",
"A 	c #90720F",
"B 	c #231D0C",
"C 	c #211D1E",
"D 	c #1E1C1E",
"E 	c #242E33",
"F 	c #0E1011",
"G 	c #090808",
"H 	c #0D0C0C",
"I 	c #171516",
"J 	c #344149",
"K 	c #59727E",
"L 	c #57646B",
"M 	c #383435",
"N 	c #302C2D",
"O 	c #ABA8A8",
"P 	c #B0A7A2",
"Q 	c #A7988D",
"R 	c #907D6F",
"S 	c #826C5C",
"T 	c #7D6656",
"U 	c #3D332F",
"V 	c #42371B",
"W 	c #A07F12",
"X 	c #65500B",
"Y 	c #100E08",
"Z 	c #100E0F",
"` 	c #0F0D0E",
" .	c #151313",
"..	c #323E46",
"+.	c #4C5A62",
"@.	c #373334",
"#.	c #B0AFAF",
"$.	c #ACA8A7",
"%.	c #B2A79F",
"&.	c #A29286",
"*.	c #8E7A6C",
"=.	c #80695A",
"-.	c #776151",
";.	c #6E5A4C",
">.	c #5F4E42",
",.	c #1A1616",
"'.	c #33290C",
").	c #261E07",
"!.	c #1A1718",
"~.	c #37454E",
"{.	c #556F7B",
"].	c #403D3E",
"^.	c #ADABAC",
"/.	c #ACAAAB",
"(.	c #AEA8A5",
"_.	c #B0A298",
":.	c #9A887C",
"<.	c #887364",
"[.	c #7B6454",
"}.	c #6E5A4B",
"|.	c #5D4C40",
"1.	c #463931",
"2.	c #1E1916",
"3.	c #0C0A08",
"4.	c #1F1C1C",
"5.	c #272426",
"6.	c #52656E",
"7.	c #5C7480",
"8.	c #545B60",
"9.	c #656263",
"0.	c #888687",
"a.	c #9C9999",
"b.	c #B1A7A0",
"c.	c #A8988E",
"d.	c #927F72",
"e.	c #836D5E",
"f.	c #766051",
"g.	c #665346",
"h.	c #4D3F35",
"i.	c #2A231E",
"j.	c #0B0A0A",
"k.	c #545152",
"l.	c #4B4B4C",
"m.	c #59707B",
"n.	c #5E7681",
"o.	c #595D61",
"p.	c #988B82",
"q.	c #9A897C",
"r.	c #8B7769",
"s.	c #7E6758",
"t.	c #715C4D",
"u.	c #41352D",
"v.	c #161210",
"w.	c #949293",
"x.	c #7C797A",
"y.	c #555253",
"z.	c #434A4F",
"A.	c #516B78",
"B.	c #546C77",
"C.	c #3B3B3D",
"D.	c #453E3C",
"E.	c #796353",
"F.	c #6A5749",
"G.	c #544439",
"H.	c #322923",
"I.	c #0E0C0B",
"J.	c #B0AEAF",
"K.	c #A5A3A3",
"L.	c #CDCDCD",
"M.	c #BEC0C2",
"N.	c #3C4B54",
"O.	c #4B6673",
"P.	c #445963",
"Q.	c #463B35",
"R.	c #6A5648",
"S.	c #4E3F35",
"T.	c #221C18",
"U.	c #0A0909",
"V.	c #221E1F",
"W.	c #B4B3B3",
"X.	c #BEBDBD",
"Y.	c #F4F5F5",
"Z.	c #E9F0F4",
"`.	c #CDDBE3",
" +	c #646B71",
".+	c #262325",
"++	c #455C68",
"@+	c #4A6572",
"#+	c #39464E",
"$+	c #1F1C1D",
"%+	c #41362F",
"&+	c #1F1A17",
"*+	c #464344",
"=+	c #A09F9F",
"-+	c #DDDDDD",
";+	c #F7F9FB",
">+	c #E0E9EF",
",+	c #C3D5DE",
"'+	c #A9C0CB",
")+	c #6C8390",
"!+	c #2A2B2F",
"~+	c #496471",
"{+	c #2C3438",
"]+	c #171415",
"^+	c #302C2B",
"/+	c #59554D",
"(+	c #918C7C",
"_+	c #9E9987",
":+	c #BAB59E",
"<+	c #C8C2AA",
"[+	c #E3DEC1",
"}+	c #FFF9D8",
"|+	c #F1EBCC",
"1+	c #ACA793",
"2+	c #938E7F",
"3+	c #8C8A86",
"4+	c #AFADAE",
"5+	c #C3C2C2",
"6+	c #F6F6F7",
"7+	c #EEF4F6",
"8+	c #D4E1E8",
"9+	c #B8CCD5",
"0+	c #98AFBC",
"a+	c #5A7481",
"b+	c #435862",
"c+	c #252224",
"d+	c #31393E",
"e+	c #435A65",
"f+	c #1E1E1F",
"g+	c #121011",
"h+	c #3E3936",
"i+	c #D6D0B5",
"j+	c #ECE7CE",
"k+	c #BCBAB6",
"l+	c #E4E4E4",
"m+	c #FAFCFC",
"n+	c #E4EDF1",
"o+	c #C8D8E0",
"p+	c #AEC4CE",
"q+	c #7A93A0",
"r+	c #4F6A77",
"s+	c #5F7D8B",
"t+	c #5C6D76",
"u+	c #394750",
"v+	c #46606C",
"w+	c #3B4D56",
"x+	c #FAF4D5",
"y+	c #D5D2C3",
"z+	c #C9C8C9",
"A+	c #F7F7F7",
"B+	c #F3F7F9",
"C+	c #D9E4EA",
"D+	c #BED0D9",
"E+	c #A0B8C4",
"F+	c #637D8B",
"G+	c #516D7B",
"H+	c #6E8D9C",
"I+	c #819BA9",
"J+	c #889DA8",
"K+	c #474B4F",
"L+	c #1E1B1D",
"M+	c #455F6B",
"N+	c #303B42",
"O+	c #1C1819",
"P+	c #FCFDFE",
"Q+	c #E9F1F4",
"R+	c #CEDCE4",
"S+	c #B3C8D2",
"T+	c #8AA3B0",
"U+	c #5C7987",
"V+	c #7896A5",
"W+	c #859DAA",
"X+	c #7F919A",
"Y+	c #6E787E",
"Z+	c #2E3031",
"`+	c #121010",
" @	c #1D1E21",
".@	c #405661",
"+@	c #455E69",
"@@	c #222224",
"#@	c #1B1819",
"$@	c #F7FAFB",
"%@	c #DEE8EE",
"&@	c #C2D3DD",
"*@	c #A5BBC7",
"=@	c #6E8895",
"-@	c #4C6875",
";@	c #688695",
">@	c #819EAB",
",@	c #88A0AB",
"'@	c #7D8C94",
")@	c #555C5F",
"!@	c #111111",
"~@	c #131011",
"{@	c #262D31",
"]@	c #47606D",
"^@	c #3A4C55",
"/@	c #757064",
"(@	c #F1EBD1",
"_@	c #FEFEFE",
":@	c #D3E0E7",
"<@	c #B8CBD6",
"[@	c #93ABB8",
"}@	c #597481",
"|@	c #567381",
"1@	c #7695A5",
"2@	c #87A2B0",
"3@	c #8CA1AB",
"4@	c #7B888F",
"5@	c #44484B",
"6@	c #0F0E0F",
"7@	c #0C0B0B",
"8@	c #394850",
"9@	c #465F6C",
"0@	c #23272A",
"a@	c #181516",
"b@	c #837E70",
"c@	c #676259",
"d@	c #D8D5C4",
"e@	c #FAFCFD",
"f@	c #E3ECF0",
"g@	c #C8D8E1",
"h@	c #AEC4D0",
"i@	c #7A94A1",
"j@	c #61808E",
"k@	c #7E9DAC",
"l@	c #8DA7B3",
"m@	c #8EA1AA",
"n@	c #788288",
"o@	c #36383A",
"p@	c #110F0F",
"q@	c #201D1E",
"r@	c #211E20",
"s@	c #455D68",
"t@	c #334148",
"u@	c #161414",
"v@	c #EDE7C9",
"w@	c #4F4C47",
"x@	c #B3B1A9",
"y@	c #A5A4A4",
"z@	c #D6D5D5",
"A@	c #FEFFFF",
"B@	c #D9E5EB",
"C@	c #BDCFD9",
"D@	c #9CB3BF",
"E@	c #5F7986",
"F@	c #86A2B0",
"G@	c #92A8B5",
"H@	c #8E9EA7",
"I@	c #727A7F",
"J@	c #272829",
"K@	c #757263",
"L@	c #1F1B1C",
"M@	c #344047",
"N@	c #3E5560",
"O@	c #161516",
"P@	c #E3DFC2",
"Q@	c #605D5C",
"R@	c #5E5B5B",
"S@	c #C2C0C0",
"T@	c #FCFDFD",
"U@	c #E9F0F3",
"V@	c #CDDCE4",
"W@	c #B3C8D3",
"X@	c #87A0AC",
"Y@	c #5D7C8A",
"Z@	c #7B9AAA",
"`@	c #8CA6B4",
" #	c #96AAB6",
".#	c #8E9BA2",
"+#	c #6A7073",
"@#	c #1B1B1C",
"##	c #908D7B",
"$#	c #E8E3C5",
"%#	c #252122",
"&#	c #2F2F31",
"*#	c #425A65",
"=#	c #191B1E",
"-#	c #100E0E",
";#	c #F7F1D1",
">#	c #DDD9BD",
",#	c #EEE9CB",
"'#	c #8F8A7A",
")#	c #56524A",
"!#	c #1D1A1A",
"~#	c #868B8E",
"{#	c #B9CBD3",
"]#	c #A3BAC5",
"^#	c #6A8390",
"/#	c #4F6A78",
"(#	c #698998",
"_#	c #82A0AF",
":#	c #94ACB9",
"<#	c #9AACB7",
"[#	c #8B969B",
"}#	c #5C6062",
"|#	c #121212",
"1#	c #181715",
"2#	c #B7B39D",
"3#	c #E6E1C4",
"4#	c #474445",
"5#	c #415762",
"6#	c #17191B",
"7#	c #F2EDCE",
"8#	c #999482",
"9#	c #201F20",
"0#	c #7C8E97",
"a#	c #536D79",
"b#	c #48636F",
"c#	c #7595A4",
"d#	c #8AA6B5",
"e#	c #9AB1BD",
"f#	c #9DAEB6",
"g#	c #889195",
"h#	c #4A4C4C",
"i#	c #0C0B0C",
"j#	c #36342E",
"k#	c #D2CEB4",
"l#	c #666464",
"m#	c #40545D",
"n#	c #121213",
"o#	c #EAE5C7",
"p#	c #34322D",
"q#	c #2C2F32",
"r#	c #3A4E58",
"s#	c #445D69",
"t#	c #617F8E",
"u#	c #7D9BAA",
"v#	c #91ABB9",
"w#	c #9FB4BF",
"x#	c #9FADB5",
"y#	c #848A8D",
"z#	c #353536",
"A#	c #636054",
"B#	c #F9F3D3",
"C#	c #8F8D8E",
"D#	c #727274",
"E#	c #0D0B0C",
"F#	c #4B4742",
"G#	c #FDF7D6",
"H#	c #E1DDC0",
"I#	c #BFBAA3",
"J#	c #22201E",
"K#	c #1D1E20",
"L#	c #4D626D",
"M#	c #76909C",
"N#	c #92AAB6",
"O#	c #A2B5BF",
"P#	c #9EA9AF",
"Q#	c #7D8183",
"R#	c #262626",
"S#	c #777466",
"T#	c #DFDBBF",
"U#	c #8C8A8B",
"V#	c #8A8889",
"W#	c #67767E",
"X#	c #090809",
"Y#	c #F4EFD0",
"Z#	c #D0CDB2",
"`#	c #393732",
" $	c #1B191A",
".$	c #586269",
"+$	c #9AAAB2",
"@$	c #99A1A6",
"#$	c #6B6D6E",
"$$	c #1A191A",
"%$	c #161513",
"&$	c #8D8A79",
"*$	c #FBF5D5",
"=$	c #333031",
"-$	c #6C7C84",
";$	c #3D535D",
">$	c #0D0D0E",
",$	c #848171",
"'$	c #6A6E6F",
")$	c #515252",
"!$	c #131213",
"~$	c #24221F",
"{$	c #B5B29B",
"]$	c #252222",
"^$	c #211E1F",
"/$	c #2F3C43",
"($	c #161B1E",
"_$	c #6C695D",
":$	c #222121",
"<$	c #1E1C1A",
"[$	c #A8A490",
"}$	c #F0EBCC",
"|$	c #1A1818",
"1$	c #ECE7C9",
"2$	c #979381",
"3$	c #383630",
"4$	c #FDF7D7",
"5$	c #F7F1D2",
"6$	c #A39E8B",
"7$	c #E9E5C8",
"8$	c #DDD9BE",
"9$	c #C1BDA6",
"0$	c #2C2828",
"a$	c #ECE8CA",
"b$	c #E0DCC0",
"c$	c #CCC8B0",
"d$	c #787569",
"e$	c #F5F0D1",
"f$	c #E3DFC3",
"g$	c #D4D0B6",
"h$	c #BCB9A2",
"i$	c #45413D",
"j$	c #F8F3D3",
"k$	c #E4E0C4",
"l$	c #C7C3AB",
"m$	c #AEAB97",
"n$	c #E7E3C7",
"o$	c #D8D3B9",
"p$	c #BDBAA3",
"q$	c #9B9987",
"r$	c #D1CDB3",
"s$	c #B5B29D",
"t$	c #7F7C6E",
"u$	c #E3DEC3",
"v$	c #CDC9B0",
"w$	c #B1AE99",
"x$	c #7C796B",
"y$	c #E6E2C5",
"z$	c #E2DEC2",
"A$	c #CCC8AF",
"B$	c #AFAD98",
"C$	c #7B786B",
"D$	c #CECAB1",
"E$	c #B2AE9A",
"F$	c #7C796C",
"G$	c #B7B49E",
"H$	c #807D70",
"I$	c #D9D5BA",
"J$	c #BFBCA5",
"K$	c #878475",
"L$	c #EEE9CC",
"M$	c #E0DCC1",
"N$	c #CAC6AE",
"O$	c #322F2D",
"P$	c #FAF4D4",
"Q$	c #D7D3B9",
"R$	c #C0BCA6",
"S$	c #817E71",
"T$	c #EBE6C9",
"U$	c #D1CCB3",
"V$	c #BBB8A2",
"W$	c #2A2626",
"X$	c #CFCBB2",
"Y$	c #9D9A88",
"Z$	c #44403C",
"`$	c #E1DDC1",
" %	c #D4CFB5",
".%	c #C5C1AA",
"+%	c #B8B59F",
"@%	c #8E8A7B",
"#%	c #46423D",
"$%	c #DDD8BD",
"%%	c #C9C5AD",
"&%	c #C3BFA8",
"*%	c #9B9786",
"=%	c #4B4842",
"-%	c #C1BCA5",
";%	c #C0BBA4",
">%	c #BDB8A1",
",%	c #BCB7A1",
"                                                                                                                                  ",
"                                                                                                                                  ",
"                                                                                                                . + @ # $         ",
"                                                                                                              % & * = - ; >       ",
"                                                                      , ' ) ! ~                             { ] ^ / ( _ : < [     ",
"                                                                  , } | 1 2 3 4 5 6                         7 8 9 0 a b c d e     ",
"                                                                f g h i j k l m n o p q                 r s t u v w x y z A B     ",
"                                                                C D E F G G H I J K L M N             r O P Q R S T U V W X Y     ",
"                                                                  Z G G       `  ...i +.N @.        #.$.%.&.*.=.-.;.>.,.'.).G     ",
"                                                                                 .!.~.{.+.].    ^./.(._.:.<.[.}.|.1.2.G 3.3.      ",
"                                                                                  4.5.6.7.8.9.0.a.b.c.d.e.f.g.h.i.j.G G G         ",
"                                                                                    k.l.m.n.o.6 p.q.r.s.t.|.u.v.G G               ",
"                                                                                  w.x.y.z.A.B.C.D.e.E.F.G.H.I.G                   ",
"                                                                                J.K.L.M.N N.O.P.x Q.R.S.T.U.G                     ",
"                                    V.V.V.V.V.V.V.V.V.V.V.V.V.V.V.V.V.V.    W.J.X.Y.Z.`. +.+++@+#+$+%+&+G G                       ",
"                            V.V.V.V.V.V.V.V.V.V.V.V.V.V.V.V.V.V.V.V.V.V.*+=+% -+;+>+,+'+)+!+!+@+~+{+]+H                           ",
"                        V.V.V.V.V.^+/+(+(+(+_+:+<+[+}+}+}+}+|+<+<+1+2+3+4+5+6+7+8+9+0+a+@+b+c+d+@+e+f+g+                          ",
"                    V.V.V.V.h+(+i+}+}+}+}+}+}+}+}+}+}+}+}+}+}+}+}+j+k+. l+m+n+o+p+q+r+@+@+s+t+C u+v+w+[ ]+                        ",
"                  V.V.V.h+1+}+}+}+}+}+}+}+}+}+}+}+}+}+}+}+}+}+x+y+4+z+A+B+C+D+E+F+@+@+G+H+I+J+K+L+w+M+N+O+                        ",
"                  V.V.^+[+}+}+}+}+}+}+}+}+}+}+}+}+}+}+}+}+}+j+k+. l+P+Q+R+S+T+r+@+@+U+V+W+X+Y+Z+`+ @.@+@@@#@                      ",
"                  V.V.V.V.1+}+}+}+}+<+<+}+}+}+}+}+}+}+}+x+y+4+z+A+$@%@&@*@=@@+@+-@;@>@,@'@)@!@G   ~@{@]@^@#@                      ",
"                  V.V.V.V.V./@/+V.V.V.V.V./+<+}+}+}+}+(@k+% l+_@7+:@<@[@}@@+@+|@1@2@3@4@5@6@7@      [ 8@9@0@a@                    ",
"                V.V.V.V.V.V.V./+b@(+:+:+b@^+V.c@|+}+d@4+X.A+e@f@g@h@i@@+@+-@j@k@l@m@n@o@7@p@q@      !.r@s@t@u@                    ",
"                V.V.V.V.V.V.h+}+}+}+}+}+}+v@b@V.w@x@y@z@A@B+B@C@D@E@@+@+G+H+F@G@H@I@J@G K@/@V.V.      L@M@N@O@                    ",
"                V.V.V.V.V.V.V.i+}+}+}+}+}+P@}+1+Q@R@S@T@U@V@W@X@r+@+@+Y@Z@`@ #.#+#@#G ##$#|+^+V.      %#&#*#=#-#                  ",
"              V.V.V.V.V.V.V.V._+}+}+}+}+;#>#,#}+'#)#!#~#{#]#^#@+@+/#(#_#:#<#[#}#|#1#2#>#3#}+(+V.V.      4#5#6#H                   ",
"              V.V.V.V.V.V.V.V.c@}+}+}+}+7#>#3#}+}+}+8#9#0#a#b#@+|@c#d#e#f#g#h#i#j#k#>#>#3#}+|+^+V.      l#m#n#                    ",
"          V.V.V.V.V.V.V.V.c@1+}+}+}+}+}+o#>#3#}+}+}+}+p#q#r#s#t#u#v#w#x#y#z#i#A#k#>#>#>#>#B#}+/@V.V.  C#D#r#E#                    ",
"      V.V.V.V.V.h+F#V._+[+}+}+}+}+}+}+G#>#>#>#H#3#3#3#I#J#K#L#M#N#O#P#Q#R#G S#T#>#>#>#>#>#>#}+i+V.V.U#V#W#E X#                    ",
"    V.V.^+(+i+}+}+}+V.|+}+}+}+}+}+}+}+Y#>#>#>#>#>#>#>#>#Z#`# $.$+$@$#$$$%$&$>#>#>#>#>#T#o#*$}+}+h+=$f -$;$>$G                     ",
"  V.V.F#|+}+}+}+}+[+h+<+}+}+}+}+}+}+}+,#>#>#T#,#*$}+}+}+}+}+,$]+'$)$!$~${$>#>#>#T#o#Y#}+}+}+}+}+b@]$^$/$($G                       ",
"  V.V.|+}+}+}+}+:+^+b@|+}+}+}+}+}+}+}+,#>#$#G#}+}+}+}+}+}+}+}+_$:$i#<$[$3#o#}$B#}+}+}+}+}+}+}+}+_+V.|$6@G G                       ",
"V.V.V.}+}+}+}+|+V.:+}+}+}+}+}+}+}+}+}+7#1$}+}+}+}+}+}+}+}+}+}+2$U.3$^+V.:+}+}+}+}+}+}+}+}+}+}+|+F#V.V.                            ",
"V.V.V.[+}+}+}+(+c@}+}+}+}+}+}+}+}+}+<+}+}+}+}+}+}+}+}+}+}+}+}+}+}+}+|+h+h+}+}+}+}+}+}+}+}+}+1+h+V.V.                              ",
"V.V.V.<+}+}+}+1+<+}+}+}+}+}+4$5$1$6$V.i+}+}+}+}+}+}+}+}+}+}+}+}+}+}+}+1+V.(+}+}+}+}+}+}+1+^+V.V.V.                                ",
"V.V.V.<+}+}+}+}+}+}+}+}+}+4$7$8$9$0$_+}+}+}+}+}+}+}+}+}+}+}+}+}+}+}+}+}+/+V.<+}+}+}+}+}+^+V.V.V.V.                                ",
"V.V.V.:+}+}+}+}+}+}+}+}+}+a$b$c$d$h+}+}+}+}+}+}+}+}+:+(+(+1+i+}+}+}+}+}+|+^+^+|+}+}+}+<+V.V.V.V.V.                                ",
"V.V.V.(+}+}+}+}+}+}+}+}+e$f$g$h$i$(+}+}+}+}+}+}+1+h+V.V.V.V.V.^+/@|+}+}+}+/@V.}+}+}+}+(+V.V.V.V.V.                                ",
"V.V.V.c@}+}+}+}+}+}+}+j$k$T#l$m$V.<+}+}+}+}+_+h+V.V.V.V.V.V.V.V.V.b@}+}+}+^+^+<+}+}+}+(+V.V.V.V.V.                                ",
"V.V.V.^+}+}+}+}+}+}+}+n$k$o$p$q$V.|+}+}+}+[+V.V.V.V.V.V.V.V.V.V.V.V.<+}+}+1+^+V.1+}+}+_+V.V.V.V.V.                                ",
"V.V.V.V.i+}+}+}+}+}+}+k$f$r$s$t$V.}+}+}+}+_+V.V.V.V.V.V.V.V.V.V.V.V.F#}+}+}+|+_+|+}+}+|+^+V.V.V.V.                                ",
"  V.V.V._+}+}+}+}+}+}+k$u$v$w$x$V.}+}+}+}+(+V.V.V.V.V.V.V.V.V.V.V.V.V.(+}+}+}+}+}+}+}+}+|+_+h+V.V.V.                              ",
"  V.V.V.h+}+}+}+}+}+}+y$z$A$B$C$V.}+}+}+}+[+^+V.V.V.V.V.V.V.V.V.V.V.V.F#}+}+}+}+:+1+|+}+}+}+}+<+^+V.V.                            ",
"  V.V.V.V.<+}+}+}+}+}+a$f$D$E$F$h+}+}+}+}+}+i+^+V.V.V.V.V.V.V.V.V.V.^+i+}+}+}+:+V.V.1+}+}+}+}+}+i+V.V.                            ",
"    V.V.V./+}+}+}+}+}+e$k$k#G$H$F#}+}+}+}+}+}+[+F#V.V.V.V.^+(+<+:+/+i+}+}+}+}+(+V.V./@}+}+}+}+}+}+/@V.V.                          ",
"    V.V.V.V.<+}+}+}+}+}+y$I$J$K$V.|+}+}+}+}+}+}+}+1+F#V./+|+}+}+}+}+}+}+}+}+}+(+V.V.h+}+}+}+}+}+}+<+V.V.                          ",
"      V.V.V.h+|+}+}+}+}+L$M$N$w$O$b@}+}+}+}+}+}+}+}+}+}+}+}+}+}+}+}+}+}+}+}+}+(+V.V.V.|+}+}+}+}+}+}+V.V.                          ",
"        V.V.V./+}+}+}+}+P$k$Q$R$S$V._+}+}+}+}+}+}+}+}+}+}+}+}+}+}+}+}+}+}+}+}+(+V.V.V.:+}+}+}+}+}+[+V.V.                          ",
"        V.V.V.V./@}+}+}+}+T$z$U$V$d$W$/+[+}+}+}+}+}+}+}+}+}+}+}+}+}+}+}+}+}+}+(+V.V.V.b@}+}+}+}+}+:+V.V.                          ",
"          V.V.V.V.F#[+}+}+P$k$b$X$p$Y$Z$V./@i+}+}+}+}+}+}+}+}+}+}+}+}+}+}+}+}+(+/@<+_+(+}+}+}+}+}+b@V.V.                          ",
"            V.V.V.V.^+_+}+}+e$k$`$ %.%+%@%#%V.c@[+}+}+}+}+}+}+}+}+}+}+}+}+}+}+}+}+}+}+}+}+}+}+}+}+h+V.                            ",
"              V.V.V.V.V.h+(+[+P$a$f$$%k#%%&%*%=%V.(+}+}+}+}+}+}+}+}+}+}+}+}+}+}+}+}+}+}+}+}+}+}+1+V.V.                            ",
"                V.V.V.V.V.V.V.h+/@'#-%;%>%>%,%I#F#V./@}+}+}+}+}+}+}+}+}+}+}+}+}+}+}+}+}+}+}+}+}+/@V.V.                            ",
"                    V.V.V.V.V.V.V.V.V.V.V.V.V.V.V.V.V.1+}+}+}+}+}+}+}+}+}+}+}+}+}+}+}+}+}+}+}+}+/+V.V.                            ",
"                        V.V.V.V.V.V.V.V.V.V.V.V.V.V.V./+}+}+}+}+}+}+}+}+}+}+}+}+}+}+}+}+}+}+}+}+/+V.V.                            ",
"                            V.V.V.V.V.V.V.V.V.V.V.V.V.F#}+}+}+}+}+}+}+}+}+}+}+}+}+}+}+}+}+}+}+}+h+V.                              ",
"                                  V.V.V.V.V.V.V.V.V.V.V.|+}+}+}+1+[+}+}+}+}+}+}+}+}+}+}+(+(+}+}+h+V.                              ",
"                                                  V.V.V.(+}+}+}+/+<+}+}+i+|+}+}+}+(+}+}+1+c@}+i+V.V.                              ",
"                                                  V.V.V.^+}+}+}+/+<+}+}+/+<+}+}+}+V.}+}+<+/+<+^+V.V.                              ",
"                                                  V.V.V.V.b@[+}+/+<+}+}+/+<+}+}+}+V.}+}+:+^+V.V.V.V.                              ",
"                                                    V.V.V.V.V.h+^+(+i+}+/+<+}+}+}+V._+/+V.V.V.V.V.V.                              ",
"                                                    V.V.V.V.V.V.V.V.V.V.V.F#/+F#V.V.V.V.V.V.V.V.V.                                ",
"                                                      V.V.V.V.V.V.V.V.V.V.V.V.V.V.V.V.V.V.V.V.                                    ",
"                                                      V.V.V.V.V.V.V.V.V.V.V.V.V.V.V.V.V.V.V.                                      ",
"                                                          V.V.V.V.V.V.V.V.V.V.V.V.V.V.                                            "};
