/* XPM */
static const char * next_xpm[] = {
"64 64 430 2",
"  	c None",
". 	c #221E1F",
"+ 	c #757373",
"@ 	c #292526",
"# 	c #BCBBBB",
"$ 	c #595457",
"% 	c #231E20",
"& 	c #81817F",
"* 	c #949A92",
"= 	c #272324",
"- 	c #96791C",
"; 	c #56461E",
"> 	c #545752",
", 	c #A3C4A0",
"' 	c #4D7849",
") 	c #271C24",
"! 	c #221C20",
"~ 	c #393739",
"{ 	c #8F9396",
"] 	c #555355",
"^ 	c #D7AB1B",
"/ 	c #F1BF1A",
"( 	c #30291F",
"_ 	c #474844",
": 	c #7FB47B",
"< 	c #6BCB65",
"[ 	c #4C7848",
"} 	c #282324",
"| 	c #21191E",
"1 	c #373638",
"2 	c #91989D",
"3 	c #DBE6EC",
"4 	c #E4EDF2",
"5 	c #EFF4F7",
"6 	c #C4C4C5",
"7 	c #706F71",
"8 	c #474744",
"9 	c #70A56B",
"0 	c #5DC656",
"a 	c #61BF5A",
"b 	c #51904C",
"c 	c #2C3228",
"d 	c #211A1F",
"e 	c #484A4D",
"f 	c #8F9AA1",
"g 	c #CADAE2",
"h 	c #D3E1E8",
"i 	c #FBFCFD",
"j 	c #F2F6F8",
"k 	c #CAD2D6",
"l 	c #65676B",
"m 	c #8A6F1D",
"n 	c #6FA46B",
"o 	c #57BE50",
"p 	c #52B54C",
"q 	c #5FC257",
"r 	c #58A053",
"s 	c #354231",
"t 	c #231B21",
"u 	c #231F20",
"v 	c #44474B",
"w 	c #8E9CA5",
"x 	c #B9CDD7",
"y 	c #C1D3DC",
"z 	c #E1EBF0",
"A 	c #B2C0C8",
"B 	c #5C6065",
"C 	c #2D261F",
"D 	c #57BF50",
"E 	c #4EB047",
"F 	c #52B34A",
"G 	c #5EC056",
"H 	c #5DAC58",
"I 	c #394E35",
"J 	c #21181F",
"K 	c #2A2829",
"L 	c #748189",
"M 	c #ABC1CD",
"N 	c #B2C6D1",
"O 	c #DCE7ED",
"P 	c #E3EBF0",
"Q 	c #BFD1DA",
"R 	c #96A6B0",
"S 	c #3B3C40",
"T 	c #2F281F",
"U 	c #E4B51A",
"V 	c #4EB147",
"W 	c #4FB248",
"X 	c #59BD52",
"Y 	c #5DB156",
"Z 	c #42683D",
"` 	c #242022",
" .	c #221D20",
"..	c #292729",
"+.	c #879AA5",
"@.	c #A5BCC8",
"#.	c #FAFCFD",
"$.	c #FFFFFF",
"%.	c #E4ECF0",
"&.	c #B0C6D1",
"*.	c #A7BECA",
"=.	c #51585D",
"-.	c #3C321E",
";.	c #CAA11B",
">.	c #4FB048",
",.	c #57B950",
"'.	c #60BC5A",
").	c #4C7D46",
"!.	c #2B2928",
"~.	c #221C1F",
"{.	c #8296A1",
"].	c #9EB7C4",
"^.	c #EDF2F5",
"/.	c #4E555B",
"(.	c #4FB148",
"_.	c #55B64E",
":.	c #61C05B",
"<.	c #538D4E",
"[.	c #2D2F29",
"}.	c #20181D",
"|.	c #5D6A72",
"1.	c #97B1BF",
"2.	c #F5F8FA",
"3.	c #D3E0E6",
"4.	c #95AFBD",
"5.	c #444A4F",
"6.	c #493C1E",
"7.	c #705A1D",
"8.	c #A3831C",
"9.	c #60C259",
"0.	c #579A50",
"a.	c #2F3C2D",
"b.	c #20161E",
"c.	c #70818A",
"d.	c #D1DEE6",
"e.	c #BBCED8",
"f.	c #EFF3F6",
"g.	c #EBF0F2",
"h.	c #8EA5B2",
"i.	c #2F2F32",
"j.	c #BD971B",
"k.	c #2C261F",
"l.	c #50B349",
"m.	c #5DC356",
"n.	c #5AAB55",
"o.	c #3A5036",
"p.	c #261C23",
"q.	c #241F21",
"r.	c #657078",
"s.	c #C6D7E0",
"t.	c #C5D5DD",
"u.	c #E2E9ED",
"v.	c #6D828E",
"w.	c #231F1F",
"x.	c #4FB348",
"y.	c #5BBF53",
"z.	c #61B55A",
"A.	c #456541",
"B.	c #261D23",
"C.	c #636C73",
"D.	c #A6BBC7",
"E.	c #C0D1DA",
"F.	c #9CB4C0",
"G.	c #464F55",
"H.	c #2E271F",
"I.	c #59BD51",
"J.	c #62B95B",
"K.	c #497544",
"L.	c #252023",
"M.	c #211C1E",
"N.	c #909EA7",
"O.	c #FAFBFC",
"P.	c #B2C5CE",
"Q.	c #748E9B",
"R.	c #7D641D",
"S.	c #52BB4B",
"T.	c #366E31",
"U.	c #151513",
"V.	c #161213",
"W.	c #55595E",
"X.	c #CEDBE2",
"Y.	c #ABBFCA",
"Z.	c #7F9EAD",
"`.	c #3E454A",
" +	c #4DAE46",
".+	c #459E3F",
"++	c #265923",
"@+	c #0F1D0E",
"#+	c #0A0909",
"$+	c #131011",
"%+	c #5D6368",
"&+	c #CFDBE2",
"*+	c #F2F5F7",
"=+	c #8DA9B7",
"-+	c #5E737E",
";+	c #4CAD46",
">+	c #43993D",
",+	c #1D421A",
"'+	c #0E190D",
")+	c #0A090A",
"!+	c #191617",
"~+	c #211D1E",
"{+	c #98A8B1",
"]+	c #86A3B2",
"^+	c #7999A9",
"/+	c #272627",
"(+	c #241F1F",
"_+	c #4CAD45",
":+	c #40933A",
"<+	c #163214",
"[+	c #0C150C",
"}+	c #0C0A0B",
"|+	c #1B1719",
"1+	c #55451E",
"2+	c #4BAA44",
"3+	c #3D8C37",
"4+	c #132B12",
"5+	c #0C140B",
"6+	c #0E0A0C",
"7+	c #1C191A",
"8+	c #90731C",
"9+	c #63501D",
"0+	c #4AAA44",
"a+	c #398434",
"b+	c #132911",
"c+	c #0C110B",
"d+	c #100C0E",
"e+	c #1E1B1C",
"f+	c #A3821C",
"g+	c #49A642",
"h+	c #34772F",
"i+	c #122711",
"j+	c #0B0F0A",
"k+	c #120E10",
"l+	c #201C1D",
"m+	c #2B251F",
"n+	c #4DB046",
"o+	c #47A140",
"p+	c #2C6628",
"q+	c #11230F",
"r+	c #0A0C09",
"s+	c #141112",
"t+	c #C69E1B",
"u+	c #B08D1C",
"v+	c #449B3E",
"w+	c #255521",
"x+	c #101F0E",
"y+	c #0A0B0A",
"z+	c #161314",
"A+	c #67531D",
"B+	c #383D42",
"C+	c #3A3F43",
"D+	c #4CAE46",
"E+	c #41963C",
"F+	c #1D431B",
"G+	c #0F1C0E",
"H+	c #0B0A0A",
"I+	c #191516",
"J+	c #DDB01A",
"K+	c #393E42",
"L+	c #7D99A7",
"M+	c #8BA7B6",
"N+	c #93AEBC",
"O+	c #9DB6C4",
"P+	c #B3C7D2",
"Q+	c #BFD1DB",
"R+	c #CEDDE5",
"S+	c #DEE9EE",
"T+	c #F1F6F8",
"U+	c #D7E4EA",
"V+	c #C3D5DE",
"W+	c #B1C6D1",
"X+	c #A3BBC8",
"Y+	c #98B1BF",
"Z+	c #78929F",
"`+	c #4CAB45",
" @	c #3F9039",
".@	c #163314",
"+@	c #0C0A0C",
"@@	c #8A6F1C",
"#@	c #EFBD1A",
"$@	c #3B3F44",
"%@	c #84A2B0",
"&@	c #34373A",
"*@	c #50BC49",
"=@	c #3B8936",
"-@	c #0D150C",
";@	c #0E0B0C",
">@	c #1D191A",
",@	c #4E401E",
"'@	c #7E96A3",
")@	c #56666F",
"!@	c #464644",
"~@	c #6AA366",
"{@	c #3E9339",
"]@	c #122811",
"^@	c #9C7D1C",
"/@	c #A0B2BC",
"(@	c #5D6166",
"_@	c #4E4F51",
":@	c #525154",
"<@	c #565556",
"[@	c #575556",
"}@	c #505053",
"|@	c #4B4C4F",
"1@	c #4F5357",
"2@	c #636D74",
"3@	c #5D6870",
"4@	c #788E9A",
"5@	c #728C9A",
"6@	c #444643",
"7@	c #4C9947",
"8@	c #0A0E0A",
"9@	c #B4901B",
"0@	c #282628",
"a@	c #8EA0AA",
"b@	c #2C292B",
"c@	c #36383C",
"d@	c #7D9CAB",
"e@	c #33363A",
"f@	c #363833",
"g@	c #182C16",
"h@	c #141012",
"i@	c #95ACB9",
"j@	c #2B292A",
"k@	c #5E7079",
"l@	c #4D5C64",
"m@	c #1C1919",
"n@	c #090808",
"o@	c #9D7E1C",
"p@	c #546068",
"q@	c #576067",
"r@	c #7794A2",
"s@	c #67818E",
"t@	c #0D0B0C",
"u@	c #151213",
"v@	c #718995",
"w@	c #414448",
"x@	c #4F5D65",
"y@	c #7798A8",
"z@	c #2D2E31",
"A@	c #181515",
"B@	c #2E2E31",
"C@	c #83A1B0",
"D@	c #484D52",
"E@	c #6C8896",
"F@	c #47535A",
"G@	c #60757F",
"H@	c #6E7D86",
"I@	c #424C52",
"J@	c #647F8C",
"K@	c #7C9BAB",
"L@	c #5E7783",
"M@	c #2D2D30",
"N@	c #323438",
"O@	c #7697A7",
"P@	c #6C787F",
"Q@	c #373C41",
"R@	c #455159",
"S@	c #323539",
"T@	c #3D3E41",
"U@	c #313538",
"V@	c #303438",
"W@	c #353B40",
"X@	c #435158",
"Y@	c #485861",
"Z@	c #2B2D2F",
"`@	c #97A7B0",
" #	c #2C2A2B",
".#	c #688B9A",
"+#	c #6D92A2",
"@#	c #838D94",
"##	c #627986",
"$#	c #626669",
"%#	c #52636C",
"&#	c #686A6D",
"*#	c #48545C",
"=#	c #6E6E70",
"-#	c #383E42",
";#	c #737172",
">#	c #272527",
",#	c #5F7C89",
"'#	c #4C5F69",
")#	c #282729",
"!#	c #959B9F",
"~#	c #2D2B2C",
"{#	c #516771",
"]#	c #566E79",
"^#	c #7694A2",
"/#	c #AFBEC6",
"(#	c #595E63",
"_#	c #2B292B",
":#	c #5A7581",
"<#	c #394248",
"[#	c #667D88",
"}#	c #9BB2BE",
"|#	c #6C7B84",
"1#	c #313033",
"2#	c #454E54",
"3#	c #667983",
"4#	c #3A3E43",
"5#	c #648492",
"6#	c #77919E",
"7#	c #627A86",
"8#	c #414B52",
"9#	c #3E4A50",
"0#	c #3C4044",
"a#	c #7394A4",
"b#	c #668392",
"c#	c #3A4248",
"d#	c #4B5259",
"e#	c #7092A2",
"f#	c #5B7481",
"g#	c #424549",
"h#	c #9FB5C0",
"i#	c #86939B",
"j#	c #A4AEB4",
"k#	c #525254",
"l#	c #BEC1C2",
"m#	c #3C393B",
"n#	c #888D92",
"o#	c #AEBDC6",
"p#	c #6B777E",
"q#	c #899FAB",
"r#	c #303033",
"s#	c #475056",
"t#	c #5B6D77",
"u#	c #2D2E30",
"v#	c #3B4349",
"w#	c #3F4950",
"                                                                                                                                ",
"                        .                                                                                                       ",
"                      . + @                                                                                                     ",
"                      . # $ %                                           . . .                                                   ",
"          .           . & * = %                                     . . . . . . .                                               ",
"        . - ; .       . > , ' ) ! .                             . . . . ~ { ] . . . . .                                         ",
"        . ^ / - (     . _ : < [ } | .                       . . . . 1 2 3 4 5 6 7 . . . . .                                     ",
"        . / / / ^ ; . . 8 9 0 a b c d %                 . . . . e f g h 3 4 5 i j k l . . . .                                   ",
"        ; / / / / / m . 8 n o p q r s t u             . . . v w x y g h 3 4 5 i j z h A B . . . .                               ",
"        ; / / / / / / C 8 n D E F G H I J .       . . . K L M N x y g h 3 4 5 i j z O P Q R S . . .                             ",
"        T U / / / / / T 8 n D E V W X Y Z `  .. . . . ..+.@.M N x y g h 3 4 5 i j z #.$.%.&.*.=.. . .                           ",
"          -.;./ / / / T 8 n D E V V >.,.'.).!.~.. . ..{.].@.M N x y g h 3 4 5 i j z $.$.^.&.*.]./.. . .                         ",
"            . m U / / T 8 n D E V V V (._.:.<.[.}.. |.1.].@.M N x y g h 3 4 5 i j z 2.$.3.&.*.].4.5.. . .                       ",
"            6.7.-.8./ T 8 n D E V V V V (.p 9.0.a.b.u c.].@.M N x y g h 3 4 5 i j z h d.e.&.f.$.g.h.i.. .           .           ",
"            ; / j.6.; k.8 n D E V V V V V E l.m.n.o.p.q.r.@.M N x y g h 3 4 5 i j z h s.e.t.$.$.$.u.v.. . .         .           ",
"            ; / / / - w.8 n D E V V V V V V E x.y.z.A.B. .C.D.N x y g h 3 4 5 i j z h s.e.E.$.$.$.$.F.G.. . .     . T           ",
"            6./ / / / H.8 n D E V V V V V V V V (.I.J.K.L.M.. N.x y g h 3 4 5 i j z h s.e.&.O.$.$.$.P.Q.. . .     T R.          ",
"            . ;./ / / T 8 n D E V V V V V V V V V (.p S.T.U.V.W.x y g h 3 4 5 i j z h s.e.&.X.$.$.$.Y.Z.`.. . . . m m .         ",
"              T m U / T 8 n D E V V V V V V V V V  +.+++@+#+$+%+x y g h 3 4 5 i j z h s.e.&.*.&+*+u.=+Z.-+. . . T U - .         ",
"                . . 7.C 8 n D E V V V V V V V V ;+>+,+'+)+!+~+{+x y g h 3 4 5 i j z h s.e.&.*.].4.=+]+Z.^+/+. . m / j..         ",
"                  . 8.(+8 n D E V V V V V V E _+:+<+[+}+|+. 1+; ; ; ; ; ; ; ; ; T . . . . . . . . . . . . . . T U / j..         ",
"                  . / T 8 n D E V V V V V V 2+3+4+5+6+7+8+9+6.;./ / / / / / / / / / / / / / / / / / / / / / / / / / j..         ",
"                  . ;.T 8 n D E V V V V V 0+a+b+c+d+e+f+/ / 8.-.- / / / / / / / / / / / / / / / / / / / / / / / / / / .         ",
"                  . 8.T 8 n D E V V V E g+h+i+j+k+l+m+- / / / ^ 6.9+U / / / / / / / / / / / / / / / / / / / / / / / / .         ",
"                    6.H.8 n D E V V n+o+p+q+r+s+~+t+^ 9+u+/ / / / m -.j./ / / / / / / / / / / / / / / / / / / / / / / .         ",
"                    . w.8 n D E V  +v+w+x+y+z+~+A+^ / / / / / / / / j.T . B+C+. . . . . . . . . . . . . . . . . . R./ ;         ",
"                      . 8 n D E D+E+F+G+H+I+. J+m -.; u+/ / / / / / / U 9+K+L+M+N+O+*.P+Q+R+S+T+T+U+V+W+X+Y+=+Z+u . ; 6.        ",
"                      . 8 n D `+ @.@'++@|+@@#@/ / / 8.9+^ / / / / / / / / R.$@M+N+O+*.P+Q+R+S+T+T+U+V+W+X+Y+=+%@&@u . .         ",
"                      . 8 n *@=@4+-@;@>@,@u+/ / / / / / / / / / / / / / / / -.'@N+O+*.P+Q+R+S+T+T+U+V+W+X+Y+=+%@)@u u           ",
"                      . !@~@{@]@c+d+e+^@8.9+T 7.u+/ / / / / / / / / / / / / ; '@N+O+*./@(@_@:@<@[@}@|@1@2@3@4@%@5@u u           ",
"                      . 6@7@b+8@k+l+9@/ / / U 8.6.-.R.U / / / / / / / / / / 0@M+N+O+a@b@u u u u u u u u u u c@%@d@e@u u         ",
"                      . f@g@j+h@~+t+/ / / / / / / ^ - ^ / / / / / / / / / j.$@M+N+i@j@u u u u u u u u u u u u k@d@l@u u         ",
"                      . m@n@s+~+o@/ / / / / / / / / / / / / / / / / / / / - p@M+N+q@u u . . . . . . . . . u u ..r@s@u u         ",
"                      . t@u@~+  . -.; m m j.j.U / / / / / / / / / / / / / 6.v@M+N+w@u u . . . . . . . . . . u u x@y@z@u u       ",
"                      . A@~+      ( j.u+m R.; ; . -.; m / / / / / / / / j.B@C@M+N+D@u u . . . . . . . . . . u u ..E@F@u u       ",
"                                  7./ / / / / / / / ;.;./ / / / / / / U 6.G@C@M+N+H@u u . . . . . . . . . . . u u I@J@u u       ",
"                                . ^ / / / / / / / / / / / / / / / / ^ ; I@K@C@M+N+i@j@u u . . . . . . . . . . u u u L@M@u u     ",
"                                ; / U j.j.j.j.j.8.m m m m 7.; ; ; . . N@O@K@C@M+N+O+P@u u . . . . . . . . . . . u u Q@R@u u     ",
"                              . . . . . . . . . . . . . . . . . . . . S@O@K@C@M+N+O+*.T@u u . . . . . . . . . . . u u U@u u     ",
"                                . . . . V@W@W@W@W@W@W@X@Y@Y@Y@Y@Y@Z@. u O@K@C@M+N+O+*.`@ #u u . . . . . . . . . . u u u u u u   ",
"                              . . V@.#+#+#+#+#+#+#+#+#+#+#+#+#+#+#W@. u E@K@C@M+N+O+*.P+@#u u u . . . . . . . . . . u u u       ",
"                            . . V@.#+#+#+#+#+#+#+#+#+#+#+#+#+#+#+#W@. u ##K@C@M+N+O+*.P+Q+$#u u u . . . . . . . . . . .         ",
"                          . . V@.#+#+#+#+#+#+#+#+#+#+#+#+#+#+#+#+#Y@. u %#K@C@M+N+O+*.P+Q+R+&#u u u . . . . . . . . . .         ",
"                        . . V@.#+#+#+#+#+#+#+#+#+#+#+#+#+#+#+#+#+#Y@. u *#K@C@M+N+O+*.P+Q+R+S+=#u u u . . . . . . . . . .       ",
"                      . . Z@.#+#+#+#+#+#+#+#+#+#+#+#+#+#+#+#+#+#+#Y@. u -#K@C@M+N+O+*.P+Q+R+S+T+;#u u u u . . . . . . . .       ",
"                    . . >#,#+#+#+#+#+#+#+#+#+#+#+#+#+#+#+#+#+#+#+#'#. u )#K@C@M+N+O+*.P+Q+R+S+T+T+!#~#u u u u . . .             ",
"                  . . . {#+#+#+#+#+#+#+#+#+#+#+#+#+#+#+#+#+#+#+#+#]#. . u ^#C@M+N+O+*.P+Q+R+S+T+T+U+/#(#_#u u u u               ",
"                  . . X@+#+#+#+#+#+#+#+#+#+#+#+#+#+#+#+#+#+#+#:#<#. . u u [#C@M+N+O+*.P+Q+R+S+T+T+U+V+W+}#|#1#u u u u           ",
"                  . . ,#+#+#+#+#+#+#+#+#+#+#+#+#+#+#+#+#.#{#Z@. . . . u u 2#C@M+N+O+*.P+Q+R+S+T+T+U+V+W+X+Y+=+3#4#u u u u u     ",
"                  . . . W@Y@:#+#+#+#+#+#+#+#+#+#+#+#5#X@>#. . . .       u ..6#M+N+O+*.P+Q+R+S+T+T+U+V+W+X+Y+=+%@d@7#8#u u u u   ",
"                  . . . . . . . V@9#Y@:#5#+#+#+#]#W@. . . . .           u u 0#M+N+O+*.P+Q+R+S+T+T+U+V+W+X+Y+=+%@d@y@a#b#c#u u   ",
"                        . . . . . . . . . . Z@Z@. . . . .                 u u d#N+O+*.P+Q+R+S+T+T+U+V+W+X+Y+=+%@d@y@a#e#f#u u   ",
"                                . . . . . . . . . .                       u u u /.O+*.P+Q+R+S+T+T+U+V+W+X+Y+=+%@d@y@a#e#f#u u   ",
"                                            . .                             u u u g#h#P+Q+R+S+T+T+U+V+W+X+Y+=+%@d@y@a#e#f#u u   ",
"                                                                              u u u b@i#Q+R+S+T+T+U+V+W+X+Y+=+%@d@y@a#e#f#u u   ",
"                                                                                u u u u |@j#S+T+T+U+V+W+X+Y+=+%@d@y@a#e#f#u u   ",
"                                                                                    u u u u k#l#T+U+V+W+X+Y+=+%@d@y@a#e#f#u u   ",
"                                                                                        u u u u m#n#o#W+X+Y+=+%@d@y@a#e#f#u u   ",
"                                                                                            u u u u u T@p#q#=+%@d@y@a#e#f#u u   ",
"                                                                                                u u u u u u r#s#t#E@a#e#f#u u   ",
"                                                                                                      u u u u u u u u#v#w#u u   ",
"                                                                                                            u u u u u u u u u   ",
"                                                                                                                    u u u u u   ",
"                                                                                                                                "};
